<svg width="909" height="164" viewBox="0 0 909 164" fill="none" xmlns="http://www.w3.org/2000/svg">
<path d="M86.3596 101.253C80.0327 105.825 72.2511 108.111 62.9917 108.111C56.6648 108.111 51.0999 107.026 46.297 104.902C41.4942 102.754 37.4533 99.7292 34.1744 95.8269C30.8955 91.9245 28.4478 87.3757 26.8084 82.1803C25.1689 76.9848 24.3608 71.3275 24.3608 65.2315C24.3608 59.1356 25.1689 53.3167 26.8084 48.1213C28.4478 42.9259 30.8493 38.4001 34.0127 34.567C37.1762 30.7339 41.1247 27.7321 45.8814 25.5847C50.615 23.4372 55.9951 22.375 61.9757 22.375C67.9562 22.375 73.3595 23.391 78.1623 25.423C82.9652 27.455 86.9138 30.3875 90.0311 34.2437C93.1252 38.0768 95.0879 42.8334 95.8729 48.4676H120.28C119.264 38.7464 116.262 30.2721 111.298 23.0447C106.333 15.8173 99.6599 10.16 91.301 6.09601C82.9421 2.03203 73.1747 0 61.9988 0C50.8228 0 41.979 1.84728 34.1281 5.49562C26.2773 9.16706 19.835 14.0393 14.8243 20.1584C9.79046 26.2543 6.07292 33.043 3.64839 40.4783C1.22385 47.9366 0 55.5103 0 63.1764V66.8941C0 73.8907 1.17758 81.0949 3.55593 88.484C5.93429 95.8961 9.62881 102.777 14.6626 109.15C19.6964 115.523 26.1849 120.673 34.1513 124.575C42.1176 128.477 51.7465 130.417 63.0379 130.417C74.3293 130.417 84.9049 128.223 93.3561 123.813C101.83 119.403 108.481 113.537 113.353 106.195C118.202 98.8517 121.204 90.77 122.335 81.9724H97.9281C96.5657 90.2158 92.7327 96.6351 86.4058 101.207L86.3596 101.253Z" fill="url(#paint0_linear_58_2014)"/>
<path d="M199.691 106.588H196.135L173.714 35.2607H150L179.81 125.223H194.865L193.549 130.302C192.764 133.581 191.633 136.144 190.155 138.015C188.677 139.885 186.853 141.224 184.659 142.079C182.466 142.933 179.718 143.349 176.439 143.349H159.167V163.507H174.245C181.819 163.507 188.169 162.607 193.295 160.805C198.445 159.004 202.647 156.026 205.926 151.916C209.205 147.782 211.745 142.287 213.546 135.406L240.816 35.2839H218.28L199.714 106.611L199.691 106.588Z" fill="url(#paint1_linear_58_2014)"/>
<path d="M362.898 116.491C366.731 112.15 369.663 107.093 371.719 101.32C373.751 95.5709 374.767 89.3594 374.767 82.6862V79.1303C374.767 72.4801 373.774 66.3149 371.811 60.6576C369.825 55.0235 366.985 50.059 363.244 45.8334C359.504 41.6077 355.047 38.3057 349.852 35.9273C344.656 33.549 338.906 32.3714 332.58 32.3714C325.468 32.3714 319.072 33.9646 313.437 37.1281C308.103 40.1299 303.832 44.5633 300.553 50.3822V3.57715H277V127.251H295.634V107.255C296.188 108.686 296.789 110.095 297.505 111.411C300.784 117.576 305.309 122.264 311.059 125.474C316.809 128.683 323.482 130.299 331.056 130.299C337.729 130.299 343.733 129.076 349.09 126.651C354.447 124.227 359.065 120.832 362.898 116.491ZM347.889 96.2405C345.788 100.651 342.832 104.114 338.999 106.654C335.166 109.194 330.755 110.465 325.791 110.465C321.381 110.465 317.201 109.448 313.253 107.417C309.304 105.385 306.071 102.498 303.601 98.7806C301.107 95.063 299.883 90.5372 299.883 85.2263V78.4376C299.883 72.8958 301.107 68.1852 303.531 64.2829C305.956 60.3806 309.119 57.4018 313.022 55.3005C316.924 53.1993 321.173 52.1602 325.814 52.1602C330.779 52.1602 335.166 53.3378 338.953 55.7162C342.74 58.0945 345.695 61.4427 347.843 65.8068C349.99 70.1479 351.052 75.2048 351.052 80.9775C351.052 86.7502 350.013 91.8072 347.912 96.2175L347.889 96.2405Z" fill="url(#paint2_linear_58_2014)"/>
<path d="M480.212 38.5605C473.493 34.2194 465.157 32.0488 455.228 32.0488C447.654 32.0488 440.958 33.3881 435.162 36.0435C429.343 38.6989 424.517 42.2551 420.684 46.7116C416.851 51.1681 413.942 56.248 411.956 61.9515C409.97 67.6549 409 73.5661 409 79.6621V82.8717C409 88.7368 409.993 94.5095 411.956 100.167C413.918 105.824 416.874 110.927 420.776 115.499C424.679 120.071 429.597 123.719 435.508 126.421C441.42 129.123 448.347 130.485 456.267 130.485C464.187 130.485 470.583 129.192 476.518 126.583C482.452 123.996 487.324 120.325 491.18 115.568C495.013 110.812 497.623 105.293 498.985 98.966H477.141C476.125 102.36 473.816 105.201 470.191 107.51C466.566 109.819 461.947 110.973 456.29 110.973C450.633 110.973 445.784 109.703 442.066 107.163C438.348 104.623 435.578 101.113 433.753 96.6569C432.576 93.7474 431.814 90.5379 431.421 87.0974H500.509V78.4614C500.509 70.3335 498.823 62.7365 495.429 55.6707C492.035 48.6049 486.978 42.9015 480.258 38.5605H480.212ZM442.02 55.1628C445.622 52.7382 450.032 51.5144 455.228 51.5144C460.423 51.5144 464.718 52.6459 468.113 54.9088C471.507 57.1717 474.07 60.3813 475.825 64.5607C476.818 66.9391 477.487 69.6176 477.926 72.5271H431.745C432.206 69.9409 432.899 67.5625 433.8 65.4151C435.67 61.0047 438.395 57.5873 442.02 55.1628Z" fill="url(#paint3_linear_58_2014)"/>
<path d="M594.91 54.5632V34.0586H591.516C580.548 34.0586 572.258 37.476 566.601 44.3109C562.329 49.4833 559.674 56.4567 558.634 65.2081V35.2362H540V127.23H563.553V79.4552C563.553 71.4427 565.723 65.2774 570.064 60.9826C574.405 56.6877 580.548 54.5401 588.445 54.5401H594.887L594.91 54.5632Z" fill="url(#paint4_linear_58_2014)"/>
<path d="M658.745 127.254H668.05H674.839H683.636H689.571L714.486 35.2607H691.764L673.038 107.951H669.043L647.222 35.2607H623L651.794 127.254H658.745Z" fill="url(#paint5_linear_58_2014)"/>
<path d="M814.674 126.582C820.885 123.996 826.127 120.486 830.422 116.076C834.717 111.665 837.973 106.655 840.166 100.997C842.36 95.34 843.468 89.4289 843.468 83.2175V79.6614C843.468 73.3345 842.337 67.3309 840.074 61.6275C837.811 55.9241 834.509 50.8441 830.168 46.3876C825.827 41.9311 820.539 38.4213 814.328 35.8813C808.116 33.3413 801.12 32.0713 793.315 32.0713C785.51 32.0713 778.491 33.3413 772.233 35.8813C765.952 38.4213 760.664 41.9311 756.3 46.3876C751.959 50.8441 748.657 55.9472 746.395 61.6275C744.132 67.3309 743 73.3576 743 79.6614V83.2175C743 89.4289 744.108 95.3631 746.302 100.997C748.496 106.631 751.751 111.665 756.046 116.076C760.341 120.486 765.583 123.973 771.794 126.582C778.006 129.168 785.187 130.484 793.315 130.484C801.443 130.484 808.439 129.191 814.651 126.582H814.674ZM769.693 96.1714C767.592 91.8303 766.553 86.8889 766.553 81.3471C766.553 75.8053 767.615 70.8408 769.762 66.4304C771.91 62.0201 774.981 58.5564 778.999 56.0164C783.017 53.4765 787.773 52.2064 793.315 52.2064C798.857 52.2064 803.59 53.4765 807.539 56.0164C811.488 58.5564 814.535 62.0201 816.683 66.4304C818.83 70.8408 819.892 75.8053 819.892 81.3471C819.892 86.8889 818.853 91.8303 816.752 96.1714C814.651 100.512 811.649 103.976 807.677 106.516C803.729 109.056 798.926 110.326 793.269 110.326C787.611 110.326 782.647 109.056 778.699 106.516C774.75 103.976 771.725 100.536 769.624 96.1714H769.693Z" fill="url(#paint6_linear_58_2014)"/>
<path d="M884.522 3.57715H873V21.1954H884.522V127.251H908.075V21.1954V3.57715H884.522Z" fill="url(#paint7_linear_58_2014)"/>
<defs>
<linearGradient id="paint0_linear_58_2014" x1="53.2814" y1="-64.2343" x2="86.6971" y2="134.11" gradientUnits="userSpaceOnUse">
<stop stop-color="#6F90B4"/>
<stop offset="0.413462" stop-color="#547AA2" stop-opacity="0.27"/>
<stop offset="0.999637" stop-color="#2E5A88" stop-opacity="0"/>
</linearGradient>
<linearGradient id="paint1_linear_58_2014" x1="189.554" y1="-27.9045" x2="232.193" y2="163.159" gradientUnits="userSpaceOnUse">
<stop stop-color="#6F90B4"/>
<stop offset="0.413462" stop-color="#547AA2" stop-opacity="0.27"/>
<stop offset="0.999637" stop-color="#2E5A88" stop-opacity="0"/>
</linearGradient>
<linearGradient id="paint2_linear_58_2014" x1="319.581" y1="-58.8375" x2="358.544" y2="131.377" gradientUnits="userSpaceOnUse">
<stop stop-color="#6F90B4"/>
<stop offset="0.413462" stop-color="#547AA2" stop-opacity="0.27"/>
<stop offset="0.999637" stop-color="#2E5A88" stop-opacity="0"/>
</linearGradient>
<linearGradient id="paint3_linear_58_2014" x1="448.856" y1="-16.434" x2="474.292" y2="133.198" gradientUnits="userSpaceOnUse">
<stop stop-color="#6F90B4"/>
<stop offset="0.413462" stop-color="#547AA2" stop-opacity="0.27"/>
<stop offset="0.999637" stop-color="#2E5A88" stop-opacity="0"/>
</linearGradient>
<linearGradient id="paint4_linear_58_2014" x1="563.915" y1="-11.8312" x2="600.369" y2="124.115" gradientUnits="userSpaceOnUse">
<stop stop-color="#6F90B4"/>
<stop offset="0.413462" stop-color="#547AA2" stop-opacity="0.27"/>
<stop offset="0.999637" stop-color="#2E5A88" stop-opacity="0"/>
</linearGradient>
<linearGradient id="paint5_linear_58_2014" x1="662.845" y1="-10.049" x2="685.146" y2="130.287" gradientUnits="userSpaceOnUse">
<stop stop-color="#6F90B4"/>
<stop offset="0.413462" stop-color="#547AA2" stop-opacity="0.27"/>
<stop offset="0.999637" stop-color="#2E5A88" stop-opacity="0"/>
</linearGradient>
<linearGradient id="paint6_linear_58_2014" x1="786.758" y1="-16.4001" x2="810.027" y2="133.917" gradientUnits="userSpaceOnUse">
<stop stop-color="#6F90B4"/>
<stop offset="0.413462" stop-color="#547AA2" stop-opacity="0.27"/>
<stop offset="0.999637" stop-color="#2E5A88" stop-opacity="0"/>
</linearGradient>
<linearGradient id="paint7_linear_58_2014" x1="888.276" y1="-57.3362" x2="970.522" y2="90.2633" gradientUnits="userSpaceOnUse">
<stop stop-color="#6F90B4"/>
<stop offset="0.413462" stop-color="#547AA2" stop-opacity="0.27"/>
<stop offset="0.999637" stop-color="#2E5A88" stop-opacity="0"/>
</linearGradient>
</defs>
</svg>
