<svg width="38" height="38" viewBox="0 0 38 38" fill="none" xmlns="http://www.w3.org/2000/svg">
<rect width="38" height="38" rx="7.95592" fill="#6F90B4"/>
<path fill-rule="evenodd" clip-rule="evenodd" d="M8.04773 18.9993C8.04773 24.4147 12.0028 28.9173 17.1747 29.83L17.2358 29.7812C17.2154 29.7772 17.1951 29.7732 17.1747 29.7692V22.0416H14.4366V18.9993H17.1747V16.5654C17.1747 13.8273 18.9393 12.3061 21.434 12.3061C22.225 12.3061 23.0769 12.4278 23.8679 12.5495V15.3485H22.4684C21.1298 15.3485 20.8256 16.0178 20.8256 16.8697V18.9993H23.7462L23.2594 22.0416H20.8256V29.7692C20.8052 29.7732 20.7849 29.7772 20.7645 29.7812L20.8256 29.83C25.9975 28.9173 29.9526 24.4147 29.9526 18.9993C29.9526 12.9755 25.024 8.04688 19.0002 8.04688C12.9763 8.04688 8.04773 12.9755 8.04773 18.9993Z" fill="white"/>
</svg>
