<svg width="38" height="38" viewBox="0 0 38 38" fill="none" xmlns="http://www.w3.org/2000/svg">
<rect width="38" height="38" rx="7.95592" fill="#6F90B4"/>
<path d="M19.0009 9C16.2851 9 15.9443 9.01187 14.8776 9.06042C13.813 9.10916 13.0863 9.2777 12.4505 9.525C11.7927 9.78042 11.2348 10.1221 10.679 10.6781C10.1227 11.234 9.78105 11.7919 9.52479 12.4494C9.27687 13.0854 9.10813 13.8123 9.0602 14.8765C9.01249 15.9431 9 16.2842 9 19C9 21.7158 9.01208 22.0557 9.06041 23.1223C9.10937 24.1869 9.27791 24.9135 9.525 25.5494C9.78063 26.2071 10.1223 26.7651 10.6784 27.3209C11.234 27.8771 11.7919 28.2196 12.4492 28.475C13.0855 28.7223 13.8124 28.8908 14.8767 28.9396C15.9434 28.9881 16.284 29 18.9997 29C21.7157 29 22.0556 28.9881 23.1223 28.9396C24.1868 28.8908 24.9144 28.7223 25.5507 28.475C26.2082 28.2196 26.7652 27.8771 27.3208 27.3209C27.8772 26.7651 28.2187 26.2071 28.4751 25.5496C28.7209 24.9135 28.8897 24.1867 28.9396 23.1226C28.9875 22.0558 29 21.7158 29 19C29 16.2842 28.9875 15.9433 28.9396 14.8767C28.8897 13.8121 28.7209 13.0854 28.4751 12.4496C28.2187 11.7919 27.8772 11.234 27.3208 10.6781C26.7646 10.1219 26.2084 9.78021 25.55 9.525C24.9125 9.2777 24.1853 9.10916 23.1208 9.06042C22.0541 9.01187 21.7146 9 18.9978 9H19.0009ZM18.1039 10.8021C18.3701 10.8017 18.6672 10.8021 19.0009 10.8021C21.671 10.8021 21.9874 10.8117 23.0419 10.8596C24.0169 10.9042 24.5461 11.0671 24.8985 11.204C25.3653 11.3852 25.6979 11.6019 26.0477 11.9519C26.3977 12.3019 26.6144 12.6352 26.796 13.1019C26.9329 13.454 27.0961 13.9831 27.1405 14.9581C27.1884 16.0123 27.1988 16.329 27.1988 18.9977C27.1988 21.6664 27.1884 21.9831 27.1405 23.0373C27.0959 24.0123 26.9329 24.5414 26.796 24.8936C26.6148 25.3603 26.3977 25.6926 26.0477 26.0423C25.6977 26.3923 25.3654 26.609 24.8985 26.7903C24.5464 26.9278 24.0169 27.0902 23.0419 27.1348C21.9877 27.1827 21.671 27.1931 19.0009 27.1931C16.3307 27.1931 16.0142 27.1827 14.9601 27.1348C13.9851 27.0898 13.4559 26.9268 13.1032 26.79C12.6365 26.6088 12.3032 26.3921 11.9532 26.0421C11.6031 25.6921 11.3865 25.3596 11.2048 24.8928C11.0679 24.5406 10.9048 24.0115 10.8604 23.0365C10.8125 21.9823 10.8029 21.6656 10.8029 18.9953C10.8029 16.3248 10.8125 16.0098 10.8604 14.9556C10.905 13.9806 11.0679 13.4515 11.2048 13.099C11.3861 12.6323 11.6031 12.299 11.9532 11.949C12.3032 11.599 12.6365 11.3823 13.1032 11.2006C13.4557 11.0631 13.9851 10.9006 14.9601 10.8558C15.8826 10.8142 16.2401 10.8017 18.1039 10.7996V10.8021ZM24.3389 12.4625C23.6765 12.4625 23.1389 12.9994 23.1389 13.6621C23.1389 14.3246 23.6765 14.8621 24.3389 14.8621C25.0014 14.8621 25.539 14.3246 25.539 13.6621C25.539 12.9996 25.0014 12.4625 24.3389 12.4625ZM19.0009 13.8646C16.1649 13.8646 13.8655 16.164 13.8655 19C13.8655 21.836 16.1649 24.1343 19.0009 24.1343C21.8371 24.1343 24.1356 21.836 24.1356 19C24.1356 16.164 21.837 13.8646 19.0009 13.8646ZM19.0009 15.6667C20.8418 15.6667 22.3343 17.159 22.3343 19C22.3343 20.8409 20.8418 22.3333 19.0009 22.3333C17.1599 22.3333 15.6676 20.8409 15.6676 19C15.6676 17.159 17.1599 15.6667 19.0009 15.6667Z" fill="white"/>
</svg>
