<svg width="26" height="26" viewBox="0 0 26 26" fill="none" xmlns="http://www.w3.org/2000/svg">
<rect width="26" height="26" rx="5.44353" fill="#6F90B4"/>
<path d="M7.41236 7.52565H10.4845L11.4745 10.0011L9.88373 11.0616C9.79005 11.1242 9.71325 11.2088 9.66013 11.3081C9.60702 11.4074 9.57924 11.5183 9.57926 11.6309C9.58131 11.6952 9.57926 11.6316 9.57926 11.6316V11.646C9.5796 11.6766 9.58097 11.7071 9.58336 11.7376C9.58701 11.7942 9.59499 11.8695 9.60731 11.9634C9.63399 12.1482 9.68531 12.4027 9.78521 12.7024C9.98636 13.3045 10.3805 14.0838 11.1482 14.8515C11.9158 15.6192 12.6952 16.0133 13.2966 16.2144C13.5969 16.3143 13.8508 16.365 14.0369 16.3923C14.1419 16.4076 14.2476 16.4167 14.3537 16.4197L14.3626 16.4204H14.368C14.368 16.4204 14.4447 16.4163 14.3687 16.4204C14.4958 16.4203 14.6203 16.3849 14.7283 16.3181C14.8363 16.2512 14.9236 16.1557 14.9804 16.042L15.4388 15.1252L18.474 15.6315V18.5873C17.0296 18.796 13.1283 19.0019 10.063 15.9366C6.99773 12.8714 7.20299 8.96933 7.41236 7.52565ZM10.9976 11.9634L12.234 11.1396C12.4952 10.9654 12.6885 10.7067 12.7816 10.4068C12.8746 10.107 12.8618 9.78424 12.7451 9.49275L11.755 7.01728C11.6535 6.76337 11.4781 6.54573 11.2516 6.39243C11.0252 6.23913 10.7579 6.15721 10.4845 6.15723H7.37678C6.75484 6.15723 6.16984 6.58896 6.06789 7.2636C5.83526 8.7976 5.51984 13.3284 9.09552 16.9041C12.6712 20.4798 17.202 20.1637 18.736 19.9318C19.4107 19.8291 19.8424 19.2448 19.8424 18.6229V15.6315C19.8425 15.3076 19.7276 14.9941 19.5182 14.7469C19.3089 14.4997 19.0186 14.3348 18.6991 14.2815L15.6639 13.7759C15.3753 13.7277 15.0788 13.7734 14.8179 13.9061C14.5571 14.0389 14.3457 14.2517 14.2148 14.5135L13.978 14.9876C13.8944 14.9668 13.8115 14.9429 13.7297 14.9158C13.3055 14.7749 12.7164 14.4848 12.1156 13.884C11.5149 13.2833 11.2248 12.6942 11.0838 12.2693C11.0506 12.1687 11.0221 12.0667 10.9983 11.9634H10.9976Z" fill="white"/>
</svg>
