<svg width="26" height="26" viewBox="0 0 26 26" fill="none" xmlns="http://www.w3.org/2000/svg">
<rect width="26" height="26" rx="5.44353" fill="#6F90B4"/>
<path d="M7.52638 18.4737C7.15006 18.4737 6.82803 18.3399 6.56027 18.0721C6.29252 17.8043 6.15842 17.4821 6.15796 17.1053V8.89479C6.15796 8.51847 6.29206 8.19644 6.56027 7.92868C6.82849 7.66093 7.15052 7.52682 7.52638 7.52637H18.4737C18.8501 7.52637 19.1723 7.66047 19.4405 7.92868C19.7087 8.19689 19.8426 8.51893 19.8422 8.89479V17.1053C19.8422 17.4816 19.7083 17.8039 19.4405 18.0721C19.1728 18.3403 18.8505 18.4742 18.4737 18.4737H7.52638ZM13.0001 13.6843L7.52638 10.2632V17.1053H18.4737V10.2632L13.0001 13.6843ZM13.0001 12.3158L18.4737 8.89479H7.52638L13.0001 12.3158ZM7.52638 10.2632V8.89479V17.1053V10.2632Z" fill="white"/>
</svg>
