<svg width="38" height="38" viewBox="0 0 38 38" fill="none" xmlns="http://www.w3.org/2000/svg">
<rect width="38" height="38" rx="7.95592" fill="#6F90B4"/>
<g clip-path="url(#clip0_58_2057)">
<path d="M19.6424 31.1957L19.6304 31.1978L19.5535 31.2357L19.5319 31.2401L19.5167 31.2357L19.4398 31.1978C19.4282 31.1942 19.4196 31.196 19.4138 31.2032L19.4094 31.2141L19.391 31.6777L19.3964 31.6994L19.4073 31.7135L19.5199 31.7937L19.5362 31.798L19.5492 31.7937L19.6619 31.7135L19.6749 31.6962L19.6792 31.6777L19.6608 31.2152C19.6579 31.2036 19.6517 31.1971 19.6424 31.1957ZM19.9294 31.0732L19.9154 31.0754L19.7149 31.1762L19.7041 31.187L19.7009 31.1989L19.7204 31.6647L19.7258 31.6777L19.7344 31.6853L19.9522 31.7861C19.9659 31.7897 19.9764 31.7868 19.9836 31.7774L19.9879 31.7622L19.9511 31.0971C19.9475 31.0841 19.9403 31.0761 19.9294 31.0732ZM19.1549 31.0754C19.1501 31.0725 19.1444 31.0716 19.1389 31.0728C19.1335 31.074 19.1287 31.0773 19.1256 31.0819L19.1191 31.0971L19.0823 31.7622C19.083 31.7752 19.0891 31.7839 19.1007 31.7882L19.1169 31.7861L19.3347 31.6853L19.3455 31.6767L19.3499 31.6647L19.3683 31.1989L19.365 31.1859L19.3542 31.1751L19.1549 31.0754Z" fill="white"/>
<path d="M19 10.333C19.9262 10.333 20.8763 10.3568 21.7971 10.3958L22.8848 10.4478L23.9259 10.5096L24.9009 10.5757L25.7914 10.645C26.7579 10.7186 27.6675 11.1308 28.3599 11.8092C29.0523 12.4875 29.4832 13.3884 29.5765 14.3533L29.6199 14.8137L29.7011 15.7995C29.777 16.8211 29.8333 17.9348 29.8333 18.9997C29.8333 20.0646 29.777 21.1783 29.7011 22.1998L29.6199 23.1857L29.5765 23.6461C29.4831 24.6111 29.0521 25.5121 28.3595 26.1905C27.6669 26.8689 26.757 27.281 25.7903 27.3543L24.902 27.4226L23.927 27.4898L22.8848 27.5515L21.7971 27.6035C20.8653 27.6439 19.9327 27.6648 19 27.6663C18.0672 27.6648 17.1346 27.6439 16.2028 27.6035L15.1151 27.5515L14.074 27.4898L13.099 27.4226L12.2085 27.3543C11.242 27.2808 10.3324 26.8685 9.64001 26.1902C8.94759 25.5118 8.51675 24.6109 8.42338 23.6461L8.38004 23.1857L8.29879 22.1998C8.21628 21.1351 8.17219 20.0676 8.16663 18.9997C8.16663 17.9348 8.22296 16.8211 8.29879 15.7995L8.38004 14.8137L8.42338 14.3533C8.51671 13.3886 8.9474 12.4878 9.63959 11.8095C10.3318 11.1312 11.2411 10.7188 12.2075 10.645L13.0969 10.5757L14.0719 10.5096L15.114 10.4478L16.2017 10.3958C17.1339 10.3555 18.0669 10.3345 19 10.333ZM19 12.4997C18.1062 12.4997 17.1865 12.5235 16.2916 12.5603L15.2321 12.6113L14.2149 12.6708L13.2594 12.7358L12.384 12.8041C11.9238 12.8363 11.49 13.0306 11.1595 13.3526C10.8291 13.6745 10.6234 14.1031 10.5792 14.5623C10.4525 15.8721 10.3333 17.5025 10.3333 18.9997C10.3333 20.4968 10.4525 22.1273 10.5792 23.437C10.6713 24.3817 11.421 25.1162 12.384 25.1953L13.2594 25.2624L14.2149 25.3274L15.2321 25.3881L16.2916 25.439C17.1865 25.4758 18.1062 25.4997 19 25.4997C19.8937 25.4997 20.8135 25.4758 21.7083 25.439L22.7678 25.3881L23.785 25.3285L24.7405 25.2635L25.6159 25.1953C26.0761 25.163 26.51 24.9687 26.8404 24.6468C27.1709 24.3249 27.3765 23.8962 27.4207 23.437C27.5475 22.1273 27.6666 20.4968 27.6666 18.9997C27.6666 17.5025 27.5475 15.8721 27.4207 14.5623C27.3765 14.1031 27.1709 13.6745 26.8404 13.3526C26.51 13.0306 26.0761 12.8363 25.6159 12.8041L24.7405 12.7369L23.785 12.6719L22.7678 12.6113L21.7083 12.5603C20.806 12.5216 19.9031 12.5014 19 12.4997ZM16.8333 16.3726C16.8332 16.2667 16.859 16.1624 16.9084 16.0688C16.9579 15.9751 17.0294 15.895 17.1169 15.8353C17.2043 15.7756 17.305 15.7382 17.4102 15.7263C17.5154 15.7144 17.622 15.7284 17.7205 15.767L17.8083 15.8103L22.3583 18.4363C22.4489 18.4886 22.5255 18.562 22.5817 18.6502C22.6379 18.7385 22.672 18.839 22.681 18.9432C22.69 19.0474 22.6738 19.1522 22.6336 19.2488C22.5935 19.3454 22.5306 19.4309 22.4504 19.498L22.3583 19.563L17.8083 22.1901C17.7166 22.2432 17.6133 22.2731 17.5074 22.2771C17.4016 22.2812 17.2963 22.2593 17.2008 22.2134C17.1053 22.1674 17.0225 22.0989 16.9596 22.0136C16.8967 21.9284 16.8555 21.829 16.8398 21.7243L16.8333 21.6268V16.3726Z" fill="white"/>
</g>
<defs>
<clipPath id="clip0_58_2057">
<rect width="26" height="26" fill="white" transform="translate(6 6)"/>
</clipPath>
</defs>
</svg>
