<svg width="39" height="37" viewBox="0 0 39 37" fill="none" xmlns="http://www.w3.org/2000/svg">
<path d="M27.7833 20.582C27.2186 21.7185 26.5217 22.8872 25.6747 24.0379L31.1248 33.523L32.5579 31.0284L32.5186 30.9605C30.5101 27.4546 33.0404 23.0909 37.0789 23.0909H37.1289L38.5763 20.582H27.7797H27.7833Z" fill="#2E5A88"/>
<path d="M18.1301 29.1555C17.5654 28.7588 17.0365 28.3442 16.5362 27.9189L11.8508 36.0709H14.7314C16.7542 32.5578 21.8219 32.5578 23.8447 36.0709H26.736L22.0471 27.9189C21.5467 28.3407 21.0178 28.7552 20.4567 29.1519C19.7598 29.6451 18.8342 29.6451 18.1337 29.1519L18.1301 29.1555Z" fill="#2E5A88"/>
<path d="M0.00357735 20.5814L1.44383 23.0902H1.476C5.52161 23.0902 8.0519 27.4682 6.03267 30.9706L6.00765 31.0099L7.44791 33.5187L12.9052 24.0302C12.0582 22.8758 11.3649 21.7107 10.7966 20.5742H0L0.00357735 20.5814Z" fill="#2E5A88"/>
<path d="M9.28126 10.8899C9.99603 10.4253 10.7894 10.0608 11.6043 9.77128L7.44787 2.55566L6.00762 5.05736L6.03263 5.10026C8.04829 8.60621 5.518 12.977 1.47597 12.977H1.44379L0.00354004 15.4787H8.90958C8.6344 14.3959 8.47714 13.4774 8.38779 12.8162C8.28415 12.055 8.63439 11.3045 9.28126 10.8863V10.8899Z" fill="#2E5A88"/>
<path d="M19.213 8.70234C19.2666 8.70234 19.3166 8.70234 19.3666 8.70234C19.6239 8.69162 20.5067 8.67376 21.6968 8.75238L26.7323 0H23.8518V0.00715469C21.8254 3.52026 16.7541 3.51668 14.7349 0.00715469L11.8544 0.00357735L16.8864 8.75953C18.0765 8.67733 18.9628 8.69877 19.2201 8.70949L19.213 8.70234Z" fill="#2E5A88"/>
<path d="M30.1955 12.8191C30.1061 13.4839 29.9489 14.3988 29.6737 15.4817H38.5726L37.1323 12.98H37.1002C33.0546 12.98 30.5243 8.60199 32.5435 5.09961L32.5685 5.06029L31.1282 2.55859L26.979 9.77421C27.7974 10.0637 28.5908 10.4282 29.3056 10.8928C29.9489 11.311 30.2991 12.0615 30.1991 12.8227L30.1955 12.8191Z" fill="#2E5A88"/>
</svg>
