<svg width="38" height="38" viewBox="0 0 38 38" fill="none" xmlns="http://www.w3.org/2000/svg">
<rect width="38" height="37.8242" rx="8.69664" fill="url(#paint0_linear_314_4988)"/>
<path fill-rule="evenodd" clip-rule="evenodd" d="M21.1234 10.1987C21.9302 10.4186 22.705 10.7395 23.4317 11.1553L24.9145 10.496C25.1438 10.3941 25.4122 10.4439 25.5896 10.6213L27.6733 12.7051C27.8505 12.8823 27.9005 13.1502 27.799 13.3794L27.1421 14.8624C27.5582 15.5896 27.8793 16.3652 28.0992 17.1745L29.6114 17.7565C29.8455 17.8466 30 18.0716 30 18.3224V21.2699C30 21.5207 29.8455 21.7457 29.6114 21.8358L28.0989 22.4179C27.8787 23.2247 27.556 23.9995 27.1418 24.7262L27.799 26.2099C27.9005 26.4391 27.8505 26.7071 27.6733 26.8843L25.5896 28.968C25.4124 29.1453 25.1444 29.1952 24.9153 29.0936L23.4327 28.4369C22.7073 28.8528 21.9306 29.1738 21.1232 29.3937L20.5412 30.9061C20.4511 31.1402 20.2261 31.2947 19.9752 31.2947H17.0277C16.7769 31.2947 16.5519 31.1402 16.4619 30.9061L15.8798 29.3939C15.0708 29.1736 14.2955 28.8508 13.5685 28.4364L12.0847 29.0936C11.8556 29.1952 11.5876 29.1453 11.4104 28.968L9.3267 26.8843C9.14926 26.7068 9.09946 26.4384 9.20141 26.2092L9.86045 24.7269C9.44478 24.0018 9.12364 23.2253 8.90194 22.4182L7.3886 21.8358C7.15447 21.7457 7 21.5207 7 21.2699V18.3224C7 18.0716 7.15447 17.8466 7.3886 17.7565L8.90171 17.1742C9.12341 16.3651 9.44471 15.5899 9.86068 14.8629L9.20141 13.3802C9.09946 13.1509 9.14926 12.8825 9.3267 12.7051L11.4104 10.6213C11.5878 10.4439 11.8562 10.3941 12.0855 10.496L13.5682 11.1553C14.2952 10.7394 15.0701 10.4184 15.8771 10.1986L16.462 8.68275C16.5523 8.44892 16.7771 8.29468 17.0277 8.29468H19.9752C20.2262 8.29468 20.4512 8.4493 20.5412 8.68359L21.1234 10.1987ZM20.1038 10.9262L19.5586 9.50741H17.4437L16.8959 10.927C16.8239 11.1134 16.6648 11.2525 16.4703 11.2987C15.5715 11.5123 14.7142 11.8674 13.9263 12.3529C13.756 12.4579 13.5448 12.4721 13.3619 12.3908L11.9734 11.7734L10.4787 13.2681L11.0961 14.6566C11.1774 14.8394 11.1632 15.0507 11.0582 15.221C10.5725 16.0094 10.2173 16.8672 10.0007 17.7693C9.95421 17.9633 9.81512 18.1221 9.62889 18.1938L8.21273 18.7387V20.8536L9.62889 21.3986C9.81497 21.4702 9.95398 21.6287 10.0007 21.8226C10.2171 22.7217 10.5721 23.5822 11.0578 24.3675C11.1632 24.538 11.1775 24.7496 11.0961 24.9328L10.4787 26.3213L11.9739 27.8164L13.3627 27.2013C13.5449 27.1205 13.7551 27.1345 13.9251 27.2386C14.7133 27.7216 15.5709 28.0798 16.4729 28.2935C16.6677 28.3397 16.8272 28.479 16.899 28.6658L17.4441 30.0819H19.5589L20.1039 28.6658C20.1758 28.4791 20.335 28.3399 20.5297 28.2936C21.4282 28.0801 22.288 27.7252 23.0728 27.2399C23.2431 27.1346 23.4543 27.1201 23.6373 27.2013L25.0261 27.8164L26.5217 26.3208L25.9065 24.932C25.8258 24.7498 25.8398 24.5395 25.9439 24.3697C26.4269 23.5813 26.7852 22.7237 26.999 21.8243C27.0452 21.6297 27.1844 21.4704 27.3711 21.3986L28.7873 20.8536V18.7387L27.3711 18.1938C27.1843 18.1218 27.045 17.9624 26.9989 17.7676C26.7853 16.866 26.4302 16.0089 25.9447 15.221C25.8399 15.0509 25.8256 14.84 25.9065 14.6574L26.5217 13.2685L25.0266 11.7734L23.6381 12.3908C23.4552 12.4721 23.244 12.4579 23.0737 12.3529C22.2858 11.8674 21.4285 11.5123 20.5297 11.2987C20.3349 11.2524 20.1756 11.113 20.1038 10.9262ZM19.6778 15.4428L19.6782 15.4435L23.1211 21.4057C23.3673 21.8332 23.3675 22.3364 23.1208 22.7649L23.1203 22.7659C22.8728 23.1921 22.4372 23.4442 21.9435 23.4442H15.0587C14.5658 23.4442 14.1285 23.1914 13.8819 22.7643C13.6357 22.3367 13.6354 21.8336 13.8819 21.4057L17.3241 15.4435C17.5707 15.0153 18.0079 14.7633 18.5011 14.7633C18.9953 14.7633 19.4311 15.015 19.6778 15.4428ZM18.6272 16.0487C18.6008 16.0028 18.554 15.976 18.5011 15.976C18.4483 15.976 18.4015 16.0028 18.3749 16.049L14.9326 22.0112C14.9059 22.0576 14.9059 22.1121 14.9325 22.1586C14.959 22.2043 15.0058 22.2315 15.0587 22.2315H21.9435C21.997 22.2315 22.0438 22.2038 22.0712 22.1573C22.0971 22.1112 22.0969 22.0572 22.0703 22.0112L18.6272 16.0487ZM18.5015 20.3555C18.2546 20.3555 18.0527 20.1605 18.0439 19.9137L17.9659 17.7675L17.9658 17.7666C17.9619 17.6378 18.005 17.5256 18.0937 17.4329L18.0943 17.4323C18.1843 17.3394 18.295 17.2925 18.4241 17.2925H18.5788C18.7081 17.2925 18.8198 17.3397 18.909 17.4327C18.999 17.5258 19.042 17.6384 19.0371 17.7674L18.9598 19.9136C18.951 20.1604 18.7483 20.3555 18.5015 20.3555ZM18.5015 21.5518C18.2017 21.5518 17.9572 21.3074 17.9572 21.0076C17.9572 20.7078 18.2017 20.4633 18.5015 20.4633C18.8014 20.4633 19.0457 20.7078 19.0457 21.0076C19.0457 21.3074 18.8014 21.5518 18.5015 21.5518Z" fill="white"/>
<defs>
<linearGradient id="paint0_linear_314_4988" x1="7.10435" y1="31.2575" x2="40.6417" y2="10.0579" gradientUnits="userSpaceOnUse">
<stop stop-color="#6F90B4"/>
<stop offset="0.567308" stop-color="#2E5A88"/>
<stop offset="1" stop-color="#87BBF3"/>
</linearGradient>
</defs>
</svg>
