<svg width="38" height="38" viewBox="0 0 38 38" fill="none" xmlns="http://www.w3.org/2000/svg">
<rect width="38" height="37.8242" rx="8.69664" fill="url(#paint0_linear_314_5003)"/>
<path d="M13.3114 21.5685C13.487 21.5685 13.6555 21.4987 13.7797 21.3746C13.9038 21.2504 13.9736 21.0819 13.9736 20.9063V13.622H24.5692V20.9063C24.5692 21.0819 24.6389 21.2504 24.7631 21.3746C24.8873 21.4987 25.0558 21.5685 25.2314 21.5685C25.407 21.5685 25.5755 21.4987 25.6997 21.3746C25.8238 21.2504 25.8936 21.0819 25.8936 20.9063V13.622C25.8936 13.2708 25.7541 12.9339 25.5057 12.6855C25.2573 12.4372 24.9204 12.2976 24.5692 12.2976H23.9069V11.6354C23.9069 10.406 23.4186 9.227 22.5492 8.35769C21.6799 7.48837 20.5008 7 19.2714 7C18.042 7 16.8629 7.48837 15.9936 8.35769C15.1242 9.227 14.6358 10.406 14.6358 11.6354V12.2976H13.9736C13.6223 12.2976 13.2855 12.4372 13.0371 12.6855C12.7887 12.9339 12.6492 13.2708 12.6492 13.622V20.9063C12.6492 21.0819 12.7189 21.2504 12.8431 21.3746C12.9673 21.4987 13.1358 21.5685 13.3114 21.5685ZM19.9336 12.2976H18.6092V11.6354C18.6092 11.4598 18.6789 11.2914 18.8031 11.1672C18.9273 11.043 19.0958 10.9732 19.2714 10.9732C19.447 10.9732 19.6155 11.043 19.7397 11.1672C19.8638 11.2914 19.9336 11.4598 19.9336 11.6354V12.2976ZM15.9603 11.6354C15.9603 10.7573 16.3091 9.91512 16.9301 9.29419C17.551 8.67325 18.3932 8.32441 19.2714 8.32441C20.1496 8.32441 20.9917 8.67325 21.6127 9.29419C22.2337 9.91512 22.5825 10.7573 22.5825 11.6354V12.2976H21.2581V11.6354C21.2581 11.1086 21.0488 10.6032 20.6762 10.2307C20.3036 9.85812 19.7983 9.64882 19.2714 9.64882C18.7445 9.64882 18.2392 9.85812 17.8666 10.2307C17.494 10.6032 17.2847 11.1086 17.2847 11.6354V12.2976H15.9603V11.6354Z" fill="white"/>
<path d="M19.2708 19.5821C19.4465 19.5821 19.6149 19.5124 19.7391 19.3882C19.8633 19.264 19.9331 19.0956 19.9331 18.9199V18.7981C20.3749 18.6419 20.7473 18.3345 20.9844 17.9303C21.2216 17.5261 21.3082 17.051 21.2289 16.5891C21.1497 16.1273 20.9097 15.7083 20.5514 15.4062C20.1931 15.1041 19.7395 14.9385 19.2708 14.9385C18.8022 14.9385 18.3486 15.1041 17.9903 15.4062C17.632 15.7083 17.392 16.1273 17.3128 16.5891C17.2335 17.051 17.3201 17.5261 17.5573 17.9303C17.7944 18.3345 18.1668 18.6419 18.6086 18.7981V18.9199C18.6086 19.0956 18.6784 19.264 18.8026 19.3882C18.9268 19.5124 19.0952 19.5821 19.2708 19.5821ZM19.2708 16.2711C19.4018 16.2711 19.5299 16.31 19.6388 16.3827C19.7477 16.4555 19.8325 16.5589 19.8827 16.6799C19.9328 16.8009 19.9459 16.9341 19.9203 17.0625C19.8948 17.191 19.8317 17.309 19.7391 17.4016C19.6465 17.4942 19.5285 17.5572 19.4 17.5828C19.2716 17.6084 19.1384 17.5952 19.0174 17.5451C18.8964 17.495 18.793 17.4101 18.7202 17.3012C18.6475 17.1923 18.6086 17.0643 18.6086 16.9333C18.6086 16.7577 18.6784 16.5893 18.8026 16.4651C18.9268 16.3409 19.0952 16.2711 19.2708 16.2711Z" fill="white"/>
<path d="M27.2178 22.8934H20.9498L19.8241 21.2015C19.76 21.1158 19.6768 21.0463 19.5812 20.9984C19.4856 20.9505 19.3801 20.9255 19.2731 20.9255C19.1661 20.9255 19.0606 20.9505 18.965 20.9984C18.8694 21.0463 18.7862 21.1158 18.7221 21.2015L17.5924 22.8934H11.3244C10.9732 22.8934 10.6363 23.0329 10.3879 23.2813C10.1395 23.5297 10 23.8665 10 24.2178V29.5154C10 29.8667 10.1395 30.2036 10.3879 30.4519C10.6363 30.7003 10.9732 30.8398 11.3244 30.8398H27.2178C27.569 30.8398 27.9059 30.7003 28.1543 30.4519C28.4027 30.2036 28.5422 29.8667 28.5422 29.5154V24.2178C28.5422 23.8665 28.4027 23.5297 28.1543 23.2813C27.9059 23.0329 27.569 22.8934 27.2178 22.8934ZM27.2178 29.5154H11.3244V24.2178H17.9467C18.0557 24.2178 18.163 24.1909 18.2591 24.1395C18.3552 24.0881 18.4371 24.0138 18.4976 23.9231L19.2711 22.7609L20.0446 23.9211C20.1049 24.0122 20.1867 24.0869 20.2828 24.1386C20.3789 24.1904 20.4864 24.2176 20.5956 24.2178H27.2178V29.5154Z" fill="white"/>
<path d="M19.2714 27.528C19.6371 27.528 19.9336 27.2315 19.9336 26.8658C19.9336 26.5001 19.6371 26.2036 19.2714 26.2036C18.9056 26.2036 18.6091 26.5001 18.6091 26.8658C18.6091 27.2315 18.9056 27.528 19.2714 27.528Z" fill="white"/>
<path d="M21.9203 27.528C22.286 27.528 22.5825 27.2315 22.5825 26.8658C22.5825 26.5001 22.286 26.2036 21.9203 26.2036C21.5545 26.2036 21.2581 26.5001 21.2581 26.8658C21.2581 27.2315 21.5545 27.528 21.9203 27.528Z" fill="white"/>
<path d="M24.5692 27.528C24.9349 27.528 25.2314 27.2315 25.2314 26.8658C25.2314 26.5001 24.9349 26.2036 24.5692 26.2036C24.2035 26.2036 23.907 26.5001 23.907 26.8658C23.907 27.2315 24.2035 27.528 24.5692 27.528Z" fill="white"/>
<path d="M13.9733 27.528C14.339 27.528 14.6355 27.2315 14.6355 26.8658C14.6355 26.5001 14.339 26.2036 13.9733 26.2036C13.6075 26.2036 13.311 26.5001 13.311 26.8658C13.311 27.2315 13.6075 27.528 13.9733 27.528Z" fill="white"/>
<path d="M16.6224 27.528C16.9882 27.528 17.2846 27.2315 17.2846 26.8658C17.2846 26.5001 16.9882 26.2036 16.6224 26.2036C16.2567 26.2036 15.9602 26.5001 15.9602 26.8658C15.9602 27.2315 16.2567 27.528 16.6224 27.528Z" fill="white"/>
<defs>
<linearGradient id="paint0_linear_314_5003" x1="7.10435" y1="31.2575" x2="40.6417" y2="10.0579" gradientUnits="userSpaceOnUse">
<stop stop-color="#6F90B4"/>
<stop offset="0.567308" stop-color="#2E5A88"/>
<stop offset="1" stop-color="#87BBF3"/>
</linearGradient>
</defs>
</svg>
