<svg width="38" height="38" viewBox="0 0 38 38" fill="none" xmlns="http://www.w3.org/2000/svg">
<rect width="38" height="37.8242" rx="8.69664" fill="url(#paint0_linear_314_5008)"/>
<g clip-path="url(#clip0_314_5008)">
<path d="M24.9767 17.0141V9.3706C24.9767 8.54926 24.3085 7.8811 23.4872 7.8811H11.3762C10.5549 7.8811 9.88672 8.54926 9.88672 9.3706V25.2541C9.88672 26.0754 10.5549 26.7436 11.3762 26.7436H20.5183V29.1442C20.5183 29.6688 21.0863 30.0015 21.5445 29.7398L23.6049 28.5624C25.8805 29.8628 25.7616 29.8302 26.0056 29.8302C26.3843 29.8302 26.6915 29.5226 26.6915 29.1442V24.4704C29.1328 22.125 28.1658 18.0479 24.9767 17.0141ZM11.3762 25.3718C11.3113 25.3718 11.2585 25.319 11.2585 25.2541V9.3706C11.2585 9.30569 11.3113 9.25292 11.3762 9.25292H23.4872C23.5521 9.25292 23.6049 9.30569 23.6049 9.3706V16.7979C21.1465 16.7979 19.1465 18.7979 19.1465 21.2563C19.1465 22.5179 19.6733 23.6586 20.5183 24.4704V25.3718H11.3762ZM25.3196 27.9623L23.9452 27.1769C23.7343 27.0564 23.4755 27.0564 23.2645 27.1769L21.8901 27.9623V25.3715C22.9838 25.829 24.2244 25.8296 25.3196 25.3715L25.3196 27.9623ZM23.6049 24.3429C21.9029 24.3429 20.5183 22.9583 20.5183 21.2563C20.5183 19.5544 21.9029 18.1697 23.6049 18.1697C25.3068 18.1697 26.6915 19.5544 26.6915 21.2563C26.6915 22.9583 25.3068 24.3429 23.6049 24.3429Z" fill="white"/>
<path d="M23.2613 23.0142C22.9934 23.0142 22.9593 22.9508 21.8527 22.213C21.5374 22.0028 21.4523 21.577 21.6624 21.2618C21.8725 20.9466 22.2984 20.8614 22.6136 21.0715L23.0718 21.377L24.0631 19.89C24.2732 19.5748 24.6992 19.4896 25.0143 19.6997C25.3295 19.9099 25.4147 20.3357 25.2046 20.6509L23.8327 22.7086C23.7005 22.9069 23.483 23.0142 23.2613 23.0142Z" fill="white"/>
<path d="M19.8325 12.6824H14.0023C13.6235 12.6824 13.3164 12.3752 13.3164 11.9965C13.3164 11.6177 13.6235 11.3105 14.0023 11.3105H19.8325C20.2114 11.3105 20.5184 11.6177 20.5184 11.9965C20.5184 12.3752 20.2113 12.6824 19.8325 12.6824Z" fill="white"/>
<path d="M19.8325 15.426H14.0023C13.6235 15.426 13.3164 15.1189 13.3164 14.7401C13.3164 14.3613 13.6235 14.0542 14.0023 14.0542H19.8325C20.2114 14.0542 20.5184 14.3613 20.5184 14.7401C20.5184 15.1189 20.2113 15.426 19.8325 15.426Z" fill="white"/>
<path d="M17.4319 18.1697H14.0023C13.6235 18.1697 13.3164 17.8626 13.3164 17.4838C13.3164 17.105 13.6235 16.7979 14.0023 16.7979H17.4319C17.8106 16.7979 18.1178 17.105 18.1178 17.4838C18.1178 17.8626 17.8106 18.1697 17.4319 18.1697Z" fill="white"/>
</g>
<defs>
<linearGradient id="paint0_linear_314_5008" x1="7.10435" y1="31.2575" x2="40.6417" y2="10.0579" gradientUnits="userSpaceOnUse">
<stop stop-color="#6F90B4"/>
<stop offset="0.567308" stop-color="#2E5A88"/>
<stop offset="1" stop-color="#87BBF3"/>
</linearGradient>
<clipPath id="clip0_314_5008">
<rect width="21.95" height="21.95" fill="white" transform="translate(8 7.8811)"/>
</clipPath>
</defs>
</svg>
