<svg width="38" height="38" viewBox="0 0 38 38" fill="none" xmlns="http://www.w3.org/2000/svg">
<rect width="38" height="37.8242" rx="8.69664" fill="url(#paint0_linear_314_4998)"/>
<g clip-path="url(#clip0_314_4998)">
<path d="M13.5488 21.9843C12.9801 21.0285 12.6794 19.9353 12.6794 18.8229C12.6794 18.2698 12.7527 17.7213 12.8973 17.1924C12.9909 16.8502 12.7825 16.4988 12.432 16.4074C12.0815 16.316 11.7214 16.5193 11.6278 16.8617C11.4537 17.4983 11.3655 18.1582 11.3655 18.8229C11.3655 20.1614 11.7276 21.4773 12.4126 22.6285C12.5345 22.8334 12.7548 22.9478 12.9812 22.9478C13.0932 22.9478 13.2068 22.9198 13.3106 22.8609C13.6244 22.6831 13.731 22.2906 13.5488 21.9843Z" fill="white"/>
<path d="M25.998 10.4722C24.0619 8.95463 21.6256 8.1189 19.1377 8.1189C16.2088 8.1189 13.4553 9.2323 11.3843 11.2541C9.31317 13.2757 8.17261 15.9638 8.17261 18.8229C8.17261 20.8259 8.74306 22.7794 9.82236 24.472C9.94683 24.6672 10.1613 24.7745 10.3808 24.7745C10.4993 24.7745 10.6193 24.7432 10.7273 24.6775C11.0353 24.4904 11.1296 24.0948 10.9379 23.7942C9.98843 22.3052 9.48658 20.5862 9.48658 18.8229C9.48658 13.628 13.8161 9.40159 19.1377 9.40159C21.3592 9.40159 23.4469 10.1176 25.1753 11.4723C25.4583 11.6941 25.8717 11.6499 26.0989 11.3738C26.3261 11.0976 26.2809 10.6939 25.998 10.4722Z" fill="white"/>
<path d="M21.7485 22.3572C22.8712 21.5646 23.6033 20.2757 23.6033 18.8227C23.6033 16.4189 21.6 14.4634 19.1377 14.4634C16.6753 14.4634 14.6721 16.419 14.6721 18.8227C14.6721 20.2756 15.4041 21.5646 16.5269 22.3572C13.6739 23.3944 11.6362 26.0802 11.6362 29.2222C11.6362 29.5764 11.9304 29.8636 12.2932 29.8636H25.9821C26.345 29.8636 26.6391 29.5764 26.6391 29.2222C26.6391 26.0802 24.6014 23.3944 21.7485 22.3572ZM15.986 18.8227C15.986 17.1262 17.3998 15.7461 19.1376 15.7461C20.8754 15.7461 22.2893 17.1262 22.2893 18.8227C22.2893 20.5192 20.8755 21.8994 19.1376 21.8994C17.3998 21.8994 15.986 20.5192 15.986 18.8227ZM12.9848 28.5809C13.3141 25.5508 15.9478 23.182 19.1377 23.182C22.3276 23.182 24.9613 25.5508 25.2906 28.5809H12.9848Z" fill="white"/>
<path d="M19.1379 11.2361C16.7794 11.2361 14.5755 12.264 13.0912 14.0562C12.8631 14.3316 12.9069 14.7355 13.189 14.9581C13.4711 15.1808 13.8848 15.1381 14.113 14.8626C15.3466 13.3731 17.1781 12.5188 19.1379 12.5188C22.6988 12.5188 25.5958 15.3468 25.5958 18.823C25.5958 19.9354 25.2953 21.0286 24.7265 21.9844C24.5442 22.2907 24.6508 22.6832 24.9646 22.8611C25.0685 22.9199 25.1819 22.948 25.294 22.948C25.5205 22.948 25.7408 22.8336 25.8627 22.6287C26.5478 21.4775 26.9098 20.1615 26.9098 18.8231C26.9098 14.6395 23.4234 11.2361 19.1379 11.2361Z" fill="white"/>
<path d="M27.8932 12.3782C27.6746 12.0955 27.2627 12.0394 26.973 12.2528C26.6835 12.4663 26.626 12.8684 26.8446 13.1511C28.1164 14.7953 28.7886 16.7565 28.7886 18.8227C28.7886 20.5859 28.2868 22.3049 27.3373 23.794C27.1456 24.0947 27.2398 24.4902 27.5479 24.6774C27.656 24.743 27.7759 24.7743 27.8944 24.7743C28.1139 24.7743 28.3284 24.667 28.4528 24.4718C29.5321 22.7792 30.1026 20.8258 30.1026 18.8227C30.1026 16.4753 29.3387 14.2468 27.8932 12.3782Z" fill="white"/>
</g>
<defs>
<linearGradient id="paint0_linear_314_4998" x1="7.10435" y1="31.2575" x2="40.6417" y2="10.0579" gradientUnits="userSpaceOnUse">
<stop stop-color="#6F90B4"/>
<stop offset="0.567308" stop-color="#2E5A88"/>
<stop offset="1" stop-color="#87BBF3"/>
</linearGradient>
<clipPath id="clip0_314_4998">
<rect width="22.01" height="22.01" fill="white" transform="translate(8 8.1189)"/>
</clipPath>
</defs>
</svg>
