<svg width="38" height="38" viewBox="0 0 38 38" fill="none" xmlns="http://www.w3.org/2000/svg">
<rect width="38" height="37.8242" rx="8.69664" fill="url(#paint0_linear_314_4993)"/>
<path d="M19.5203 18.4703H19.0403V17.9903C19.0403 17.7252 18.8254 17.5103 18.5603 17.5103C18.2952 17.5103 18.0803 17.7252 18.0803 17.9903V18.4703H17.6003C17.3352 18.4703 17.1202 18.6852 17.1202 18.9503C17.1202 19.2156 17.3352 19.4303 17.6003 19.4303H19.5203C19.7854 19.4303 20.0003 19.2156 20.0003 18.9503C20.0003 18.6852 19.7854 18.4703 19.5203 18.4703Z" fill="white"/>
<path d="M23.3604 17.9899C23.6255 17.9899 23.8404 17.775 23.8404 17.5099C23.8404 17.2448 23.6255 17.0299 23.3604 17.0299H21.9203C21.9203 16.4049 21.5179 15.8771 20.9603 15.6783V14.1498C20.9603 12.8265 19.8836 11.7498 18.5603 11.7498C17.237 11.7498 16.1602 12.8265 16.1602 14.1498V15.6783C15.6027 15.8771 15.2002 16.4049 15.2002 17.0299H13.7602C13.4951 17.0299 13.2802 17.2448 13.2802 17.5099C13.2802 17.775 13.4951 17.9899 13.7602 17.9899H15.2002V18.9499H13.7602C13.4951 18.9499 13.2802 19.1646 13.2802 19.4299C13.2802 19.6952 13.4951 19.9099 13.7602 19.9099H15.2002C15.2002 20.5349 15.6027 21.0627 16.1602 21.2615V23.75C16.1602 24.0153 16.3751 24.23 16.6402 24.23C16.9053 24.23 17.1202 24.0153 17.1202 23.75V21.35H18.0803V25.6701C18.0803 25.9354 18.2952 26.1501 18.5603 26.1501C18.8254 26.1501 19.0403 25.9354 19.0403 25.6701V21.35H20.0003V23.75C20.0003 24.0153 20.2152 24.23 20.4803 24.23C20.7454 24.23 20.9603 24.0153 20.9603 23.75V21.2615C21.5179 21.0627 21.9203 20.5349 21.9203 19.9099H23.3604C23.6255 19.9099 23.8404 19.6952 23.8404 19.4299C23.8404 19.1646 23.6255 18.9499 23.3604 18.9499H21.9203V17.9899H23.3604ZM18.5603 12.7098C19.3544 12.7098 20.0003 13.3557 20.0003 14.1498V15.5898H17.1202V14.1498C17.1202 13.3557 17.7662 12.7098 18.5603 12.7098ZM20.9603 19.9099C20.9603 20.1748 20.7449 20.39 20.4803 20.39H16.6402C16.3756 20.39 16.1602 20.1748 16.1602 19.9099V17.0299C16.1602 16.7653 16.3756 16.5499 16.6402 16.5499H20.4803C20.7449 16.5499 20.9603 16.7653 20.9603 17.0299V19.9099Z" fill="white"/>
<path d="M28.6405 9.34997C23.1032 9.34997 18.8685 6.57843 18.8263 6.5503C18.657 6.4385 18.4353 6.4446 18.2727 6.56554C18.2354 6.59343 14.471 9.34997 8.48001 9.34997C8.21492 9.34997 8 9.5649 8 9.82999V14.6301C8 14.8952 8.21492 15.1101 8.48001 15.1101C8.7451 15.1101 8.96002 14.8952 8.96002 14.6301V10.3046C14.1501 10.1855 17.6021 8.16729 18.5736 7.52485C19.6032 8.1462 23.3212 10.1755 28.1605 10.3037V18.3678C28.1605 23.9127 24.0384 28.6887 18.5602 29.5053C13.0821 28.6887 8.96002 23.9127 8.96002 18.3678V16.5501C8.96002 16.2851 8.7451 16.0701 8.48001 16.0701C8.21492 16.0701 8 16.2851 8 16.5501V18.3678C8 24.4103 12.5106 29.6112 18.4923 30.4655C18.5148 30.4688 18.5375 30.4705 18.5602 30.4705C18.583 30.4705 18.6057 30.4688 18.6282 30.4655C24.6098 29.6112 29.1205 24.4103 29.1205 18.3678V9.82999C29.1205 9.5649 28.9056 9.34997 28.6405 9.34997Z" fill="white"/>
<defs>
<linearGradient id="paint0_linear_314_4993" x1="7.10435" y1="31.2575" x2="40.6417" y2="10.0579" gradientUnits="userSpaceOnUse">
<stop stop-color="#6F90B4"/>
<stop offset="0.567308" stop-color="#2E5A88"/>
<stop offset="1" stop-color="#87BBF3"/>
</linearGradient>
</defs>
</svg>
