<svg width="1440" height="875" viewBox="0 0 1440 875" fill="none" xmlns="http://www.w3.org/2000/svg">
<g clip-path="url(#clip0_1_385)">
<rect width="1534" height="864" transform="matrix(-1 0 0 1 1451 0)" fill="url(#paint0_linear_1_385)"/>
<g filter="url(#filter0_f_1_385)">
<path d="M1341 -155.5C1341 -96.6021 1324.02 -38.281 1291.03 16.1335C1258.03 70.548 1209.68 119.99 1148.72 161.637C1087.75 203.284 1015.38 236.321 935.732 258.86C856.081 281.399 770.713 293 684.5 293C598.287 293 512.919 281.399 433.268 258.86C353.618 236.321 281.246 203.284 220.284 161.637C159.323 119.99 110.965 70.548 77.9731 16.1335C44.9809 -38.281 28 -96.6022 28 -155.5L684.5 -155.5H1341Z" fill="url(#paint1_linear_1_385)"/>
</g>
<g filter="url(#filter1_f_1_385)">
<rect x="1560.62" y="-203.124" width="224.898" height="606.171" transform="rotate(25.3173 1560.62 -203.124)" fill="url(#paint2_linear_1_385)"/>
</g>
<g filter="url(#filter2_f_1_385)">
<rect x="1473.97" y="-365" width="120.287" height="834.286" transform="rotate(25.3173 1473.97 -365)" fill="url(#paint3_linear_1_385)"/>
</g>
<g filter="url(#filter3_f_1_385)">
<rect x="1366.37" y="-172.623" width="23.7166" height="606.171" transform="rotate(25.3173 1366.37 -172.623)" fill="url(#paint4_linear_1_385)"/>
</g>
<g filter="url(#filter4_f_1_385)">
<rect x="1238.31" y="-137.815" width="61.2056" height="606.171" transform="rotate(25.3173 1238.31 -137.815)" fill="url(#paint5_linear_1_385)"/>
</g>
<g filter="url(#filter5_f_1_385)">
<rect x="1046.22" y="-173.627" width="61.2056" height="606.171" transform="rotate(25.3173 1046.22 -173.627)" fill="url(#paint6_linear_1_385)"/>
</g>
<g filter="url(#filter6_f_1_385)">
<rect x="1140.47" y="-147.727" width="61.2056" height="606.171" transform="rotate(25.3173 1140.47 -147.727)" fill="url(#paint7_linear_1_385)"/>
</g>
</g>
<defs>
<filter id="filter0_f_1_385" x="-396.6" y="-580.1" width="2162.2" height="1297.7" filterUnits="userSpaceOnUse" color-interpolation-filters="sRGB">
<feFlood flood-opacity="0" result="BackgroundImageFix"/>
<feBlend mode="normal" in="SourceGraphic" in2="BackgroundImageFix" result="shape"/>
<feGaussianBlur stdDeviation="212.3" result="effect1_foregroundBlur_1_385"/>
</filter>
<filter id="filter1_f_1_385" x="1215.07" y="-289.458" width="635.182" height="816.792" filterUnits="userSpaceOnUse" color-interpolation-filters="sRGB">
<feFlood flood-opacity="0" result="BackgroundImageFix"/>
<feBlend mode="normal" in="SourceGraphic" in2="BackgroundImageFix" result="shape"/>
<feGaussianBlur stdDeviation="43.1669" result="effect1_foregroundBlur_1_385"/>
</filter>
<filter id="filter2_f_1_385" x="1045.25" y="-436.945" width="609.39" height="949.484" filterUnits="userSpaceOnUse" color-interpolation-filters="sRGB">
<feFlood flood-opacity="0" result="BackgroundImageFix"/>
<feBlend mode="normal" in="SourceGraphic" in2="BackgroundImageFix" result="shape"/>
<feGaussianBlur stdDeviation="35.9724" result="effect1_foregroundBlur_1_385"/>
</filter>
<filter id="filter3_f_1_385" x="1092.77" y="-187.012" width="309.434" height="586.871" filterUnits="userSpaceOnUse" color-interpolation-filters="sRGB">
<feFlood flood-opacity="0" result="BackgroundImageFix"/>
<feBlend mode="normal" in="SourceGraphic" in2="BackgroundImageFix" result="shape"/>
<feGaussianBlur stdDeviation="7.19448" result="effect1_foregroundBlur_1_385"/>
</filter>
<filter id="filter4_f_1_385" x="921.537" y="-195.37" width="429.656" height="689.236" filterUnits="userSpaceOnUse" color-interpolation-filters="sRGB">
<feFlood flood-opacity="0" result="BackgroundImageFix"/>
<feBlend mode="normal" in="SourceGraphic" in2="BackgroundImageFix" result="shape"/>
<feGaussianBlur stdDeviation="28.7779" result="effect1_foregroundBlur_1_385"/>
</filter>
<filter id="filter5_f_1_385" x="729.444" y="-231.183" width="429.656" height="689.236" filterUnits="userSpaceOnUse" color-interpolation-filters="sRGB">
<feFlood flood-opacity="0" result="BackgroundImageFix"/>
<feBlend mode="normal" in="SourceGraphic" in2="BackgroundImageFix" result="shape"/>
<feGaussianBlur stdDeviation="28.7779" result="effect1_foregroundBlur_1_385"/>
</filter>
<filter id="filter6_f_1_385" x="823.692" y="-205.282" width="429.656" height="689.236" filterUnits="userSpaceOnUse" color-interpolation-filters="sRGB">
<feFlood flood-opacity="0" result="BackgroundImageFix"/>
<feBlend mode="normal" in="SourceGraphic" in2="BackgroundImageFix" result="shape"/>
<feGaussianBlur stdDeviation="28.7779" result="effect1_foregroundBlur_1_385"/>
</filter>
<linearGradient id="paint0_linear_1_385" x1="987" y1="90.7704" x2="166.989" y2="911.902" gradientUnits="userSpaceOnUse">
<stop stop-color="#000F2E"/>
</linearGradient>
<linearGradient id="paint1_linear_1_385" x1="684.5" y1="332" x2="699.855" y2="-304.532" gradientUnits="userSpaceOnUse">
<stop stop-color="#6083A9"/>
<stop offset="1" stop-color="#2E5A88"/>
</linearGradient>
<linearGradient id="paint2_linear_1_385" x1="1580.58" y1="-203.124" x2="1509.62" y2="371.435" gradientUnits="userSpaceOnUse">
<stop stop-color="#00D4FF" stop-opacity="0.14"/>
<stop offset="1" stop-color="#00D4FF" stop-opacity="0"/>
</linearGradient>
<linearGradient id="paint3_linear_1_385" x1="1534.11" y1="-365" x2="1534.11" y2="469.286" gradientUnits="userSpaceOnUse">
<stop stop-color="#6F90B4" stop-opacity="0.26"/>
<stop offset="1" stop-color="#6F90B4" stop-opacity="0"/>
</linearGradient>
<linearGradient id="paint4_linear_1_385" x1="1378.23" y1="-172.623" x2="1378.23" y2="433.548" gradientUnits="userSpaceOnUse">
<stop stop-color="#6F90B4" stop-opacity="0.12"/>
<stop offset="1" stop-color="#6F90B4" stop-opacity="0"/>
</linearGradient>
<linearGradient id="paint5_linear_1_385" x1="1268.91" y1="-137.815" x2="1268.91" y2="468.357" gradientUnits="userSpaceOnUse">
<stop stop-color="#6F90B4"/>
<stop offset="1" stop-color="#6F90B4" stop-opacity="0"/>
</linearGradient>
<linearGradient id="paint6_linear_1_385" x1="1076.82" y1="-173.627" x2="1076.82" y2="432.545" gradientUnits="userSpaceOnUse">
<stop stop-color="#6F90B4"/>
<stop offset="1" stop-color="#6F90B4" stop-opacity="0"/>
</linearGradient>
<linearGradient id="paint7_linear_1_385" x1="1171.07" y1="-147.727" x2="1171.07" y2="458.445" gradientUnits="userSpaceOnUse">
<stop stop-color="#6F90B4" stop-opacity="0.18"/>
<stop offset="0.75" stop-color="#6F90B4" stop-opacity="0"/>
</linearGradient>
<clipPath id="clip0_1_385">
<rect width="1534" height="875" fill="white" transform="translate(-83)"/>
</clipPath>
</defs>
</svg>
