<svg width="44" height="41" viewBox="0 0 44 41" fill="none" xmlns="http://www.w3.org/2000/svg">
<path d="M31.1923 23.1072C30.5583 24.3831 29.7759 25.6951 28.825 26.9871L34.9438 37.636L36.5528 34.8353L36.5086 34.7591C34.2537 30.823 37.0945 25.9239 41.6284 25.9239H41.6846L43.3096 23.1072H31.1882H31.1923Z" fill="white"/>
<path d="M20.3547 32.7329C19.7207 32.2875 19.1269 31.8221 18.5651 31.3446L13.3049 40.4968H16.5389C18.8099 36.5527 24.4994 36.5527 26.7704 40.4968H30.0164L24.7522 31.3446C24.1905 31.8181 23.5967 32.2835 22.9667 32.7289C22.1843 33.2826 21.1451 33.2826 20.3587 32.7289L20.3547 32.7329Z" fill="white"/>
<path d="M0.00401628 23.1072L1.62099 25.9238H1.65711C6.19911 25.9238 9.03986 30.839 6.77288 34.7711L6.74479 34.8152L8.36176 37.6319L14.4886 26.9791C13.5377 25.6831 12.7593 24.3751 12.1213 23.0991H0L0.00401628 23.1072Z" fill="white"/>
<path d="M10.4202 12.2256C11.2227 11.704 12.1135 11.2947 13.0283 10.9697L8.36189 2.86877L6.74492 5.67743L6.77301 5.72559C9.03598 9.66172 6.19523 14.5688 1.65724 14.5688H1.62112L0.00415039 17.3775H10.003C9.69401 16.1618 9.51746 15.1306 9.41715 14.3883C9.30079 13.5337 9.694 12.691 10.4202 12.2216V12.2256Z" fill="white"/>
<path d="M21.5706 9.77011C21.6307 9.77011 21.6869 9.77011 21.7431 9.77011C22.032 9.75808 23.023 9.73802 24.3591 9.82629L30.0126 0H26.7786V0.00803257C24.5036 3.95219 18.81 3.94818 16.543 0.00803257L13.3091 0.00401628L18.9585 9.83431C20.2946 9.74203 21.2897 9.7661 21.5786 9.77813L21.5706 9.77011Z" fill="white"/>
<path d="M33.9004 14.3923C33.8001 15.1386 33.6236 16.1658 33.3146 17.3815H43.3054L41.6884 14.5729H41.6523C37.1103 14.5729 34.2696 9.65772 36.5366 5.7256L36.5647 5.68146L34.9477 2.8728L30.2893 10.9738C31.2081 11.2988 32.0989 11.708 32.9014 12.2296C33.6236 12.6991 34.0168 13.5417 33.9045 14.3963L33.9004 14.3923Z" fill="white"/>
</svg>
