<svg width="153" height="34" viewBox="0 0 153 34" fill="none" xmlns="http://www.w3.org/2000/svg">
<path d="M26.0787 19.3191C25.5487 20.3859 24.8945 21.4829 24.0995 22.563L29.2153 31.4662L30.5605 29.1246L30.5236 29.0609C28.6383 25.7701 31.0133 21.6741 34.804 21.6741H34.851L36.2096 19.3191H26.0754H26.0787Z" fill="#2E5A88"/>
<path d="M17.0178 27.3668C16.4878 26.9945 15.9913 26.6054 15.5217 26.2062L11.1238 33.858H13.8276C15.7263 30.5604 20.4831 30.5604 22.3818 33.858H25.0957L20.6945 26.2062C20.2248 26.602 19.7283 26.9911 19.2017 27.3635C18.5475 27.8264 17.6787 27.8264 17.0212 27.3635L17.0178 27.3668Z" fill="#2E5A88"/>
<path d="M0.00335788 19.3191L1.35525 21.6741H1.38545C5.18286 21.6741 7.55792 25.7835 5.66257 29.071L5.63908 29.1079L6.99098 31.4628L12.1135 22.5563C11.3184 21.4728 10.6676 20.3792 10.1342 19.3124H0L0.00335788 19.3191Z" fill="#2E5A88"/>
<path d="M8.71195 10.2215C9.38287 9.78537 10.1276 9.44319 10.8924 9.17147L6.99104 2.39853L5.63914 4.74675L5.66263 4.78702C7.55462 8.07788 5.17957 12.1806 1.38551 12.1806H1.35531L0.00341797 14.5288H8.36308C8.10477 13.5123 7.95716 12.6502 7.8733 12.0296C7.77601 11.3151 8.10477 10.6106 8.71195 10.2181V10.2215Z" fill="#2E5A88"/>
<path d="M18.0343 8.16846C18.0846 8.16846 18.1316 8.16846 18.1786 8.16846C18.4201 8.15839 19.2487 8.14162 20.3658 8.21542L25.0924 0H22.3886V0.00671575C20.4865 3.30429 15.7264 3.30093 13.831 0.00671575L11.1272 0.00335788L15.8505 8.22213C16.9676 8.14497 17.7995 8.1651 18.041 8.17516L18.0343 8.16846Z" fill="#2E5A88"/>
<path d="M28.343 12.033C28.2591 12.6569 28.1115 13.5157 27.8532 14.5321H36.2062L34.8543 12.1839H34.8241C31.0267 12.1839 28.6516 8.07454 30.547 4.78703L30.5705 4.75012L29.2185 2.4019L25.3239 9.17484C26.0921 9.44656 26.8368 9.78873 27.5077 10.2248C28.1115 10.6173 28.4403 11.3218 28.3464 12.0363L28.343 12.033Z" fill="#2E5A88"/>
<path d="M57.7494 16.7227C56.8302 17.3869 55.6998 17.719 54.3546 17.719C53.4354 17.719 52.6269 17.5613 51.9292 17.2527C51.2314 16.9407 50.6444 16.5013 50.168 15.9344C49.6917 15.3674 49.3361 14.7066 49.0979 13.9518C48.8597 13.197 48.7423 12.3751 48.7423 11.4895C48.7423 10.6039 48.8597 9.75855 49.0979 9.00377C49.3361 8.24898 49.685 7.59148 50.1445 7.03462C50.6041 6.47776 51.1778 6.04165 51.8688 5.72967C52.5565 5.4177 53.3381 5.26338 54.207 5.26338C55.0758 5.26338 55.8608 5.41099 56.5585 5.70619C57.2563 6.00139 57.8299 6.42743 58.2828 6.98765C58.7323 7.54451 59.0174 8.23555 59.1315 9.05408H62.6773C62.5297 7.64179 62.0936 6.41067 61.3724 5.36068C60.6512 4.31069 59.6817 3.4888 58.4673 2.89839C57.2529 2.30798 55.8339 2.01277 54.2103 2.01277C52.5867 2.01277 51.3019 2.28114 50.1613 2.81117C49.0207 3.34455 48.0848 4.05238 47.3569 4.94135C46.6256 5.82697 46.0855 6.81321 45.7332 7.8934C45.381 8.97693 45.2032 10.0772 45.2032 11.191V11.7311C45.2032 12.7475 45.3743 13.7941 45.7198 14.8676C46.0653 15.9444 46.6021 16.9441 47.3334 17.87C48.0647 18.7958 49.0073 19.5439 50.1647 20.1108C51.322 20.6778 52.7209 20.9596 54.3613 20.9596C56.0017 20.9596 57.5381 20.6409 58.7659 20.0001C59.997 19.3594 60.9631 18.5073 61.6709 17.4406C62.3754 16.3738 62.8115 15.1997 62.9759 13.9216H59.4301C59.2321 15.1192 58.6753 16.0518 57.7561 16.716L57.7494 16.7227Z" fill="#212121"/>
<path d="M70.829 17.4976H70.3124L67.0551 7.13526H63.6099L67.9407 20.2048H70.1279L69.9367 20.9428C69.8226 21.4191 69.6583 21.7915 69.4436 22.0632C69.2289 22.335 68.9639 22.5295 68.6452 22.6536C68.3265 22.7778 67.9273 22.8381 67.4509 22.8381H64.9417V25.7667H67.1323C68.2326 25.7667 69.1551 25.6359 69.8998 25.3742C70.6479 25.1126 71.2584 24.6798 71.7348 24.0827C72.2111 23.4822 72.5801 22.6838 72.8418 21.6842L76.8036 7.13862H73.5295L70.8324 17.501L70.829 17.4976Z" fill="#212121"/>
<path d="M91.027 18.9367C91.5838 18.3061 92.0099 17.5714 92.3084 16.7328C92.6036 15.8975 92.7512 14.9951 92.7512 14.0256V13.509C92.7512 12.5429 92.607 11.6472 92.3218 10.8253C92.0333 10.0068 91.6207 9.28556 91.0773 8.67167C90.5339 8.05777 89.8864 7.57805 89.1316 7.23253C88.3768 6.88701 87.5415 6.71593 86.6224 6.71593C85.5892 6.71593 84.6599 6.9474 83.8414 7.40698C83.0665 7.84307 82.4459 8.48715 81.9695 9.33251V2.53274H78.5479V20.5H81.255V17.5949C81.3355 17.8029 81.4227 18.0075 81.5267 18.1987C82.0031 19.0944 82.6606 19.7754 83.4959 20.2417C84.3312 20.708 85.3007 20.9428 86.401 20.9428C87.3705 20.9428 88.2427 20.765 89.0209 20.4128C89.7992 20.0605 90.4701 19.5674 91.027 18.9367ZM88.8465 15.9947C88.5412 16.6355 88.1118 17.1387 87.555 17.5077C86.9981 17.8767 86.3574 18.0612 85.6361 18.0612C84.9954 18.0612 84.3882 17.9136 83.8146 17.6184C83.2409 17.3232 82.7713 16.9039 82.4124 16.3638C82.0501 15.8237 81.8723 15.1662 81.8723 14.3946V13.4084C81.8723 12.6033 82.0501 11.9189 82.4023 11.352C82.7545 10.7851 83.2141 10.3523 83.781 10.047C84.348 9.74178 84.9652 9.59082 85.6395 9.59082C86.3607 9.59082 86.9981 9.7619 87.5483 10.1074C88.0984 10.4529 88.5278 10.9394 88.8398 11.5734C89.1518 12.204 89.3061 12.9387 89.3061 13.7774C89.3061 14.616 89.1551 15.3507 88.8498 15.9914L88.8465 15.9947Z" fill="#212121"/>
<path d="M104.6 7.61498C103.624 6.98431 102.413 6.66898 100.97 6.66898C99.8697 6.66898 98.8969 6.86354 98.0549 7.24932C97.2096 7.6351 96.5084 8.15173 95.9516 8.79916C95.3947 9.4466 94.972 10.1846 94.6835 11.0132C94.3951 11.8418 94.2542 12.7005 94.2542 13.5862V14.0525C94.2542 14.9045 94.3984 15.7432 94.6835 16.5651C94.9687 17.3869 95.3981 18.1283 95.965 18.7925C96.5319 19.4567 97.2465 19.9867 98.1052 20.3792C98.964 20.7717 99.9704 20.9696 101.121 20.9696C102.272 20.9696 103.201 20.7818 104.063 20.4027C104.925 20.027 105.633 19.4936 106.193 18.8026C106.75 18.1115 107.129 17.3098 107.327 16.3906H104.154C104.006 16.8837 103.671 17.2964 103.144 17.6318C102.617 17.9673 101.946 18.135 101.124 18.135C100.303 18.135 99.598 17.9505 99.0579 17.5815C98.5179 17.2125 98.1153 16.7026 97.8503 16.0551C97.6792 15.6325 97.5685 15.1662 97.5115 14.6664H107.548V13.4117C107.548 12.2309 107.304 11.1272 106.81 10.1007C106.317 9.07422 105.583 8.24564 104.606 7.61498H104.6ZM99.0512 10.0269C99.5745 9.6747 100.215 9.49691 100.97 9.49691C101.725 9.49691 102.349 9.66129 102.842 9.99004C103.335 10.3188 103.707 10.7851 103.962 11.3923C104.107 11.7378 104.204 12.1269 104.268 12.5496H97.5584C97.6255 12.1739 97.7262 11.8284 97.857 11.5164C98.1287 10.8757 98.5246 10.3792 99.0512 10.0269Z" fill="#212121"/>
<path d="M117.757 9.93971V6.96082H117.263C115.67 6.96082 114.466 7.4573 113.644 8.45026C113.023 9.20169 112.637 10.2148 112.486 11.4862V7.13191H109.779V20.4966H113.201V13.556C113.201 12.3919 113.516 11.4963 114.147 10.8723C114.778 10.2483 115.67 9.93635 116.817 9.93635H117.753L117.757 9.93971Z" fill="#212121"/>
<path d="M123.54 20.5H124.892H125.878H127.156H128.018L131.638 7.13526H128.337L125.616 17.6955H125.036L121.866 7.13526H118.347L122.53 20.5H123.54Z" fill="#212121"/>
<path d="M142.835 20.4027C143.738 20.027 144.499 19.5171 145.123 18.8764C145.747 18.2356 146.22 17.5077 146.539 16.6858C146.858 15.8639 147.019 15.0052 147.019 14.1028V13.5862C147.019 12.667 146.854 11.7948 146.526 10.9662C146.197 10.1376 145.717 9.39962 145.086 8.75218C144.456 8.10474 143.688 7.59485 142.785 7.22584C141.883 6.85684 140.866 6.67233 139.732 6.67233C138.599 6.67233 137.579 6.85684 136.67 7.22584C135.757 7.59485 134.989 8.10474 134.355 8.75218C133.724 9.39962 133.245 10.141 132.916 10.9662C132.587 11.7948 132.423 12.6703 132.423 13.5862V14.1028C132.423 15.0052 132.584 15.8673 132.903 16.6858C133.221 17.5043 133.694 18.2356 134.318 18.8764C134.942 19.5171 135.704 20.0236 136.606 20.4027C137.508 20.7784 138.552 20.9696 139.732 20.9696C140.913 20.9696 141.93 20.7818 142.832 20.4027H142.835ZM136.301 15.9847C135.995 15.354 135.845 14.6362 135.845 13.8311C135.845 13.0259 135.999 12.3047 136.311 11.664C136.623 11.0232 137.069 10.5201 137.653 10.151C138.236 9.78204 138.927 9.59753 139.732 9.59753C140.538 9.59753 141.225 9.78204 141.799 10.151C142.373 10.5201 142.815 11.0232 143.127 11.664C143.439 12.3047 143.594 13.0259 143.594 13.8311C143.594 14.6362 143.443 15.354 143.137 15.9847C142.832 16.6154 142.396 17.1185 141.819 17.4876C141.245 17.8566 140.548 18.0411 139.726 18.0411C138.904 18.0411 138.183 17.8566 137.609 17.4876C137.035 17.1185 136.596 16.6187 136.291 15.9847H136.301Z" fill="#212121"/>
<path d="M149.578 2.53274H147.904V5.09229H149.578V20.5H153V5.09229V2.53274H149.578Z" fill="#212121"/>
<path d="M82.9525 26.2464C82.7815 26.0518 82.5735 25.8975 82.3319 25.7868C82.0904 25.6761 81.8254 25.6225 81.5302 25.6225C81.2014 25.6225 80.9062 25.6963 80.6446 25.8439C80.3963 25.9814 80.1984 26.1927 80.0475 26.4645V24.2907H78.9572V30.0203H79.8193V29.0542C79.8495 29.1314 79.8697 29.2152 79.9066 29.2857C80.0575 29.5708 80.2689 29.7889 80.5339 29.9365C80.8022 30.0841 81.1109 30.1612 81.4598 30.1612C81.7684 30.1612 82.0468 30.1042 82.295 29.9935C82.5433 29.8828 82.758 29.7251 82.9358 29.5239C83.1136 29.3226 83.2511 29.0878 83.345 28.8228C83.439 28.5544 83.4859 28.2693 83.4859 27.9606V27.7962C83.4859 27.4876 83.4389 27.2025 83.3484 26.9408C83.2578 26.6792 83.1236 26.451 82.9525 26.2531V26.2464ZM82.2414 28.5846C82.1441 28.7892 82.0065 28.9502 81.8288 29.0676C81.651 29.1851 81.4463 29.2454 81.2149 29.2454C81.0102 29.2454 80.8157 29.1985 80.6345 29.1045C80.45 29.0106 80.3024 28.8764 80.1883 28.702C80.0743 28.5309 80.0173 28.3196 80.0173 28.0747V27.7627C80.0173 27.5077 80.0743 27.2863 80.185 27.1085C80.299 26.9274 80.4433 26.7899 80.6244 26.6926C80.8056 26.5953 81.0035 26.5483 81.2182 26.5483C81.4497 26.5483 81.651 26.602 81.8254 26.7127C81.9998 26.8234 82.1374 26.9777 82.238 27.179C82.3386 27.3803 82.3856 27.6151 82.3856 27.8801C82.3856 28.1451 82.3353 28.3833 82.2414 28.5879V28.5846Z" fill="#212121"/>
<path d="M85.9079 29.0609H85.7436L84.7037 25.7567H83.6033L84.9854 29.9264H85.6832L85.6228 30.1612C85.5859 30.3122 85.5322 30.433 85.4651 30.5168C85.398 30.6041 85.3108 30.6644 85.2102 30.7047C85.1096 30.7449 84.9821 30.7651 84.8278 30.7651H84.026V31.6976H84.7238C85.0727 31.6976 85.3679 31.6574 85.606 31.5735C85.8442 31.4897 86.0388 31.3521 86.1897 31.1609C86.3407 30.9697 86.4581 30.7147 86.542 30.3961L87.8067 25.7567H86.7634L85.9046 29.0609H85.9079Z" fill="#212121"/>
<path d="M93.2746 27.9036C93.6101 27.7694 93.8684 27.5648 94.0562 27.2897C94.2441 27.0146 94.3347 26.6691 94.3347 26.2498V26.1223C94.3347 25.6996 94.2441 25.3507 94.0596 25.0757C93.8751 24.8006 93.6168 24.5926 93.278 24.4551C92.9392 24.3175 92.54 24.2471 92.0804 24.2471H89.9536V30.017H91.0673V28.1015H92.0804C92.0804 28.1015 92.0904 28.1015 92.0971 28.1015L93.4457 30.017H94.7573L93.2243 27.9137C93.2243 27.9137 93.2578 27.907 93.2713 27.9003L93.2746 27.9036ZM91.0706 25.1998H92.2011C92.4058 25.1998 92.5802 25.2434 92.7312 25.3306C92.8788 25.4178 92.9962 25.5352 93.0767 25.6828C93.1572 25.8304 93.1975 26.0049 93.1975 26.2062C93.1975 26.4074 93.1572 26.5785 93.0767 26.7295C92.9962 26.8804 92.8788 26.9945 92.7312 27.0784C92.5836 27.1622 92.4058 27.2058 92.2011 27.2058H91.0706V25.2031V25.1998Z" fill="#212121"/>
<path d="M99.0043 26.2699C98.803 26.0619 98.5582 25.9009 98.2697 25.7835C97.9812 25.6661 97.6558 25.6057 97.2968 25.6057C96.9379 25.6057 96.6092 25.6661 96.3207 25.7835C96.0288 25.9009 95.7839 26.0619 95.5826 26.2699C95.3814 26.4779 95.2271 26.7127 95.1231 26.9777C95.0191 27.2427 94.9654 27.5212 94.9654 27.813V27.9774C94.9654 28.2659 95.0157 28.5409 95.1197 28.8026C95.2204 29.0643 95.3713 29.2991 95.5726 29.5004C95.7705 29.705 96.0154 29.866 96.3039 29.9868C96.5924 30.1076 96.9245 30.1679 97.3002 30.1679C97.6759 30.1679 98.0013 30.1076 98.2898 29.9868C98.5783 29.866 98.8198 29.705 99.0211 29.5004C99.219 29.2957 99.37 29.0643 99.474 28.8026C99.5746 28.5409 99.6283 28.2659 99.6283 27.9774V27.813C99.6283 27.5212 99.5746 27.2394 99.4706 26.9777C99.3666 26.7127 99.2123 26.4779 99.011 26.2699H99.0043ZM98.3837 28.5779C98.2864 28.7791 98.1456 28.9401 97.9644 29.0576C97.7799 29.175 97.5585 29.2354 97.2968 29.2354C97.0352 29.2354 96.8037 29.175 96.6226 29.0576C96.4381 28.9401 96.3005 28.7791 96.2032 28.5779C96.106 28.3766 96.059 28.1485 96.059 27.8902C96.059 27.6319 96.1093 27.4037 96.2066 27.1991C96.3072 26.9945 96.4481 26.8335 96.636 26.7161C96.8205 26.5986 97.0419 26.5383 97.3002 26.5383C97.5585 26.5383 97.7765 26.5953 97.961 26.7161C98.1456 26.8335 98.2864 26.9945 98.3837 27.1991C98.4844 27.4037 98.5314 27.6319 98.5314 27.8902C98.5314 28.1485 98.481 28.3766 98.3871 28.5779H98.3837Z" fill="#212121"/>
<path d="M101.534 24.5557H100.504V25.7567H99.8296V26.5584H100.504V28.4202C100.504 28.8328 100.564 29.1616 100.688 29.4065C100.812 29.6514 101 29.8224 101.255 29.9264C101.51 30.0271 101.836 30.0807 102.231 30.0807H102.845V29.1482H102.178C101.97 29.1482 101.809 29.0911 101.695 28.9804C101.581 28.8697 101.527 28.7087 101.527 28.4974V26.5651H102.845V25.7634H101.53V24.5624L101.534 24.5557Z" fill="#212121"/>
<path d="M105.408 29.1247H105.224L104.211 25.7567H103.09L104.422 30.0203H104.744H105.177H105.492H105.898H106.173L107.327 25.7567H106.277L105.408 29.1247Z" fill="#212121"/>
<path d="M111.618 26.2699C111.416 26.0619 111.171 25.9009 110.883 25.7835C110.594 25.6661 110.269 25.6057 109.91 25.6057C109.551 25.6057 109.222 25.6661 108.934 25.7835C108.642 25.9009 108.397 26.0619 108.196 26.2699C107.995 26.4779 107.84 26.7127 107.736 26.9777C107.632 27.2427 107.579 27.5212 107.579 27.813V27.9774C107.579 28.2659 107.629 28.5409 107.733 28.8026C107.834 29.0643 107.985 29.2991 108.186 29.5004C108.384 29.705 108.629 29.866 108.917 29.9868C109.206 30.1076 109.538 30.1679 109.913 30.1679C110.289 30.1679 110.615 30.1076 110.903 29.9868C111.192 29.866 111.433 29.705 111.634 29.5004C111.832 29.2957 111.983 29.0643 112.087 28.8026C112.188 28.5409 112.242 28.2659 112.242 27.9774V27.813C112.242 27.5212 112.188 27.2394 112.084 26.9777C111.98 26.7127 111.826 26.4779 111.624 26.2699H111.618ZM110.997 28.5779C110.9 28.7791 110.759 28.9401 110.578 29.0576C110.393 29.175 110.172 29.2354 109.91 29.2354C109.648 29.2354 109.417 29.175 109.236 29.0576C109.051 28.9401 108.914 28.7791 108.817 28.5779C108.719 28.3766 108.672 28.1485 108.672 27.8902C108.672 27.6319 108.723 27.4037 108.82 27.1991C108.92 26.9945 109.061 26.8335 109.249 26.7161C109.434 26.5986 109.655 26.5383 109.913 26.5383C110.172 26.5383 110.39 26.5953 110.574 26.7161C110.759 26.8335 110.9 26.9945 110.997 27.1991C111.098 27.4037 111.145 27.6319 111.145 27.8902C111.145 28.1485 111.094 28.3766 111 28.5779H110.997Z" fill="#212121"/>
<path d="M112.517 24.2873V25.1059H113.05V30.0203H114.144V25.1059V24.2873H113.05H112.517Z" fill="#212121"/>
<path d="M120.071 26.9039C119.766 26.763 119.404 26.6758 118.991 26.6456L118.498 26.5987C118.216 26.5785 118.008 26.5014 117.877 26.3672C117.746 26.233 117.679 26.0787 117.679 25.9009C117.679 25.7533 117.716 25.6191 117.79 25.495C117.864 25.3709 117.971 25.2736 118.115 25.1964C118.26 25.1193 118.441 25.0824 118.662 25.0824C118.884 25.0824 119.085 25.126 119.236 25.2098C119.387 25.2937 119.501 25.401 119.575 25.5352C119.648 25.6694 119.685 25.8103 119.685 25.9646H120.776C120.776 25.5923 120.692 25.2702 120.521 24.9951C120.35 24.7201 120.108 24.5087 119.789 24.3544C119.474 24.2035 119.098 24.1263 118.662 24.1263C118.226 24.1263 117.877 24.2001 117.569 24.341C117.257 24.4852 117.015 24.6899 116.841 24.9549C116.67 25.2199 116.582 25.5352 116.582 25.9009C116.582 26.3873 116.747 26.7798 117.072 27.075C117.398 27.3702 117.837 27.5413 118.387 27.5882L118.89 27.6352C119.256 27.6654 119.528 27.7426 119.699 27.8667C119.87 27.9908 119.957 28.1518 119.957 28.3497C119.957 28.5108 119.91 28.6584 119.82 28.7858C119.729 28.9133 119.591 29.0173 119.41 29.0978C119.229 29.175 119.001 29.2152 118.723 29.2152C118.424 29.2152 118.183 29.1716 117.998 29.081C117.814 28.9905 117.676 28.8764 117.592 28.7322C117.508 28.5879 117.468 28.4403 117.468 28.2894H116.378C116.378 28.6517 116.468 28.9737 116.649 29.2588C116.831 29.544 117.096 29.7687 117.448 29.9298C117.8 30.0908 118.226 30.1746 118.726 30.1746C119.202 30.1746 119.615 30.0975 119.964 29.9465C120.313 29.7956 120.581 29.5809 120.769 29.3058C120.957 29.0307 121.051 28.712 121.051 28.3531C121.051 28.0143 120.963 27.7224 120.792 27.4809C120.621 27.2394 120.38 27.0482 120.075 26.9073L120.071 26.9039Z" fill="#212121"/>
<path d="M125.546 26.2699C125.345 26.0619 125.1 25.9009 124.811 25.7835C124.523 25.6661 124.197 25.6057 123.838 25.6057C123.479 25.6057 123.151 25.6661 122.862 25.7835C122.57 25.9009 122.325 26.0619 122.124 26.2699C121.923 26.4779 121.769 26.7127 121.665 26.9777C121.561 27.2427 121.507 27.5212 121.507 27.813V27.9774C121.507 28.2659 121.557 28.5409 121.661 28.8026C121.762 29.0643 121.913 29.2991 122.114 29.5004C122.312 29.705 122.557 29.866 122.845 29.9868C123.134 30.1076 123.466 30.1679 123.842 30.1679C124.217 30.1679 124.543 30.1076 124.831 29.9868C125.12 29.866 125.361 29.705 125.563 29.5004C125.761 29.2957 125.912 29.0643 126.016 28.8026C126.116 28.5409 126.17 28.2659 126.17 27.9774V27.813C126.17 27.5212 126.116 27.2394 126.012 26.9777C125.908 26.7127 125.754 26.4779 125.553 26.2699H125.546ZM124.925 28.5779C124.828 28.7791 124.687 28.9401 124.506 29.0576C124.321 29.175 124.1 29.2354 123.838 29.2354C123.577 29.2354 123.345 29.175 123.164 29.0576C122.98 28.9401 122.842 28.7791 122.745 28.5779C122.648 28.3766 122.601 28.1485 122.601 27.8902C122.601 27.6319 122.651 27.4037 122.748 27.1991C122.849 26.9945 122.99 26.8335 123.178 26.7161C123.362 26.5986 123.583 26.5383 123.842 26.5383C124.1 26.5383 124.318 26.5953 124.503 26.7161C124.687 26.8335 124.828 26.9945 124.925 27.1991C125.026 27.4037 125.073 27.6319 125.073 27.8902C125.073 28.1485 125.023 28.3766 124.929 28.5779H124.925Z" fill="#212121"/>
<path d="M126.442 24.2873V25.1059H126.978V30.0203H128.069V25.1059V24.2873H126.978H126.442Z" fill="#212121"/>
<path d="M131.789 28.2692C131.789 28.5477 131.708 28.7657 131.551 28.9301C131.39 29.0911 131.185 29.175 130.933 29.175C130.682 29.175 130.484 29.0978 130.336 28.9435C130.189 28.7892 130.115 28.5812 130.115 28.3196V25.7533H129.025V28.2256C129.025 28.8697 129.159 29.3528 129.424 29.6748C129.692 29.9969 130.071 30.1579 130.571 30.1579H130.618C130.947 30.1579 131.222 30.0874 131.44 29.9432C131.658 29.7989 131.822 29.5842 131.933 29.2958C131.97 29.2018 131.99 29.0878 132.017 28.9771V30.0237H132.879V25.7533H131.789V28.2726V28.2692Z" fill="#212121"/>
<path d="M135.093 24.5557H134.063V25.7567H133.389V26.5584H134.063V28.4202C134.063 28.8328 134.124 29.1616 134.248 29.4065C134.372 29.6514 134.56 29.8224 134.815 29.9264C135.07 30.0271 135.395 30.0807 135.791 30.0807H136.405V29.1482H135.737C135.529 29.1482 135.368 29.0911 135.254 28.9804C135.14 28.8697 135.086 28.7087 135.086 28.4974V26.5651H136.405V25.7634H135.09V24.5624L135.093 24.5557Z" fill="#212121"/>
<path d="M136.734 25.7567V26.5752H137.331V30.0203H138.421V26.5752V25.7567H137.331H136.734Z" fill="#212121"/>
<path d="M137.257 24.2269C137.156 24.3377 137.102 24.4785 137.102 24.653C137.102 24.8274 137.153 24.975 137.257 25.0857C137.357 25.1964 137.518 25.2501 137.733 25.2501C137.948 25.2501 138.106 25.1964 138.203 25.0857C138.303 24.975 138.35 24.8308 138.35 24.653C138.35 24.4752 138.3 24.3377 138.203 24.2269C138.102 24.1162 137.948 24.0626 137.733 24.0626C137.518 24.0626 137.361 24.1162 137.257 24.2269Z" fill="#212121"/>
<path d="M143.238 26.2699C143.037 26.0619 142.792 25.9009 142.503 25.7835C142.215 25.6661 141.889 25.6057 141.531 25.6057C141.172 25.6057 140.843 25.6661 140.554 25.7835C140.262 25.9009 140.018 26.0619 139.816 26.2699C139.615 26.4779 139.461 26.7127 139.357 26.9777C139.253 27.2427 139.199 27.5212 139.199 27.813V27.9774C139.199 28.2659 139.249 28.5409 139.353 28.8026C139.454 29.0643 139.605 29.2991 139.806 29.5004C140.004 29.705 140.249 29.866 140.538 29.9868C140.826 30.1076 141.158 30.1679 141.534 30.1679C141.91 30.1679 142.235 30.1076 142.524 29.9868C142.812 29.866 143.054 29.705 143.255 29.5004C143.453 29.2957 143.604 29.0643 143.708 28.8026C143.808 28.5409 143.862 28.2659 143.862 27.9774V27.813C143.862 27.5212 143.808 27.2394 143.704 26.9777C143.6 26.7127 143.446 26.4779 143.245 26.2699H143.238ZM142.617 28.5779C142.52 28.7791 142.379 28.9401 142.198 29.0576C142.014 29.175 141.792 29.2354 141.531 29.2354C141.269 29.2354 141.037 29.175 140.856 29.0576C140.672 28.9401 140.534 28.7791 140.437 28.5779C140.34 28.3766 140.293 28.1485 140.293 27.8902C140.293 27.6319 140.343 27.4037 140.44 27.1991C140.541 26.9945 140.682 26.8335 140.87 26.7161C141.054 26.5986 141.276 26.5383 141.534 26.5383C141.792 26.5383 142.01 26.5953 142.195 26.7161C142.379 26.8335 142.52 26.9945 142.617 27.1991C142.718 27.4037 142.765 27.6319 142.765 27.8902C142.765 28.1485 142.715 28.3766 142.621 28.5779H142.617Z" fill="#212121"/>
<path d="M146.989 25.6225H146.942C146.603 25.6225 146.318 25.6963 146.089 25.8439C145.861 25.9915 145.69 26.2095 145.576 26.498C145.536 26.602 145.509 26.7295 145.482 26.8536V25.7567H144.62V30.0203H145.71V27.5178C145.71 27.2461 145.794 27.028 145.959 26.857C146.123 26.6892 146.338 26.6054 146.606 26.6054C146.874 26.6054 147.066 26.6859 147.22 26.8503C147.371 27.0113 147.448 27.226 147.448 27.4876V30.0237H148.538V27.5816C148.538 26.9341 148.407 26.4444 148.146 26.1156C147.884 25.7902 147.498 25.6258 146.992 25.6258L146.989 25.6225Z" fill="#212121"/>
<path d="M152.487 27.8533C152.202 27.6285 151.809 27.4876 151.306 27.4373L150.93 27.397C150.699 27.3702 150.534 27.3199 150.43 27.2494C150.33 27.1756 150.276 27.0716 150.276 26.9341C150.276 26.7966 150.34 26.6791 150.464 26.5886C150.588 26.498 150.766 26.4544 150.997 26.4544C151.252 26.4544 151.45 26.5081 151.581 26.6121C151.712 26.7161 151.789 26.8435 151.806 26.9978H152.789C152.772 26.5483 152.604 26.2061 152.279 25.978C151.953 25.7466 151.531 25.6325 151.007 25.6325C150.669 25.6325 150.367 25.6828 150.108 25.7868C149.85 25.8875 149.645 26.0384 149.501 26.2363C149.354 26.4343 149.283 26.6825 149.283 26.9744C149.283 27.34 149.411 27.6352 149.669 27.8566C149.924 28.078 150.293 28.2122 150.776 28.2592L151.145 28.2994C151.433 28.3296 151.635 28.39 151.752 28.4739C151.869 28.5577 151.93 28.6684 151.93 28.8026C151.93 28.9636 151.853 29.0945 151.695 29.1884C151.537 29.2823 151.333 29.3293 151.074 29.3293C150.759 29.3293 150.531 29.2689 150.383 29.1481C150.236 29.0274 150.155 28.8932 150.139 28.7489H149.149C149.169 29.1884 149.347 29.5339 149.679 29.7822C150.011 30.0304 150.471 30.1545 151.058 30.1545C151.433 30.1545 151.762 30.0975 152.041 29.9868C152.319 29.8761 152.534 29.7151 152.688 29.5037C152.842 29.2924 152.919 29.0475 152.919 28.7657C152.919 28.3833 152.775 28.0814 152.49 27.8566L152.487 27.8533Z" fill="#212121"/>
</svg>
