<svg width="1440" height="776" viewBox="0 0 1440 776" fill="none" xmlns="http://www.w3.org/2000/svg">
<rect x="-5" width="1451" height="776" fill="#F6F8FB"/>
<path d="M352.36 640.253C346.033 644.825 338.251 647.111 328.992 647.111C322.665 647.111 317.1 646.026 312.297 643.902C307.494 641.754 303.453 638.729 300.174 634.827C296.895 630.925 294.448 626.376 292.808 621.18C291.169 615.985 290.361 610.328 290.361 604.232C290.361 598.136 291.169 592.317 292.808 587.121C294.448 581.926 296.849 577.4 300.013 573.567C303.176 569.734 307.125 566.732 311.881 564.585C316.615 562.437 321.995 561.375 327.976 561.375C333.956 561.375 339.359 562.391 344.162 564.423C348.965 566.455 352.914 569.388 356.031 573.244C359.125 577.077 361.088 581.833 361.873 587.468H386.28C385.264 577.746 382.262 569.272 377.298 562.045C372.333 554.817 365.66 549.16 357.301 545.096C348.942 541.032 339.175 539 327.999 539C316.823 539 307.979 540.847 300.128 544.496C292.277 548.167 285.835 553.039 280.824 559.158C275.79 565.254 272.073 572.043 269.648 579.478C267.224 586.937 266 594.51 266 602.176V605.894C266 612.891 267.178 620.095 269.556 627.484C271.934 634.896 275.629 641.777 280.663 648.15C285.696 654.523 292.185 659.673 300.151 663.575C308.118 667.477 317.746 669.417 329.038 669.417C340.329 669.417 350.905 667.223 359.356 662.813C367.83 658.403 374.481 652.537 379.353 645.195C384.202 637.852 387.204 629.77 388.335 620.972H363.928C362.566 629.216 358.733 635.635 352.406 640.207L352.36 640.253Z" fill="url(#paint0_linear_57_1867)"/>
<path d="M465.691 645.588H462.135L439.714 574.261H416L445.81 664.223H460.865L459.549 669.302C458.764 672.581 457.633 675.144 456.155 677.015C454.677 678.885 452.853 680.224 450.659 681.079C448.466 681.933 445.718 682.349 442.439 682.349H425.167V702.507H440.245C447.819 702.507 454.169 701.607 459.295 699.805C464.445 698.004 468.647 695.026 471.926 690.916C475.205 686.782 477.745 681.287 479.546 674.406L506.816 574.284H484.28L465.714 645.611L465.691 645.588Z" fill="url(#paint1_linear_57_1867)"/>
<path d="M628.898 655.491C632.731 651.15 635.663 646.093 637.719 640.32C639.751 634.571 640.767 628.359 640.767 621.686V618.13C640.767 611.48 639.774 605.315 637.811 599.658C635.825 594.023 632.985 589.059 629.244 584.833C625.504 580.608 621.047 577.306 615.852 574.927C610.656 572.549 604.906 571.371 598.58 571.371C591.468 571.371 585.072 572.965 579.437 576.128C574.103 579.13 569.832 583.563 566.553 589.382V542.577H543V666.251H561.634V646.255C562.188 647.686 562.789 649.095 563.505 650.411C566.784 656.576 571.309 661.264 577.059 664.474C582.809 667.683 589.482 669.299 597.056 669.299C603.729 669.299 609.733 668.076 615.09 665.651C620.447 663.227 625.065 659.832 628.898 655.491ZM613.889 635.24C611.788 639.651 608.832 643.114 604.999 645.654C601.166 648.194 596.755 649.465 591.791 649.465C587.381 649.465 583.201 648.448 579.253 646.417C575.304 644.385 572.071 641.498 569.601 637.781C567.107 634.063 565.883 629.537 565.883 624.226V617.438C565.883 611.896 567.107 607.185 569.531 603.283C571.956 599.381 575.119 596.402 579.022 594.301C582.924 592.199 587.173 591.16 591.814 591.16C596.779 591.16 601.166 592.338 604.953 594.716C608.74 597.095 611.695 600.443 613.843 604.807C615.99 609.148 617.052 614.205 617.052 619.978C617.052 625.75 616.013 630.807 613.912 635.218L613.889 635.24Z" fill="url(#paint2_linear_57_1867)"/>
<path d="M746.212 577.56C739.493 573.219 731.157 571.049 721.228 571.049C713.654 571.049 706.958 572.388 701.162 575.043C695.343 577.699 690.517 581.255 686.684 585.712C682.851 590.168 679.942 595.248 677.956 600.951C675.97 606.655 675 612.566 675 618.662V621.872C675 627.737 675.993 633.509 677.956 639.167C679.918 644.824 682.874 649.927 686.776 654.499C690.679 659.071 695.597 662.719 701.508 665.421C707.42 668.123 714.347 669.485 722.267 669.485C730.187 669.485 736.583 668.192 742.518 665.583C748.452 662.996 753.324 659.325 757.18 654.568C761.013 649.812 763.623 644.293 764.985 637.966H743.141C742.125 641.36 739.816 644.201 736.191 646.51C732.566 648.819 727.947 649.973 722.29 649.973C716.633 649.973 711.784 648.703 708.066 646.163C704.348 643.623 701.578 640.113 699.753 635.657C698.576 632.747 697.814 629.538 697.421 626.097H766.509V617.461C766.509 609.333 764.823 601.736 761.429 594.671C758.035 587.605 752.978 581.902 746.258 577.56H746.212ZM708.02 594.163C711.622 591.738 716.032 590.514 721.228 590.514C726.423 590.514 730.718 591.646 734.113 593.909C737.507 596.172 740.07 599.381 741.825 603.561C742.818 605.939 743.487 608.618 743.926 611.527H697.745C698.206 608.941 698.899 606.563 699.8 604.415C701.67 600.005 704.395 596.587 708.02 594.163Z" fill="url(#paint3_linear_57_1867)"/>
<path d="M860.91 593.563V573.059H857.516C846.548 573.059 838.258 576.476 832.601 583.311C828.329 588.483 825.674 595.457 824.634 604.208V574.236H806V666.23H829.553V618.455C829.553 610.443 831.723 604.277 836.064 599.983C840.405 595.688 846.548 593.54 854.445 593.54H860.887L860.91 593.563Z" fill="url(#paint4_linear_57_1867)"/>
<path d="M924.745 666.254H934.05H940.839H949.636H955.571L980.486 574.261H957.764L939.038 646.951H935.043L913.222 574.261H889L917.794 666.254H924.745Z" fill="url(#paint5_linear_57_1867)"/>
<path d="M1080.67 665.582C1086.89 662.996 1092.13 659.486 1096.42 655.076C1100.72 650.665 1103.97 645.655 1106.17 639.997C1108.36 634.34 1109.47 628.429 1109.47 622.217V618.661C1109.47 612.335 1108.34 606.331 1106.07 600.627C1103.81 594.924 1100.51 589.844 1096.17 585.388C1091.83 580.931 1086.54 577.421 1080.33 574.881C1074.12 572.341 1067.12 571.071 1059.31 571.071C1051.51 571.071 1044.49 572.341 1038.23 574.881C1031.95 577.421 1026.66 580.931 1022.3 585.388C1017.96 589.844 1014.66 594.947 1012.39 600.627C1010.13 606.331 1009 612.358 1009 618.661V622.217C1009 628.429 1010.11 634.363 1012.3 639.997C1014.5 645.631 1017.75 650.665 1022.05 655.076C1026.34 659.486 1031.58 662.973 1037.79 665.582C1044.01 668.168 1051.19 669.484 1059.31 669.484C1067.44 669.484 1074.44 668.191 1080.65 665.582H1080.67ZM1035.69 635.171C1033.59 630.83 1032.55 625.889 1032.55 620.347C1032.55 614.805 1033.62 609.841 1035.76 605.43C1037.91 601.02 1040.98 597.556 1045 595.016C1049.02 592.476 1053.77 591.206 1059.31 591.206C1064.86 591.206 1069.59 592.476 1073.54 595.016C1077.49 597.556 1080.54 601.02 1082.68 605.43C1084.83 609.841 1085.89 614.805 1085.89 620.347C1085.89 625.889 1084.85 630.83 1082.75 635.171C1080.65 639.512 1077.65 642.976 1073.68 645.516C1069.73 648.056 1064.93 649.326 1059.27 649.326C1053.61 649.326 1048.65 648.056 1044.7 645.516C1040.75 642.976 1037.73 639.536 1035.62 635.171H1035.69Z" fill="url(#paint6_linear_57_1867)"/>
<path d="M1150.52 542.577H1139V560.195H1150.52V666.251H1174.08V560.195V542.577H1150.52Z" fill="url(#paint7_linear_57_1867)"/>
<defs>
<linearGradient id="paint0_linear_57_1867" x1="319.281" y1="474.766" x2="352.697" y2="673.11" gradientUnits="userSpaceOnUse">
<stop stop-color="#6F90B4"/>
<stop offset="0.413462" stop-color="#547AA2" stop-opacity="0.27"/>
<stop offset="0.999637" stop-color="#2E5A88" stop-opacity="0"/>
</linearGradient>
<linearGradient id="paint1_linear_57_1867" x1="455.554" y1="511.096" x2="498.193" y2="702.159" gradientUnits="userSpaceOnUse">
<stop stop-color="#6F90B4"/>
<stop offset="0.413462" stop-color="#547AA2" stop-opacity="0.27"/>
<stop offset="0.999637" stop-color="#2E5A88" stop-opacity="0"/>
</linearGradient>
<linearGradient id="paint2_linear_57_1867" x1="585.581" y1="480.163" x2="624.544" y2="670.377" gradientUnits="userSpaceOnUse">
<stop stop-color="#6F90B4"/>
<stop offset="0.413462" stop-color="#547AA2" stop-opacity="0.27"/>
<stop offset="0.999637" stop-color="#2E5A88" stop-opacity="0"/>
</linearGradient>
<linearGradient id="paint3_linear_57_1867" x1="714.856" y1="522.566" x2="740.292" y2="672.198" gradientUnits="userSpaceOnUse">
<stop stop-color="#6F90B4"/>
<stop offset="0.413462" stop-color="#547AA2" stop-opacity="0.27"/>
<stop offset="0.999637" stop-color="#2E5A88" stop-opacity="0"/>
</linearGradient>
<linearGradient id="paint4_linear_57_1867" x1="829.915" y1="527.169" x2="866.369" y2="663.115" gradientUnits="userSpaceOnUse">
<stop stop-color="#6F90B4"/>
<stop offset="0.413462" stop-color="#547AA2" stop-opacity="0.27"/>
<stop offset="0.999637" stop-color="#2E5A88" stop-opacity="0"/>
</linearGradient>
<linearGradient id="paint5_linear_57_1867" x1="928.845" y1="528.951" x2="951.146" y2="669.287" gradientUnits="userSpaceOnUse">
<stop stop-color="#6F90B4"/>
<stop offset="0.413462" stop-color="#547AA2" stop-opacity="0.27"/>
<stop offset="0.999637" stop-color="#2E5A88" stop-opacity="0"/>
</linearGradient>
<linearGradient id="paint6_linear_57_1867" x1="1052.76" y1="522.6" x2="1076.03" y2="672.917" gradientUnits="userSpaceOnUse">
<stop stop-color="#6F90B4"/>
<stop offset="0.413462" stop-color="#547AA2" stop-opacity="0.27"/>
<stop offset="0.999637" stop-color="#2E5A88" stop-opacity="0"/>
</linearGradient>
<linearGradient id="paint7_linear_57_1867" x1="1154.28" y1="481.664" x2="1236.52" y2="629.263" gradientUnits="userSpaceOnUse">
<stop stop-color="#6F90B4"/>
<stop offset="0.413462" stop-color="#547AA2" stop-opacity="0.27"/>
<stop offset="0.999637" stop-color="#2E5A88" stop-opacity="0"/>
</linearGradient>
</defs>
</svg>
