<svg width="33" height="33" viewBox="0 0 33 33" fill="none" xmlns="http://www.w3.org/2000/svg">
<rect width="33" height="33" rx="7.69758" fill="url(#paint0_linear_369_10155)"/>
<g clip-path="url(#clip0_369_10155)">
<path d="M16.5007 7.93274C12.9581 7.93274 10.0752 10.8356 10.0752 14.4046C10.0752 19.4758 15.8967 24.7118 16.1444 24.9317C16.2465 25.0224 16.3736 25.0674 16.5007 25.0674C16.6278 25.0674 16.7548 25.0224 16.8569 24.9324C17.1047 24.7118 22.9262 19.4758 22.9262 14.4046C22.9262 10.8356 20.0433 7.93274 16.5007 7.93274ZM16.5007 17.9279C14.5323 17.9279 12.931 16.3266 12.931 14.3582C12.931 12.3899 14.5323 10.7885 16.5007 10.7885C18.469 10.7885 20.0704 12.3899 20.0704 14.3582C20.0704 16.3266 18.469 17.9279 16.5007 17.9279Z" fill="white"/>
</g>
<defs>
<linearGradient id="paint0_linear_369_10155" x1="6.16957" y1="27.2708" x2="35.3711" y2="8.89742" gradientUnits="userSpaceOnUse">
<stop stop-color="#6F90B4"/>
<stop offset="0.567308" stop-color="#2E5A88"/>
<stop offset="1" stop-color="#87BBF3"/>
</linearGradient>
<clipPath id="clip0_369_10155">
<rect width="17.1346" height="17.1346" fill="white" transform="translate(7.93262 7.93274)"/>
</clipPath>
</defs>
</svg>
