<svg width="33" height="33" viewBox="0 0 33 33" fill="none" xmlns="http://www.w3.org/2000/svg">
<rect width="33" height="33" rx="7.69758" fill="url(#paint0_linear_369_10149)"/>
<path d="M12.1449 15.5206C13.3105 17.8112 15.1883 19.681 17.479 20.8546L19.2597 19.0739C19.4782 18.8554 19.802 18.7825 20.0853 18.8796C20.9918 19.1791 21.9712 19.341 22.9749 19.341C23.4201 19.341 23.7843 19.7052 23.7843 20.1504V22.9753C23.7843 23.4205 23.4201 23.7847 22.9749 23.7847C15.3745 23.7847 9.21484 17.625 9.21484 10.0246C9.21484 9.57945 9.57908 9.21521 10.0243 9.21521H12.8572C13.3024 9.21521 13.6666 9.57945 13.6666 10.0246C13.6666 11.0364 13.8285 12.0077 14.128 12.9142C14.217 13.1975 14.1523 13.5132 13.9256 13.7398L12.1449 15.5206Z" fill="white"/>
<defs>
<linearGradient id="paint0_linear_369_10149" x1="6.16957" y1="27.2708" x2="35.3711" y2="8.89742" gradientUnits="userSpaceOnUse">
<stop stop-color="#6F90B4"/>
<stop offset="0.567308" stop-color="#2E5A88"/>
<stop offset="1" stop-color="#87BBF3"/>
</linearGradient>
</defs>
</svg>
