<svg width="38" height="38" viewBox="0 0 38 38" fill="none" xmlns="http://www.w3.org/2000/svg">
<rect width="38" height="37.8242" rx="8.69664" fill="url(#paint0_linear_331_2867)"/>
<g clip-path="url(#clip0_331_2867)">
<g clip-path="url(#clip1_331_2867)">
<path d="M26.7188 14.0552C26.3907 14.0552 26.1282 14.3177 26.1282 14.6458V27.7052H12.8719V9.06772H22.1907V11.824C22.1907 12.4802 22.7157 13.0052 23.3719 13.0052H26.6532C26.7188 13.0052 26.8172 12.9724 26.8829 12.9396C27.1782 12.8083 27.3094 12.4474 27.1782 12.1521C27.1125 12.0208 27.0469 11.9224 26.9485 11.7912L23.3719 8.24741C23.1422 8.01772 22.8469 7.88647 22.5516 7.88647H12.8719C12.2157 7.88647 11.6907 8.41147 11.6907 9.06772V27.7052C11.6907 28.3615 12.2157 28.8865 12.8719 28.8865H26.1282C26.7844 28.8865 27.3094 28.3615 27.3094 27.7052V14.6458C27.3094 14.3177 27.0469 14.0552 26.7188 14.0552ZM23.3719 9.92085L25.275 11.824H23.3719V9.92085ZM19.9594 18.0912H15.5625C15.2344 18.0912 14.9719 17.8287 14.9719 17.5005C14.9719 17.1724 15.2344 16.9099 15.5625 16.9099H19.9266C20.2547 16.9099 20.5172 17.1724 20.5172 17.5005C20.5172 17.8287 20.2875 18.0912 19.9594 18.0912ZM23.4375 21.5693H15.5625C15.2344 21.5693 14.9719 21.3068 14.9719 20.9787C14.9719 20.6505 15.2344 20.388 15.5625 20.388H23.4375C23.7657 20.388 24.0282 20.6505 24.0282 20.9787C24.0282 21.3068 23.7657 21.5693 23.4375 21.5693ZM23.4375 25.0474H15.5625C15.2344 25.0474 14.9719 24.7849 14.9719 24.4568C14.9719 24.1287 15.2344 23.8662 15.5625 23.8662H23.4375C23.7657 23.8662 24.0282 24.1287 24.0282 24.4568C24.0282 24.7849 23.7657 25.0474 23.4375 25.0474Z" fill="white"/>
</g>
</g>
<defs>
<linearGradient id="paint0_linear_331_2867" x1="7.10435" y1="31.2575" x2="40.6417" y2="10.0579" gradientUnits="userSpaceOnUse">
<stop stop-color="#6F90B4"/>
<stop offset="0.567308" stop-color="#2E5A88"/>
<stop offset="1" stop-color="#87BBF3"/>
</linearGradient>
<clipPath id="clip0_331_2867">
<rect width="21" height="21" fill="white" transform="translate(9 8)"/>
</clipPath>
<clipPath id="clip1_331_2867">
<rect width="21" height="21" fill="white" transform="translate(9 7.88647)"/>
</clipPath>
</defs>
</svg>
