<svg width="38" height="38" viewBox="0 0 38 38" fill="none" xmlns="http://www.w3.org/2000/svg">
<rect width="38" height="37.8242" rx="8.69664" fill="url(#paint0_linear_331_2743)"/>
<g clip-path="url(#clip0_331_2743)">
<path d="M26.5625 14.875H25.1875V12.8125C25.1875 12.2655 24.9702 11.7409 24.5834 11.3541C24.1966 10.9673 23.672 10.75 23.125 10.75H11.4375C10.8905 10.75 10.3659 10.9673 9.97909 11.3541C9.5923 11.7409 9.375 12.2655 9.375 12.8125V26.5625C9.375 27.1095 9.5923 27.6341 9.97909 28.0209C10.3659 28.4077 10.8905 28.625 11.4375 28.625H26.2188C26.8569 28.625 27.469 28.3715 27.9202 27.9202C28.3715 27.469 28.625 26.8569 28.625 26.2188V16.9375C28.625 16.3905 28.4077 15.8659 28.0209 15.4791C27.6341 15.0923 27.1095 14.875 26.5625 14.875ZM10.75 26.5625V12.8125C10.75 12.6302 10.8224 12.4553 10.9514 12.3264C11.0803 12.1974 11.2552 12.125 11.4375 12.125H23.125C23.3073 12.125 23.4822 12.1974 23.6111 12.3264C23.7401 12.4553 23.8125 12.6302 23.8125 12.8125V26.2188C23.814 26.5762 23.8962 26.9288 24.0531 27.25H11.4375C11.2552 27.25 11.0803 27.1776 10.9514 27.0486C10.8224 26.9197 10.75 26.7448 10.75 26.5625ZM27.25 26.2188C27.25 26.4923 27.1413 26.7546 26.948 26.948C26.7546 27.1413 26.4923 27.25 26.2188 27.25C25.9452 27.25 25.6829 27.1413 25.4895 26.948C25.2962 26.7546 25.1875 26.4923 25.1875 26.2188V16.25H26.5625C26.7448 16.25 26.9197 16.3224 27.0486 16.4514C27.1776 16.5803 27.25 16.7552 27.25 16.9375V26.2188Z" fill="white"/>
<path d="M21.75 15.5625H14.875C14.6927 15.5625 14.5178 15.6349 14.3889 15.7639C14.2599 15.8928 14.1875 16.0677 14.1875 16.25C14.1875 16.4323 14.2599 16.6072 14.3889 16.7361C14.5178 16.8651 14.6927 16.9375 14.875 16.9375H21.75C21.9323 16.9375 22.1072 16.8651 22.2361 16.7361C22.3651 16.6072 22.4375 16.4323 22.4375 16.25C22.4375 16.0677 22.3651 15.8928 22.2361 15.7639C22.1072 15.6349 21.9323 15.5625 21.75 15.5625Z" fill="white"/>
<path d="M21.75 19H12.8125C12.6302 19 12.4553 19.0724 12.3264 19.2014C12.1974 19.3303 12.125 19.5052 12.125 19.6875C12.125 19.8698 12.1974 20.0447 12.3264 20.1736C12.4553 20.3026 12.6302 20.375 12.8125 20.375H21.75C21.9323 20.375 22.1072 20.3026 22.2361 20.1736C22.3651 20.0447 22.4375 19.8698 22.4375 19.6875C22.4375 19.5052 22.3651 19.3303 22.2361 19.2014C22.1072 19.0724 21.9323 19 21.75 19Z" fill="white"/>
<path d="M21.75 22.4375H12.8125C12.6302 22.4375 12.4553 22.5099 12.3264 22.6389C12.1974 22.7678 12.125 22.9427 12.125 23.125C12.125 23.3073 12.1974 23.4822 12.3264 23.6111C12.4553 23.7401 12.6302 23.8125 12.8125 23.8125H21.75C21.9323 23.8125 22.1072 23.7401 22.2361 23.6111C22.3651 23.4822 22.4375 23.3073 22.4375 23.125C22.4375 22.9427 22.3651 22.7678 22.2361 22.6389C22.1072 22.5099 21.9323 22.4375 21.75 22.4375Z" fill="white"/>
</g>
<defs>
<linearGradient id="paint0_linear_331_2743" x1="7.10435" y1="31.2575" x2="40.6417" y2="10.0579" gradientUnits="userSpaceOnUse">
<stop stop-color="#6F90B4"/>
<stop offset="0.567308" stop-color="#2E5A88"/>
<stop offset="1" stop-color="#87BBF3"/>
</linearGradient>
<clipPath id="clip0_331_2743">
<rect width="22" height="22" fill="white" transform="translate(8 8.1189)"/>
</clipPath>
</defs>
</svg>
