<svg width="38" height="38" viewBox="0 0 38 38" fill="none" xmlns="http://www.w3.org/2000/svg">
<rect width="38" height="37.8242" rx="8.69664" fill="url(#paint0_linear_331_2825)"/>
<path d="M11.4554 25.5547H25.5444C27.1687 25.5547 28.4905 24.2329 28.4905 22.6078V12.8451C28.4905 11.22 27.1687 9.89819 25.5444 9.89819H11.4554C9.83106 9.89819 8.50928 11.22 8.50928 12.8451V22.6078C8.50928 24.2329 9.83106 25.5547 11.4554 25.5547ZM9.80303 12.8451C9.80303 11.9337 10.5448 11.1927 11.4554 11.1927H25.5444C26.4557 11.1927 27.1968 11.9337 27.1968 12.8451V22.6078C27.1968 23.5192 26.455 24.2603 25.5444 24.2603H11.4554C10.5441 24.2603 9.80303 23.5192 9.80303 22.6078V12.8451Z" fill="white"/>
<path d="M16.6074 21.3451C16.905 21.4989 17.227 21.5751 17.5482 21.5751C17.9622 21.5751 18.3734 21.4486 18.7263 21.1999L21.28 19.3944C21.8212 19.012 22.1439 18.3882 22.1439 17.7255C22.1439 17.0635 21.8205 16.4396 21.28 16.058L18.7256 14.2532C18.0988 13.8104 17.2873 13.7544 16.6067 14.108C15.926 14.4602 15.5027 15.1559 15.5027 15.9221V19.531C15.5034 20.2972 15.926 20.9929 16.6074 21.3451ZM16.7972 15.9221C16.7972 15.6368 16.9481 15.3881 17.2018 15.2566C17.3125 15.1991 17.4311 15.1703 17.5482 15.1703C17.6985 15.1703 17.848 15.217 17.9788 15.3098L20.5325 17.1145C20.7337 17.2561 20.8487 17.4797 20.8487 17.7262C20.8487 17.9727 20.733 18.1955 20.5318 18.3386L17.9781 20.1434C17.7452 20.3079 17.4555 20.3281 17.2011 20.1965C16.9474 20.065 16.7964 19.817 16.7964 19.531L16.7972 15.9221Z" fill="white"/>
<path d="M28.5624 27.8074H8.4374C8.08018 27.8074 7.79053 28.097 7.79053 28.4542C7.79053 28.8115 8.08018 29.1011 8.4374 29.1011H28.5624C28.9196 29.1011 29.2093 28.8115 29.2093 28.4542C29.2093 28.097 28.9196 27.8074 28.5624 27.8074Z" fill="white"/>
<defs>
<linearGradient id="paint0_linear_331_2825" x1="7.10435" y1="31.2575" x2="40.6417" y2="10.0579" gradientUnits="userSpaceOnUse">
<stop stop-color="#6F90B4"/>
<stop offset="0.567308" stop-color="#2E5A88"/>
<stop offset="1" stop-color="#87BBF3"/>
</linearGradient>
</defs>
</svg>
