<svg width="38" height="38" viewBox="0 0 38 38" fill="none" xmlns="http://www.w3.org/2000/svg">
<rect width="38" height="37.8242" rx="8.69664" fill="url(#paint0_linear_331_2846)"/>
<g clip-path="url(#clip0_331_2846)">
<mask id="mask0_331_2846" style="mask-type:luminance" maskUnits="userSpaceOnUse" x="8" y="8" width="22" height="23">
<path d="M8 8.1189H30V30.1189H8V8.1189Z" fill="white"/>
</mask>
<g mask="url(#mask0_331_2846)">
<path d="M20.1691 29.233L19.0001 29.6892L17.831 29.233C13.2026 27.4268 10.1555 22.9669 10.1555 17.9984V11.0761L19.0001 8.54859L27.8446 11.0761V17.9984C27.8446 22.9669 24.7976 27.4268 20.1691 29.233Z" stroke="white" stroke-width="1.19642" stroke-miterlimit="10" stroke-linecap="round" stroke-linejoin="round"/>
<path d="M23.3146 17.1774C23.3146 14.7741 21.3497 12.8298 18.9387 12.8634C16.6348 12.8955 14.7461 14.7611 14.6872 17.0645C14.6517 18.4575 15.2766 19.7059 16.2713 20.5191C16.7761 20.9317 17.0587 21.5571 17.0587 22.209V22.7861H20.9417V22.209C20.9417 21.5571 21.2243 20.9317 21.729 20.5191C22.6968 19.728 23.3146 18.5249 23.3146 17.1774Z" stroke="white" stroke-width="1.19642" stroke-miterlimit="10" stroke-linecap="round" stroke-linejoin="round"/>
<path d="M20.0788 24.9434H17.9216V22.7862H20.0788V24.9434Z" stroke="white" stroke-width="1.19642" stroke-miterlimit="10" stroke-linecap="round" stroke-linejoin="round"/>
<path d="M19.863 17.6088C19.863 18.0854 19.4767 18.4717 19.0001 18.4717C18.5235 18.4717 18.1372 18.0854 18.1372 17.6088C18.1372 17.1323 18.5235 16.7459 19.0001 16.7459C19.4767 16.7459 19.863 17.1323 19.863 17.6088Z" stroke="white" stroke-width="1.19642" stroke-miterlimit="10" stroke-linecap="round" stroke-linejoin="round"/>
<path d="M19 18.4717V22.7861" stroke="white" stroke-width="1.19642" stroke-miterlimit="10" stroke-linecap="round" stroke-linejoin="round"/>
</g>
</g>
<defs>
<linearGradient id="paint0_linear_331_2846" x1="7.10435" y1="31.2575" x2="40.6417" y2="10.0579" gradientUnits="userSpaceOnUse">
<stop stop-color="#6F90B4"/>
<stop offset="0.567308" stop-color="#2E5A88"/>
<stop offset="1" stop-color="#87BBF3"/>
</linearGradient>
<clipPath id="clip0_331_2846">
<rect width="22" height="22" fill="white" transform="translate(8 8.1189)"/>
</clipPath>
</defs>
</svg>
