<svg width="38" height="38" viewBox="0 0 38 38" fill="none" xmlns="http://www.w3.org/2000/svg">
<rect width="38" height="37.8242" rx="8.69664" fill="url(#paint0_linear_331_2846)"/>
<path d="M20.3361 28.0969H12.9343C11.1578 28.0969 11.1309 25.3341 12.9277 25.3341H19.1293C19.4555 25.3341 19.7199 25.0696 19.7199 24.7435C19.7199 24.4173 19.4555 24.1529 19.1293 24.1529H15.1229V10.9032H25.2784C25.7594 10.9032 26.1512 11.295 26.1512 11.776V20.5829C26.1512 20.909 26.4156 21.1735 26.7418 21.1735C27.0679 21.1735 27.3324 20.909 27.3324 20.5829V11.776C27.3324 10.6433 26.411 9.72192 25.2784 9.72192H12.9343C11.5234 9.72192 10.3749 10.8704 10.3749 12.2813V26.1682C10.3749 26.4648 10.352 26.7825 10.394 27.0751C10.5711 28.322 11.6756 29.2782 12.9343 29.2782H20.3368C20.663 29.2782 20.9274 29.0137 20.9274 28.6875C20.9274 28.3614 20.663 28.0969 20.3361 28.0969ZM12.9343 10.9032H13.9416V24.1529H12.9271C12.4329 24.1529 11.9624 24.2966 11.5555 24.5571V12.2813C11.5562 11.5214 12.1744 10.9032 12.9343 10.9032Z" fill="white"/>
<path d="M24.1574 14.6478C24.1574 14.3216 23.893 14.0571 23.5668 14.0571H17.7098C17.3836 14.0571 17.1191 14.3216 17.1191 14.6478C17.1191 14.9739 17.3836 15.2384 17.7098 15.2384H23.5668C23.893 15.2384 24.1574 14.9746 24.1574 14.6478Z" fill="white"/>
<path d="M19.2193 16.5161C18.8931 16.5161 18.6287 16.7806 18.6287 17.1067C18.6287 17.4329 18.8931 17.6974 19.2193 17.6974H22.0576C22.3837 17.6974 22.6482 17.4329 22.6482 17.1067C22.6482 16.7806 22.3837 16.5161 22.0576 16.5161H19.2193Z" fill="white"/>
<path d="M27.7952 23.0326L22.1363 21.3113C21.7196 21.1853 21.2681 21.2975 20.9597 21.6053C20.6506 21.9137 20.5377 22.3646 20.6643 22.7826L22.3857 28.4415C22.5379 28.9415 22.9737 29.2696 23.4967 29.2775H23.5157C24.0302 29.2775 24.4673 28.9638 24.6327 28.4743L25.4372 26.0842L27.8293 25.2783C28.3241 25.1116 28.6391 24.6654 28.6319 24.143C28.624 23.6213 28.2959 23.1849 27.7952 23.0326ZM25.0606 24.9653C24.7134 25.0821 24.4358 25.359 24.3183 25.7069L23.5157 28.0982L21.7951 22.4427L27.4513 24.1601L25.0606 24.9653Z" fill="white"/>
<defs>
<linearGradient id="paint0_linear_331_2846" x1="7.10435" y1="31.2575" x2="40.6417" y2="10.0579" gradientUnits="userSpaceOnUse">
<stop stop-color="#6F90B4"/>
<stop offset="0.567308" stop-color="#2E5A88"/>
<stop offset="1" stop-color="#87BBF3"/>
</linearGradient>
</defs>
</svg>
