<svg width="49" height="49" viewBox="0 0 49 49" fill="none" xmlns="http://www.w3.org/2000/svg">
<rect width="49" height="48.7732" rx="5.93757" fill="url(#paint0_linear_679_332)"/>
<g clip-path="url(#clip0_679_332)">
<path d="M38.6992 23.5666H37.5957C38.1029 22.5587 38.3711 21.4388 38.3711 20.2776C38.3711 18.32 37.6087 16.4796 36.2246 15.0953C34.8403 13.7111 32.9999 12.9487 31.0423 12.9487C29.0847 12.9487 27.2442 13.7111 25.86 15.0953L25.5195 15.4358L25.1791 15.0954C23.7949 13.7111 21.9545 12.9488 19.9968 12.9488C18.0392 12.9488 16.1988 13.7111 14.8145 15.0953C13.4303 16.4796 12.668 18.32 12.668 20.2776C12.668 21.4387 12.9362 22.5587 13.4433 23.5666H12.3398C11.8868 23.5666 11.5195 23.9339 11.5195 24.387C11.5195 24.84 11.8868 25.2073 12.3398 25.2073H14.5736C14.6518 25.293 14.732 25.3773 14.8146 25.4599L24.9395 35.5849C25.0997 35.7451 25.3096 35.8252 25.5195 35.8252C25.7294 35.8252 25.9394 35.7451 26.0995 35.5849L36.2245 25.4599C36.3071 25.3773 36.3873 25.293 36.4655 25.2073H38.6992C39.1523 25.2073 39.5195 24.84 39.5195 24.387C39.5195 23.9339 39.1523 23.5666 38.6992 23.5666ZM14.3086 20.2776C14.3086 18.7582 14.9003 17.3298 15.9746 16.2554C17.049 15.181 18.4774 14.5894 19.9968 14.5894C21.5162 14.5894 22.9446 15.181 24.019 16.2554L24.9395 17.1759C25.2598 17.4962 25.7792 17.4962 26.0995 17.1759L27.02 16.2554C28.0944 15.181 29.5228 14.5894 31.0422 14.5894C32.5616 14.5894 33.99 15.181 35.0644 16.2554C36.1388 17.3298 36.7305 18.7582 36.7305 20.2776C36.7305 21.473 36.364 22.612 35.6846 23.5666H31.385L29.5485 20.6668C29.3946 20.4238 29.125 20.2795 28.8372 20.2856C28.5497 20.292 28.2866 20.4485 28.1436 20.6981L25.4543 25.3936L21.9856 18.5475C21.8411 18.2623 21.543 18.0866 21.2246 18.0984C20.9052 18.1098 20.6214 18.3058 20.4976 18.6006L18.4119 23.5666H15.3544C14.6751 22.612 14.3086 21.473 14.3086 20.2776ZM25.5195 33.8447L16.8821 25.2073H18.957C19.2873 25.2073 19.5854 25.0091 19.7134 24.7046L21.3236 20.8708L24.6784 27.4921C24.8147 27.7612 25.0877 27.9337 25.3892 27.9414C25.3963 27.9416 25.4033 27.9417 25.4103 27.9417C25.7037 27.9417 25.9756 27.7846 26.122 27.5291L28.8908 22.6947L30.2406 24.826C30.391 25.0633 30.6525 25.2073 30.9336 25.2073H34.157L25.5195 33.8447Z" fill="white"/>
</g>
<defs>
<linearGradient id="paint0_linear_679_332" x1="9.16087" y1="40.3057" x2="52.4064" y2="12.9693" gradientUnits="userSpaceOnUse">
<stop stop-color="#6F90B4"/>
<stop offset="0.567308" stop-color="#2E5A88"/>
<stop offset="1" stop-color="#87BBF3"/>
</linearGradient>
<clipPath id="clip0_679_332">
<rect width="28" height="28" fill="white" transform="translate(11.5195 10.3867)"/>
</clipPath>
</defs>
</svg>
