<svg width="49" height="49" viewBox="0 0 49 49" fill="none" xmlns="http://www.w3.org/2000/svg">
<rect width="49" height="48.7732" rx="5.93757" fill="url(#paint0_linear_250_373)"/>
<g clip-path="url(#clip0_250_373)">
<path d="M36.2616 21.543C36.801 21.543 37.2382 21.0883 37.2382 20.5273V17.4805C37.2382 17.0957 37.0292 16.7441 36.6983 16.572L26.9327 11.4939C26.7971 11.4234 26.6475 11.3867 26.496 11.3867H23.5663C23.4004 11.3867 23.2371 11.4307 23.092 11.5145L14.303 16.5927C13.9929 16.7718 13.8007 17.1116 13.8007 17.4805V20.5273C13.8007 21.0883 14.2379 21.543 14.7772 21.543H15.7538V31.4677C14.6172 31.8869 13.8007 33.0158 13.8007 34.3398V36.3711C13.8007 36.932 14.2379 37.3867 14.7772 37.3867H36.2616C36.801 37.3867 37.2382 36.932 37.2382 36.3711V34.3398C37.2382 33.0158 36.4217 31.8869 35.285 31.4677V21.543H36.2616ZM15.7538 18.0781L23.8194 13.418H26.2655L35.285 18.1082V19.5117H15.7538V18.0781ZM23.5663 31.293V21.543H27.4725V31.293H23.5663ZM21.6132 21.543V31.293H17.7069V21.543H21.6132ZM35.285 35.3555H15.7538V34.3398C15.7538 33.7798 16.1919 33.3242 16.7303 33.3242H34.3085C34.8469 33.3242 35.285 33.7798 35.285 34.3398V35.3555ZM33.3319 31.293H29.4257V21.543H33.3319V31.293Z" fill="white"/>
<path d="M25.5194 17.4805C26.0587 17.4805 26.496 17.0258 26.496 16.4648C26.496 15.9039 26.0587 15.4492 25.5194 15.4492C24.9801 15.4492 24.5428 15.9039 24.5428 16.4648C24.5428 17.0258 24.9801 17.4805 25.5194 17.4805Z" fill="white"/>
</g>
<defs>
<linearGradient id="paint0_linear_250_373" x1="9.16087" y1="40.3057" x2="52.4064" y2="12.9693" gradientUnits="userSpaceOnUse">
<stop stop-color="#6F90B4"/>
<stop offset="0.567308" stop-color="#2E5A88"/>
<stop offset="1" stop-color="#87BBF3"/>
</linearGradient>
<clipPath id="clip0_250_373">
<rect width="25" height="26" fill="white" transform="translate(13.0194 11.3867)"/>
</clipPath>
</defs>
</svg>
