<svg width="49" height="49" viewBox="0 0 49 49" fill="none" xmlns="http://www.w3.org/2000/svg">
<rect width="49" height="48.7732" rx="5.93757" fill="url(#paint0_linear_679_1387)"/>
<g clip-path="url(#clip0_679_1387)">
<path d="M33.3114 25.1777C34.2789 28.382 38.9454 27.7712 39.0195 24.3867C38.9451 21.0016 34.2783 20.392 33.3114 23.5957H28.0051V20.5178H29.3322C29.5812 20.5178 29.8156 20.4006 29.965 20.2014L32.2695 17.1287H33.3114C34.2789 20.3329 38.9454 19.7221 39.0195 16.3376C38.9451 12.9526 34.2783 12.343 33.3114 15.5466H31.874C31.6251 15.5466 31.3906 15.6639 31.2412 15.8631L28.9367 18.9358H28.0051V11.6777C28.0051 11.2409 27.6509 10.8867 27.214 10.8867H23.825C23.426 10.8867 23.0895 11.1838 23.0401 11.5796L22.7653 13.7781C21.7817 14.0326 20.8443 14.4215 19.9673 14.939L18.2168 13.5775C17.9019 13.3328 17.4539 13.3605 17.1718 13.6426L14.7754 16.039C14.4933 16.321 14.4654 16.769 14.7103 17.0839L16.0719 18.8345C15.5544 19.7117 15.1655 20.6488 14.911 21.6324L12.7124 21.9073C12.3166 21.9567 12.0195 22.2933 12.0195 22.6922V26.0813C12.0195 26.4802 12.3166 26.8167 12.7125 26.8662L14.911 27.141C15.1655 28.1246 15.5544 29.0619 16.0719 29.939L14.7104 31.6895C14.4654 32.0045 14.4934 32.4524 14.7754 32.7345L17.1718 35.1308C17.4539 35.4129 17.9019 35.4408 18.2168 35.1959L19.9673 33.8344C20.8445 34.3519 21.7817 34.7407 22.7653 34.9953L23.0401 37.1938C23.0896 37.5897 23.4261 37.8867 23.825 37.8867H27.2141C27.6509 37.8867 28.0051 37.5326 28.0051 37.0957V29.8377H28.9367L31.2412 32.9104C31.3906 33.1096 31.6251 33.2268 31.874 33.2268H33.3114C34.2789 36.431 38.9454 35.8202 39.0195 32.4357C38.9451 29.0507 34.2783 28.441 33.3114 31.6448H32.2695L29.965 28.572C29.8156 28.3729 29.5812 28.2556 29.3322 28.2556H28.0051V25.1777H33.3114ZM36.1103 23.0596C36.8421 23.0596 37.4375 23.6549 37.4375 24.3867C37.3708 26.145 34.8497 26.1445 34.7832 24.3867C34.7832 23.6549 35.3786 23.0596 36.1103 23.0596ZM36.1103 15.0105C36.8421 15.0105 37.4375 15.6059 37.4375 16.3377C37.3708 18.0959 34.8497 18.0954 34.7832 16.3377C34.7832 15.6059 35.3786 15.0105 36.1103 15.0105ZM26.423 29.8771C23.0838 30.4532 19.9247 27.7799 19.9561 24.3867C19.9246 20.994 23.084 18.3196 26.4231 18.8963V29.8771H26.423ZM26.423 17.2988C22.2022 16.732 18.343 20.1248 18.3741 24.3867C18.3429 28.6481 22.2024 32.0421 26.4231 31.4746V36.3047H24.5233L24.2666 34.2512C24.2245 33.9143 23.9723 33.642 23.6397 33.5742C22.4641 33.3345 21.3588 32.876 20.3545 32.2112C20.0713 32.0237 19.7002 32.038 19.4322 32.2464L17.7967 33.5184L16.3878 32.1096L17.6599 30.474C17.8684 30.206 17.8825 29.8348 17.6951 29.5517C17.0302 28.5476 16.5717 27.4424 16.3321 26.2666C16.2643 25.934 15.9919 25.6817 15.6551 25.6396L13.6016 25.383V23.3905L15.6551 23.1338C15.9919 23.0917 16.2643 22.8395 16.332 22.5069C16.5717 21.3313 17.0303 20.2259 17.6951 19.2217C17.8824 18.9386 17.8683 18.5674 17.6598 18.2994L16.3878 16.6639L17.7966 15.255L19.4322 16.5271C19.7002 16.7355 20.0714 16.7497 20.3545 16.5622C21.3586 15.8974 22.4639 15.4389 23.6396 15.1993C23.9722 15.1315 24.2245 14.8591 24.2666 14.5223L24.5233 12.4688H26.423V17.2988ZM36.1103 31.1086C36.8421 31.1086 37.4375 31.704 37.4375 32.4358C37.3708 34.194 34.8496 34.1935 34.7832 32.4358C34.7832 31.704 35.3786 31.1086 36.1103 31.1086Z" fill="white"/>
</g>
<defs>
<linearGradient id="paint0_linear_679_1387" x1="9.16087" y1="40.3057" x2="52.4064" y2="12.9693" gradientUnits="userSpaceOnUse">
<stop stop-color="#6F90B4"/>
<stop offset="0.567308" stop-color="#2E5A88"/>
<stop offset="1" stop-color="#87BBF3"/>
</linearGradient>
<clipPath id="clip0_679_1387">
<rect width="27" height="27" fill="white" transform="translate(12.0195 10.8867)"/>
</clipPath>
</defs>
</svg>
