<svg width="46" height="45" viewBox="0 0 46 45" fill="none" xmlns="http://www.w3.org/2000/svg">
<rect width="46" height="45" rx="10.2987" fill="url(#paint0_linear_288_1188)"/>
<path d="M23.0001 9L11.082 12.3891V24.0819C11.082 27.2654 12.3217 30.2583 14.5728 32.5093C16.8238 34.7603 19.8167 36 23.0001 36C26.1836 36 29.1765 34.7603 31.4275 32.5093C33.6785 30.2582 34.9182 27.2654 34.9182 24.0819V12.3891L23.0001 9ZM33.3362 21.7874H31.2632C30.9207 20.6202 29.8401 19.7656 28.5636 19.7656C27.2872 19.7656 26.2066 20.6203 25.8641 21.7874H23.7911V18.2456H23.0001C22.3215 18.2456 21.7694 17.6935 21.7694 17.0149C21.7694 16.3363 22.3215 15.7841 23.0001 15.7841H23.7911V10.8697L33.3362 13.5839V21.7874ZM22.2091 10.8697V14.3153C21.042 14.6579 20.1873 15.7384 20.1873 17.0149C20.1873 18.2913 21.042 19.3719 22.2091 19.7144V21.7874H18.6673V22.5784C18.6673 23.257 18.1152 23.8091 17.4366 23.8091C16.758 23.8091 16.2059 23.257 16.2059 22.5784V21.7874H12.6641V13.5839L22.2091 10.8697ZM12.6641 24.0819V23.3694H14.737C15.0795 24.5365 16.1601 25.3912 17.4366 25.3912C18.713 25.3912 19.7936 24.5365 20.1361 23.3694H22.2091V26.9112H23.0001C23.6788 26.9112 24.2308 27.4633 24.2308 28.1419C24.2308 28.8205 23.6787 29.3726 23.0001 29.3726H22.2091V34.3879C16.878 33.9826 12.6641 29.5151 12.6641 24.0819ZM23.7911 34.3879V30.8415C24.9583 30.499 25.8129 29.4184 25.8129 28.142C25.8129 26.8655 24.9582 25.7849 23.7911 25.4424V23.3695H27.3329V22.5784C27.3329 21.8998 27.8851 21.3477 28.5636 21.3477C29.2422 21.3477 29.7944 21.8998 29.7944 22.5784V23.3695H33.3362V24.082C33.3362 29.5151 29.1223 33.9826 23.7911 34.3879Z" fill="white"/>
<defs>
<linearGradient id="paint0_linear_288_1188" x1="8.6" y1="37.1875" x2="48.7929" y2="11.3364" gradientUnits="userSpaceOnUse">
<stop stop-color="#6F90B4"/>
<stop offset="0.567308" stop-color="#2E5A88"/>
<stop offset="1" stop-color="#87BBF3"/>
</linearGradient>
</defs>
</svg>
