<svg width="379" height="332" viewBox="0 0 379 332" fill="none" xmlns="http://www.w3.org/2000/svg">
<circle cx="184.352" cy="168.562" r="163.059" stroke="url(#paint0_linear_369_9458)" stroke-width="0.723099"/>
<circle cx="184.713" cy="168.923" r="127.989" stroke="url(#paint1_linear_369_9458)" stroke-width="0.723099"/>
<circle cx="184.713" cy="168.924" r="89.6643" stroke="url(#paint2_linear_369_9458)" stroke-width="0.723099"/>
<g filter="url(#filter0_i_369_9458)">
<rect x="127.951" y="112.16" width="113.527" height="113.527" rx="56.7633" fill="white"/>
<rect x="136.628" y="120.838" width="95.7646" height="95.7646" rx="47.8823" fill="url(#paint3_linear_369_9458)"/>
<path d="M155.529 176.246L152.073 165.208H154.98L158.293 176.246H155.529ZM156.362 176.246V173.928H159.35V176.246H156.362ZM157.48 176.246L160.326 165.208H163.05L160.062 176.246H157.48ZM172.096 176.632C170.754 176.632 169.602 176.395 168.64 175.92C167.678 175.446 166.892 174.829 166.282 174.071C165.686 173.312 165.245 172.485 164.961 171.591C164.676 170.696 164.534 169.836 164.534 169.009V168.562C164.534 167.64 164.676 166.732 164.961 165.838C165.259 164.943 165.713 164.13 166.322 163.398C166.932 162.667 167.705 162.084 168.64 161.65C169.589 161.203 170.707 160.979 171.994 160.979C173.336 160.979 174.501 161.223 175.49 161.711C176.493 162.185 177.293 162.863 177.889 163.744C178.485 164.611 178.844 165.628 178.966 166.793H176.06C175.951 166.116 175.707 165.546 175.328 165.086C174.962 164.611 174.494 164.259 173.925 164.029C173.356 163.785 172.712 163.663 171.994 163.663C171.262 163.663 170.612 163.791 170.042 164.049C169.473 164.293 168.999 164.645 168.62 165.106C168.24 165.567 167.949 166.109 167.745 166.732C167.556 167.356 167.461 168.047 167.461 168.806C167.461 169.537 167.556 170.215 167.745 170.838C167.949 171.462 168.247 172.011 168.64 172.485C169.033 172.946 169.514 173.305 170.083 173.562C170.666 173.82 171.337 173.949 172.096 173.949C173.207 173.949 174.142 173.678 174.901 173.135C175.673 172.58 176.141 171.807 176.303 170.818H179.21C179.075 171.875 178.716 172.844 178.133 173.725C177.55 174.606 176.751 175.311 175.734 175.839C174.718 176.368 173.505 176.632 172.096 176.632ZM181.687 176.246V161.406H184.573V176.246H181.687ZM193.338 176.632C192.024 176.632 190.912 176.422 190.004 176.002C189.11 175.582 188.426 175.006 187.951 174.274C187.477 173.528 187.24 172.688 187.24 171.753H190.065C190.065 172.146 190.174 172.532 190.391 172.912C190.608 173.278 190.953 173.576 191.427 173.806C191.915 174.037 192.552 174.152 193.338 174.152C194.043 174.152 194.632 174.05 195.107 173.847C195.581 173.644 195.933 173.379 196.164 173.054C196.394 172.715 196.509 172.336 196.509 171.916C196.509 171.387 196.286 170.967 195.839 170.655C195.391 170.33 194.7 170.127 193.765 170.046L192.464 169.944C191.041 169.822 189.903 169.382 189.049 168.623C188.209 167.85 187.789 166.834 187.789 165.573C187.789 164.625 188.012 163.812 188.46 163.134C188.907 162.443 189.53 161.914 190.33 161.549C191.143 161.169 192.091 160.979 193.176 160.979C194.3 160.979 195.269 161.176 196.082 161.569C196.896 161.962 197.526 162.518 197.973 163.236C198.42 163.94 198.644 164.774 198.644 165.736H195.818C195.818 165.33 195.717 164.957 195.513 164.618C195.324 164.266 195.032 163.988 194.639 163.785C194.26 163.568 193.772 163.459 193.176 163.459C192.606 163.459 192.132 163.554 191.753 163.744C191.373 163.934 191.089 164.191 190.899 164.516C190.709 164.842 190.614 165.194 190.614 165.573C190.614 166.034 190.784 166.441 191.122 166.793C191.461 167.132 191.997 167.328 192.728 167.383L194.029 167.505C195.086 167.586 196.015 167.81 196.814 168.175C197.614 168.541 198.23 169.036 198.664 169.659C199.111 170.283 199.335 171.035 199.335 171.916C199.335 172.851 199.091 173.678 198.603 174.396C198.115 175.1 197.417 175.649 196.509 176.042C195.615 176.435 194.558 176.632 193.338 176.632ZM208.947 176.632C207.605 176.632 206.439 176.395 205.45 175.92C204.474 175.446 203.661 174.829 203.011 174.071C202.374 173.298 201.893 172.471 201.568 171.591C201.256 170.696 201.1 169.836 201.1 169.009V168.562C201.1 167.654 201.263 166.752 201.588 165.858C201.913 164.95 202.401 164.13 203.051 163.398C203.715 162.667 204.535 162.084 205.511 161.65C206.487 161.203 207.632 160.979 208.947 160.979C210.248 160.979 211.386 161.203 212.362 161.65C213.337 162.084 214.15 162.667 214.801 163.398C215.465 164.13 215.96 164.95 216.285 165.858C216.61 166.752 216.773 167.654 216.773 168.562V169.009C216.773 169.836 216.61 170.696 216.285 171.591C215.973 172.471 215.492 173.298 214.842 174.071C214.205 174.829 213.392 175.446 212.402 175.92C211.427 176.395 210.275 176.632 208.947 176.632ZM208.947 173.949C209.705 173.949 210.383 173.813 210.979 173.542C211.589 173.271 212.104 172.898 212.524 172.424C212.958 171.936 213.283 171.387 213.5 170.777C213.73 170.154 213.846 169.497 213.846 168.806C213.846 168.06 213.73 167.376 213.5 166.752C213.283 166.129 212.958 165.587 212.524 165.126C212.104 164.665 211.589 164.306 210.979 164.049C210.369 163.791 209.692 163.663 208.947 163.663C208.188 163.663 207.503 163.791 206.893 164.049C206.284 164.306 205.762 164.665 205.328 165.126C204.908 165.587 204.583 166.129 204.352 166.752C204.136 167.376 204.027 168.06 204.027 168.806C204.027 169.497 204.136 170.154 204.352 170.777C204.583 171.387 204.908 171.936 205.328 172.424C205.762 172.898 206.284 173.271 206.893 173.542C207.503 173.813 208.188 173.949 208.947 173.949Z" fill="white"/>
</g>
<g filter="url(#filter1_d_369_9458)">
<rect x="13.5801" y="107.237" width="34.902" height="34.5464" rx="7.88383" fill="white"/>
<g clip-path="url(#clip0_369_9458)">
<path d="M40.1187 125.332C39.5619 124.775 38.6683 124.753 38.0844 125.281L34.9847 128.086C34.9267 127.247 34.2259 126.582 33.3727 126.582H30.663C29.9738 126.131 29.1751 125.9 28.3498 125.915C27.7416 125.926 27.1524 126.07 26.6151 126.336C26.3846 126.049 26.0308 125.864 25.6346 125.864H23.4252C22.7322 125.864 22.1685 126.428 22.1685 127.121V131.789C22.1685 132.482 22.7322 133.046 23.4252 133.046H25.6346C26.1349 133.046 26.5677 132.752 26.7698 132.328H34.0751C35.0203 132.328 35.9314 131.93 36.5746 131.238L40.1565 127.381C40.6994 126.796 40.6827 125.896 40.1187 125.332ZM25.8141 131.789C25.8141 131.888 25.7336 131.969 25.6346 131.969H23.4252C23.3262 131.969 23.2457 131.888 23.2457 131.789V127.121C23.2457 127.022 23.3262 126.942 23.4252 126.942H25.6346C25.7336 126.942 25.8141 127.022 25.8141 127.121V131.789ZM39.3672 126.648L35.7853 130.505C35.3452 130.979 34.7218 131.25 34.0751 131.25H26.8913V127.411C27.8757 126.83 29.1299 126.855 30.0923 127.496L30.2014 127.569C30.2899 127.628 30.3938 127.66 30.5001 127.66H33.3727C33.6697 127.66 33.9113 127.901 33.9113 128.198C33.9113 128.495 33.6697 128.737 33.3727 128.737H30.1411C29.8436 128.737 29.6025 128.978 29.6025 129.275C29.6025 129.573 29.8436 129.814 30.1411 129.814H33.6426C34.3116 129.814 34.9533 129.567 35.4494 129.118L38.807 126.08C38.9649 125.937 39.2064 125.943 39.3569 126.094C39.5094 126.246 39.5139 126.49 39.3672 126.648Z" fill="#2E5A88"/>
<path d="M28.5809 124.999H36.422C36.9996 124.999 37.5198 124.702 37.8134 124.205C38.107 123.707 38.1158 123.108 37.8367 122.603L33.9162 115.497C33.6276 114.974 33.0987 114.661 32.5014 114.661C31.9041 114.661 31.3752 114.974 31.0867 115.497L27.1661 122.603C26.8871 123.108 26.8959 123.707 27.1895 124.205C27.4832 124.702 28.0033 124.999 28.5809 124.999ZM28.1093 123.123L32.0299 116.017C32.1685 115.766 32.4058 115.739 32.5014 115.739C32.597 115.739 32.8344 115.766 32.973 116.017L36.8936 123.123C37.0276 123.366 36.9328 123.577 36.8858 123.657C36.8388 123.737 36.6995 123.922 36.422 123.922H28.5809C28.3034 123.922 28.1641 123.737 28.1171 123.657C28.0701 123.577 27.9753 123.366 28.1093 123.123Z" fill="#2E5A88"/>
<path d="M32.501 121.049C32.7985 121.049 33.0396 120.808 33.0396 120.511V118.177C33.0396 117.879 32.7985 117.638 32.501 117.638C32.2036 117.638 31.9624 117.879 31.9624 118.177V120.511C31.9624 120.808 32.2035 121.049 32.501 121.049Z" fill="#2E5A88"/>
<path d="M32.501 121.767C32.2036 121.767 31.9624 122.008 31.9624 122.306C31.9624 122.603 32.2036 122.844 32.501 122.844C32.7985 122.844 33.0396 122.603 33.0396 122.306C33.0396 122.008 32.7985 121.767 32.501 121.767Z" fill="#2E5A88"/>
</g>
</g>
<g filter="url(#filter2_d_369_9458)">
<rect x="92.9062" y="49.9462" width="34.902" height="34.5464" rx="7.88383" fill="white"/>
<g clip-path="url(#clip1_369_9458)">
<path d="M116.065 76.5598C118.587 76.5598 120.632 74.5152 120.632 71.993C120.632 69.4709 118.587 67.4263 116.065 67.4263C113.543 67.4263 111.499 69.4709 111.499 71.993C111.499 74.5152 113.543 76.5598 116.065 76.5598Z" stroke="#2E5A88" stroke-width="1.24548" stroke-miterlimit="10"/>
<path d="M111.498 72.3673C110.669 72.6524 109.78 72.8072 108.854 72.8072C104.369 72.8072 100.733 69.1713 100.733 64.6862C100.733 60.2011 104.369 56.5652 108.854 56.5652C113.34 56.5652 116.975 60.2011 116.975 64.6862C116.975 65.6553 116.806 66.5848 116.494 67.4465" stroke="#2E5A88" stroke-width="1.24548" stroke-miterlimit="10"/>
<path d="M111.613 61.1749H107.959C107.022 61.1749 106.262 61.9344 106.262 62.8713C106.262 63.8081 107.022 64.5676 107.958 64.5676H109.655C110.588 64.5676 111.345 65.3245 111.345 66.2581C111.345 67.1917 110.588 67.9486 109.655 67.9486H106.783" stroke="#2E5A88" stroke-width="1.24548" stroke-miterlimit="10"/>
<path d="M108.734 69.8089V59.3143" stroke="#2E5A88" stroke-width="1.24548" stroke-miterlimit="10"/>
<path d="M113.754 71.8621L115.511 73.4248L118.375 70.561" stroke="#2E5A88" stroke-width="1.24548" stroke-miterlimit="10"/>
</g>
</g>
<g filter="url(#filter3_d_369_9458)">
<rect x="282.408" y="33.7871" width="34.902" height="34.5464" rx="7.88383" fill="white"/>
<g clip-path="url(#clip2_369_9458)">
<path d="M291.626 56.4365C291.063 56.4357 290.516 56.6228 290.071 56.9683C289.626 57.3137 289.308 57.7977 289.17 58.3437C289.031 58.8896 289.078 59.4663 289.303 59.9825C289.529 60.4986 289.921 60.9247 290.416 61.1933C290.911 61.4619 291.482 61.5576 292.037 61.4653C292.593 61.3731 293.102 61.0981 293.484 60.6839C293.866 60.2697 294.099 59.7399 294.146 59.1785C294.192 58.6171 294.051 58.0562 293.743 57.5844L295.243 56.0943C296.614 57.2892 298.372 57.9471 300.192 57.9461C302.011 57.9452 303.768 57.2856 305.139 56.0892L306.633 57.5837C306.291 58.1079 306.155 58.7405 306.251 59.3591C306.348 59.9778 306.671 60.5386 307.157 60.9333C307.643 61.328 308.258 61.5286 308.883 61.4962C309.509 61.4638 310.1 61.2009 310.543 60.7581C310.985 60.3153 311.248 59.7242 311.281 59.0989C311.313 58.4735 311.112 57.8584 310.718 57.3723C310.323 56.8862 309.762 56.5636 309.144 56.4669C308.525 56.3702 307.892 56.5061 307.368 56.8486L305.874 55.3541C307.07 53.9838 307.73 52.2267 307.731 50.4078C307.732 48.5888 307.074 46.8309 305.88 45.4592L307.369 43.9584C307.893 44.3006 308.526 44.4363 309.144 44.3393C309.763 44.2424 310.324 43.9196 310.718 43.4333C311.113 42.9471 311.313 42.3319 311.281 41.7066C311.248 41.0813 310.985 40.4903 310.542 40.0477C310.099 39.6051 309.508 39.3424 308.882 39.3102C308.257 39.2781 307.642 39.4788 307.156 39.8737C306.67 40.2685 306.348 40.8294 306.251 41.4481C306.155 42.0668 306.291 42.6992 306.633 43.2234L305.145 44.7232C303.774 43.5233 302.014 42.8614 300.192 42.8603C298.37 42.8592 296.609 43.519 295.237 44.7173L293.742 43.2228C294.085 42.6985 294.221 42.066 294.124 41.4474C294.027 40.8287 293.705 40.2679 293.219 39.8732C292.733 39.4785 292.117 39.2779 291.492 39.3103C290.867 39.3427 290.276 39.6056 289.833 40.0484C289.39 40.4912 289.127 41.0823 289.095 41.7076C289.062 42.3329 289.263 42.9481 289.658 43.4342C290.052 43.9203 290.613 44.2429 291.232 44.3396C291.85 44.4363 292.483 44.3004 293.007 43.9579L294.502 45.4524C293.304 46.8248 292.644 48.5852 292.645 50.407C292.646 52.2288 293.307 53.9885 294.507 55.3597L293.008 56.849C292.598 56.5795 292.117 56.436 291.626 56.4365ZM291.626 60.4528C291.332 60.4528 291.044 60.3655 290.799 60.202C290.555 60.0384 290.364 59.806 290.251 59.534C290.139 59.262 290.109 58.9628 290.167 58.674C290.224 58.3853 290.366 58.1201 290.574 57.912C290.782 57.7038 291.047 57.5621 291.336 57.5046C291.625 57.4472 291.924 57.4767 292.196 57.5894C292.468 57.702 292.7 57.8928 292.864 58.1376C293.028 58.3823 293.115 58.6701 293.115 58.9645C293.114 59.3591 292.957 59.7374 292.678 60.0165C292.399 60.2955 292.021 60.4524 291.626 60.4529V60.4528ZM310.237 58.9645C310.237 59.2589 310.15 59.5466 309.987 59.7914C309.823 60.0362 309.591 60.2269 309.319 60.3396C309.047 60.4522 308.747 60.4817 308.459 60.4243C308.17 60.3669 307.905 60.2251 307.697 60.0169C307.488 59.8088 307.347 59.5436 307.289 59.2549C307.232 58.9661 307.261 58.6669 307.374 58.3949C307.487 58.1229 307.677 57.8905 307.922 57.7269C308.167 57.5634 308.455 57.4761 308.749 57.4761C309.144 57.4766 309.522 57.6335 309.801 57.9125C310.08 58.1916 310.237 58.5699 310.237 58.9645ZM308.749 40.3535C309.043 40.3535 309.331 40.4408 309.576 40.6043C309.821 40.7679 310.012 41.0003 310.124 41.2723C310.237 41.5443 310.266 41.8435 310.209 42.1322C310.151 42.421 310.01 42.6862 309.802 42.8943C309.593 43.1025 309.328 43.2442 309.039 43.3017C308.751 43.3591 308.451 43.3296 308.179 43.217C307.908 43.1043 307.675 42.9135 307.512 42.6688C307.348 42.424 307.261 42.1362 307.261 41.8419C307.261 41.4473 307.418 41.0689 307.697 40.7899C307.976 40.5109 308.354 40.3539 308.749 40.3535ZM291.626 43.3303C291.332 43.3303 291.044 43.243 290.799 43.0794C290.555 42.9159 290.364 42.6834 290.251 42.4114C290.139 42.1395 290.109 41.8402 290.167 41.5515C290.224 41.2628 290.366 40.9976 290.574 40.7894C290.782 40.5812 291.047 40.4395 291.336 40.3821C291.625 40.3246 291.924 40.3541 292.196 40.4668C292.468 40.5794 292.7 40.7702 292.864 41.015C293.028 41.2597 293.115 41.5475 293.115 41.8419C293.114 42.2365 292.957 42.6148 292.678 42.8938C292.399 43.1729 292.021 43.3298 291.626 43.3303ZM300.188 43.8999C303.774 43.8999 306.691 46.8173 306.691 50.4032C306.691 53.9891 303.774 56.9064 300.188 56.9064C296.602 56.9064 293.685 53.9891 293.685 50.4032C293.685 46.8173 296.602 43.8999 300.188 43.8999ZM299.981 55.3852C300.046 55.4134 300.117 55.428 300.188 55.428C300.259 55.428 300.329 55.4134 300.395 55.3852C301.701 54.8185 302.829 53.7651 303.571 52.419C304.397 50.918 304.676 49.1785 304.378 47.3888C304.357 47.2607 304.289 47.1452 304.186 47.065C304.084 46.9849 303.956 46.946 303.826 46.9559C302.179 47.08 301.142 46.6587 300.654 45.6686C300.611 45.5814 300.545 45.5081 300.463 45.4568C300.38 45.4054 300.285 45.3783 300.188 45.3783C300.091 45.3783 299.996 45.4054 299.913 45.4568C299.831 45.5081 299.764 45.5814 299.721 45.6686C299.234 46.6587 298.196 47.0797 296.549 46.9559C296.42 46.9461 296.291 46.9851 296.189 47.0652C296.087 47.1453 296.019 47.2607 295.997 47.3888C295.699 49.1785 295.978 50.918 296.805 52.419C297.546 53.7651 298.674 54.8185 299.981 55.3852ZM296.961 48.0152C298.407 48.0374 299.488 47.643 300.188 46.8363C300.888 47.6431 301.968 48.0384 303.415 48.0152C303.747 51.1315 302.048 53.4224 300.188 54.3357C298.327 53.4224 296.628 51.1315 296.961 48.0152ZM299.629 51.9312L298.265 50.7139C298.165 50.6215 298.105 50.4933 298.098 50.3569C298.091 50.2206 298.139 50.0871 298.23 49.9853C298.32 49.8835 298.448 49.8215 298.584 49.8128C298.72 49.804 298.854 49.8492 298.958 49.9386L299.908 50.7869L301.355 48.9422C301.397 48.8879 301.449 48.8424 301.509 48.8084C301.568 48.7743 301.634 48.7524 301.702 48.7439C301.77 48.7354 301.839 48.7405 301.905 48.7588C301.971 48.7772 302.033 48.8084 302.087 48.8507C302.141 48.8931 302.186 48.9457 302.22 49.0056C302.253 49.0654 302.275 49.1313 302.283 49.1995C302.291 49.2676 302.285 49.3367 302.266 49.4026C302.247 49.4686 302.216 49.5302 302.173 49.5838L300.384 51.8644C300.34 51.9203 300.285 51.9666 300.223 52.0005C300.16 52.0343 300.091 52.0551 300.021 52.0613C300.005 52.0627 299.99 52.0634 299.975 52.0634C299.847 52.0633 299.724 52.0162 299.629 51.9312V51.9312Z" fill="#2E5A88"/>
</g>
</g>
<g filter="url(#filter4_d_369_9458)">
<rect x="197.206" y="70.5123" width="34.902" height="34.5464" rx="7.88383" fill="white"/>
<g clip-path="url(#clip3_369_9458)">
<path d="M225.323 81.0747L221.2 77.085C221.084 76.9727 220.927 76.9097 220.763 76.9097H211.28C210.257 76.9097 209.425 77.7151 209.425 78.705V86.5981C206.646 86.8968 204.478 89.1832 204.478 91.9508C204.478 94.9207 206.975 97.3369 210.044 97.3369H223.648C224.671 97.3369 225.504 96.5315 225.504 95.5415V81.4979C225.504 81.3392 225.439 81.187 225.323 81.0747ZM221.381 78.9529L222.725 80.2532L223.392 80.8994H221.381V78.9529ZM205.715 91.9508C205.715 89.6409 207.657 87.7616 210.044 87.7616C212.431 87.7616 214.372 89.6409 214.372 91.9508C214.372 94.2607 212.431 96.14 210.044 96.14C207.657 96.14 205.715 94.2607 205.715 91.9508ZM223.648 96.14H213.538C214.649 95.27 215.409 93.9951 215.575 92.5492H221.999C222.341 92.5492 222.618 92.2813 222.618 91.9508C222.618 91.6203 222.341 91.3523 221.999 91.3523H215.575C215.474 90.4738 215.154 89.6584 214.669 88.9585H221.999C222.341 88.9585 222.618 88.6906 222.618 88.3601C222.618 88.0296 222.341 87.7616 221.999 87.7616H213.538C212.733 87.1318 211.744 86.7144 210.662 86.5981V78.705C210.662 78.375 210.939 78.1066 211.28 78.1066H220.144V81.4978C220.144 81.8283 220.421 82.0963 220.763 82.0963H224.267V95.5415C224.267 95.8715 223.989 96.14 223.648 96.14Z" fill="#2E5A88"/>
<path d="M221.999 84.1709H212.929C212.588 84.1709 212.311 84.4388 212.311 84.7694C212.311 85.0999 212.588 85.3678 212.929 85.3678H221.999C222.341 85.3678 222.618 85.0999 222.618 84.7694C222.618 84.4388 222.341 84.1709 221.999 84.1709Z" fill="#2E5A88"/>
<path d="M212.5 90.4505C212.259 90.2168 211.867 90.2168 211.626 90.4505L209.177 92.8201L208.377 92.0464C208.136 91.8127 207.744 91.8127 207.503 92.0464C207.261 92.28 207.261 92.659 207.503 92.8927L208.74 94.0896C208.86 94.2065 209.019 94.2649 209.177 94.2649C209.335 94.2649 209.494 94.2065 209.614 94.0896L212.5 91.2968C212.742 91.0631 212.742 90.6842 212.5 90.4505Z" fill="#2E5A88"/>
</g>
</g>
<g filter="url(#filter5_d_369_9458)">
<rect x="330.151" y="125.6" width="34.902" height="34.5464" rx="7.88383" fill="white"/>
<g clip-path="url(#clip4_369_9458)">
<path d="M355.246 140.28C355.614 140.28 355.911 139.97 355.911 139.588V137.514C355.911 137.252 355.769 137.012 355.544 136.895L348.894 133.437C348.802 133.39 348.7 133.365 348.597 133.365H346.602C346.489 133.365 346.378 133.394 346.279 133.452L340.295 136.909C340.084 137.031 339.953 137.263 339.953 137.514V139.588C339.953 139.97 340.25 140.28 340.618 140.28H341.283V147.038C340.509 147.323 339.953 148.092 339.953 148.993V150.377C339.953 150.758 340.25 151.068 340.618 151.068H355.246C355.614 151.068 355.911 150.758 355.911 150.377V148.993C355.911 148.092 355.355 147.323 354.581 147.038V140.28H355.246ZM341.283 137.921L346.774 134.748H348.44L354.581 137.941V138.897H341.283V137.921ZM346.602 146.919V140.28H349.262V146.919H346.602ZM345.272 140.28V146.919H342.612V140.28H345.272ZM354.581 149.685H341.283V148.993C341.283 148.612 341.581 148.302 341.947 148.302H353.917C354.283 148.302 354.581 148.612 354.581 148.993V149.685ZM353.252 146.919H350.592V140.28H353.252V146.919Z" fill="#2E5A88"/>
<path d="M347.933 137.514C348.3 137.514 348.597 137.204 348.597 136.822C348.597 136.44 348.3 136.131 347.933 136.131C347.565 136.131 347.268 136.44 347.268 136.822C347.268 137.204 347.565 137.514 347.933 137.514Z" fill="#2E5A88"/>
</g>
</g>
<g filter="url(#filter6_di_369_9458)">
<circle cx="178.19" cy="5.22232" r="5.22232" fill="white"/>
</g>
<g filter="url(#filter7_di_369_9458)">
<circle cx="274.409" cy="173.423" r="5.22232" fill="white"/>
</g>
<g filter="url(#filter8_di_369_9458)">
<circle cx="261.923" cy="66.1861" r="5.22232" fill="white"/>
</g>
<g filter="url(#filter9_di_369_9458)">
<circle cx="55.5275" cy="171.954" r="5.22232" fill="white"/>
</g>
<defs>
<filter id="filter0_i_369_9458" x="127.951" y="112.16" width="113.526" height="114.043" filterUnits="userSpaceOnUse" color-interpolation-filters="sRGB">
<feFlood flood-opacity="0" result="BackgroundImageFix"/>
<feBlend mode="normal" in="SourceGraphic" in2="BackgroundImageFix" result="shape"/>
<feColorMatrix in="SourceAlpha" type="matrix" values="0 0 0 0 0 0 0 0 0 0 0 0 0 0 0 0 0 0 127 0" result="hardAlpha"/>
<feMorphology radius="1.54809" operator="erode" in="SourceAlpha" result="effect1_innerShadow_369_9458"/>
<feOffset dy="0.51603"/>
<feGaussianBlur stdDeviation="2.32213"/>
<feComposite in2="hardAlpha" operator="arithmetic" k2="-1" k3="1"/>
<feColorMatrix type="matrix" values="0 0 0 0 0.329864 0 0 0 0 0.477118 0 0 0 0 0.634514 0 0 0 0.22 0"/>
<feBlend mode="normal" in2="shape" result="effect1_innerShadow_369_9458"/>
</filter>
<filter id="filter1_d_369_9458" x="-0.00014782" y="95.2199" width="62.0623" height="61.707" filterUnits="userSpaceOnUse" color-interpolation-filters="sRGB">
<feFlood flood-opacity="0" result="BackgroundImageFix"/>
<feColorMatrix in="SourceAlpha" type="matrix" values="0 0 0 0 0 0 0 0 0 0 0 0 0 0 0 0 0 0 127 0" result="hardAlpha"/>
<feOffset dy="1.56267"/>
<feGaussianBlur stdDeviation="6.79011"/>
<feColorMatrix type="matrix" values="0 0 0 0 0.392157 0 0 0 0 0.392157 0 0 0 0 0.435294 0 0 0 0.1 0"/>
<feBlend mode="normal" in2="BackgroundImageFix" result="effect1_dropShadow_369_9458"/>
<feBlend mode="normal" in="SourceGraphic" in2="effect1_dropShadow_369_9458" result="shape"/>
</filter>
<filter id="filter2_d_369_9458" x="79.326" y="37.9286" width="62.0623" height="61.7068" filterUnits="userSpaceOnUse" color-interpolation-filters="sRGB">
<feFlood flood-opacity="0" result="BackgroundImageFix"/>
<feColorMatrix in="SourceAlpha" type="matrix" values="0 0 0 0 0 0 0 0 0 0 0 0 0 0 0 0 0 0 127 0" result="hardAlpha"/>
<feOffset dy="1.56267"/>
<feGaussianBlur stdDeviation="6.79011"/>
<feColorMatrix type="matrix" values="0 0 0 0 0.392157 0 0 0 0 0.392157 0 0 0 0 0.435294 0 0 0 0.1 0"/>
<feBlend mode="normal" in2="BackgroundImageFix" result="effect1_dropShadow_369_9458"/>
<feBlend mode="normal" in="SourceGraphic" in2="effect1_dropShadow_369_9458" result="shape"/>
</filter>
<filter id="filter3_d_369_9458" x="268.828" y="21.7696" width="62.0623" height="61.7068" filterUnits="userSpaceOnUse" color-interpolation-filters="sRGB">
<feFlood flood-opacity="0" result="BackgroundImageFix"/>
<feColorMatrix in="SourceAlpha" type="matrix" values="0 0 0 0 0 0 0 0 0 0 0 0 0 0 0 0 0 0 127 0" result="hardAlpha"/>
<feOffset dy="1.56267"/>
<feGaussianBlur stdDeviation="6.79011"/>
<feColorMatrix type="matrix" values="0 0 0 0 0.392157 0 0 0 0 0.392157 0 0 0 0 0.435294 0 0 0 0.1 0"/>
<feBlend mode="normal" in2="BackgroundImageFix" result="effect1_dropShadow_369_9458"/>
<feBlend mode="normal" in="SourceGraphic" in2="effect1_dropShadow_369_9458" result="shape"/>
</filter>
<filter id="filter4_d_369_9458" x="183.626" y="58.4948" width="62.0623" height="61.7068" filterUnits="userSpaceOnUse" color-interpolation-filters="sRGB">
<feFlood flood-opacity="0" result="BackgroundImageFix"/>
<feColorMatrix in="SourceAlpha" type="matrix" values="0 0 0 0 0 0 0 0 0 0 0 0 0 0 0 0 0 0 127 0" result="hardAlpha"/>
<feOffset dy="1.56267"/>
<feGaussianBlur stdDeviation="6.79011"/>
<feColorMatrix type="matrix" values="0 0 0 0 0.392157 0 0 0 0 0.392157 0 0 0 0 0.435294 0 0 0 0.1 0"/>
<feBlend mode="normal" in2="BackgroundImageFix" result="effect1_dropShadow_369_9458"/>
<feBlend mode="normal" in="SourceGraphic" in2="effect1_dropShadow_369_9458" result="shape"/>
</filter>
<filter id="filter5_d_369_9458" x="316.571" y="113.582" width="62.0623" height="61.707" filterUnits="userSpaceOnUse" color-interpolation-filters="sRGB">
<feFlood flood-opacity="0" result="BackgroundImageFix"/>
<feColorMatrix in="SourceAlpha" type="matrix" values="0 0 0 0 0 0 0 0 0 0 0 0 0 0 0 0 0 0 127 0" result="hardAlpha"/>
<feOffset dy="1.56267"/>
<feGaussianBlur stdDeviation="6.79011"/>
<feColorMatrix type="matrix" values="0 0 0 0 0.392157 0 0 0 0 0.392157 0 0 0 0 0.435294 0 0 0 0.1 0"/>
<feBlend mode="normal" in2="BackgroundImageFix" result="effect1_dropShadow_369_9458"/>
<feBlend mode="normal" in="SourceGraphic" in2="effect1_dropShadow_369_9458" result="shape"/>
</filter>
<filter id="filter6_di_369_9458" x="170.64" y="0" width="15.0988" height="15.0986" filterUnits="userSpaceOnUse" color-interpolation-filters="sRGB">
<feFlood flood-opacity="0" result="BackgroundImageFix"/>
<feColorMatrix in="SourceAlpha" type="matrix" values="0 0 0 0 0 0 0 0 0 0 0 0 0 0 0 0 0 0 127 0" result="hardAlpha"/>
<feOffset dy="2.327"/>
<feGaussianBlur stdDeviation="1.1635"/>
<feComposite in2="hardAlpha" operator="out"/>
<feColorMatrix type="matrix" values="0 0 0 0 0 0 0 0 0 0 0 0 0 0 0 0 0 0 0.25 0"/>
<feBlend mode="normal" in2="BackgroundImageFix" result="effect1_dropShadow_369_9458"/>
<feBlend mode="normal" in="SourceGraphic" in2="effect1_dropShadow_369_9458" result="shape"/>
<feColorMatrix in="SourceAlpha" type="matrix" values="0 0 0 0 0 0 0 0 0 0 0 0 0 0 0 0 0 0 127 0" result="hardAlpha"/>
<feMorphology radius="0.58175" operator="erode" in="SourceAlpha" result="effect2_innerShadow_369_9458"/>
<feOffset/>
<feGaussianBlur stdDeviation="3.19962"/>
<feComposite in2="hardAlpha" operator="arithmetic" k2="-1" k3="1"/>
<feColorMatrix type="matrix" values="0 0 0 0 0.435294 0 0 0 0 0.564706 0 0 0 0 0.705882 0 0 0 0.64 0"/>
<feBlend mode="normal" in2="shape" result="effect2_innerShadow_369_9458"/>
</filter>
<filter id="filter7_di_369_9458" x="266.86" y="168.201" width="15.0988" height="15.0986" filterUnits="userSpaceOnUse" color-interpolation-filters="sRGB">
<feFlood flood-opacity="0" result="BackgroundImageFix"/>
<feColorMatrix in="SourceAlpha" type="matrix" values="0 0 0 0 0 0 0 0 0 0 0 0 0 0 0 0 0 0 127 0" result="hardAlpha"/>
<feOffset dy="2.327"/>
<feGaussianBlur stdDeviation="1.1635"/>
<feComposite in2="hardAlpha" operator="out"/>
<feColorMatrix type="matrix" values="0 0 0 0 0 0 0 0 0 0 0 0 0 0 0 0 0 0 0.25 0"/>
<feBlend mode="normal" in2="BackgroundImageFix" result="effect1_dropShadow_369_9458"/>
<feBlend mode="normal" in="SourceGraphic" in2="effect1_dropShadow_369_9458" result="shape"/>
<feColorMatrix in="SourceAlpha" type="matrix" values="0 0 0 0 0 0 0 0 0 0 0 0 0 0 0 0 0 0 127 0" result="hardAlpha"/>
<feMorphology radius="0.58175" operator="erode" in="SourceAlpha" result="effect2_innerShadow_369_9458"/>
<feOffset/>
<feGaussianBlur stdDeviation="3.19962"/>
<feComposite in2="hardAlpha" operator="arithmetic" k2="-1" k3="1"/>
<feColorMatrix type="matrix" values="0 0 0 0 0.435294 0 0 0 0 0.564706 0 0 0 0 0.705882 0 0 0 0.64 0"/>
<feBlend mode="normal" in2="shape" result="effect2_innerShadow_369_9458"/>
</filter>
<filter id="filter8_di_369_9458" x="254.374" y="60.9637" width="15.0988" height="15.0986" filterUnits="userSpaceOnUse" color-interpolation-filters="sRGB">
<feFlood flood-opacity="0" result="BackgroundImageFix"/>
<feColorMatrix in="SourceAlpha" type="matrix" values="0 0 0 0 0 0 0 0 0 0 0 0 0 0 0 0 0 0 127 0" result="hardAlpha"/>
<feOffset dy="2.327"/>
<feGaussianBlur stdDeviation="1.1635"/>
<feComposite in2="hardAlpha" operator="out"/>
<feColorMatrix type="matrix" values="0 0 0 0 0 0 0 0 0 0 0 0 0 0 0 0 0 0 0.25 0"/>
<feBlend mode="normal" in2="BackgroundImageFix" result="effect1_dropShadow_369_9458"/>
<feBlend mode="normal" in="SourceGraphic" in2="effect1_dropShadow_369_9458" result="shape"/>
<feColorMatrix in="SourceAlpha" type="matrix" values="0 0 0 0 0 0 0 0 0 0 0 0 0 0 0 0 0 0 127 0" result="hardAlpha"/>
<feMorphology radius="0.58175" operator="erode" in="SourceAlpha" result="effect2_innerShadow_369_9458"/>
<feOffset/>
<feGaussianBlur stdDeviation="3.19962"/>
<feComposite in2="hardAlpha" operator="arithmetic" k2="-1" k3="1"/>
<feColorMatrix type="matrix" values="0 0 0 0 0.435294 0 0 0 0 0.564706 0 0 0 0 0.705882 0 0 0 0.64 0"/>
<feBlend mode="normal" in2="shape" result="effect2_innerShadow_369_9458"/>
</filter>
<filter id="filter9_di_369_9458" x="47.9782" y="166.732" width="15.0988" height="15.0986" filterUnits="userSpaceOnUse" color-interpolation-filters="sRGB">
<feFlood flood-opacity="0" result="BackgroundImageFix"/>
<feColorMatrix in="SourceAlpha" type="matrix" values="0 0 0 0 0 0 0 0 0 0 0 0 0 0 0 0 0 0 127 0" result="hardAlpha"/>
<feOffset dy="2.327"/>
<feGaussianBlur stdDeviation="1.1635"/>
<feComposite in2="hardAlpha" operator="out"/>
<feColorMatrix type="matrix" values="0 0 0 0 0 0 0 0 0 0 0 0 0 0 0 0 0 0 0.25 0"/>
<feBlend mode="normal" in2="BackgroundImageFix" result="effect1_dropShadow_369_9458"/>
<feBlend mode="normal" in="SourceGraphic" in2="effect1_dropShadow_369_9458" result="shape"/>
<feColorMatrix in="SourceAlpha" type="matrix" values="0 0 0 0 0 0 0 0 0 0 0 0 0 0 0 0 0 0 127 0" result="hardAlpha"/>
<feMorphology radius="0.58175" operator="erode" in="SourceAlpha" result="effect2_innerShadow_369_9458"/>
<feOffset/>
<feGaussianBlur stdDeviation="3.19962"/>
<feComposite in2="hardAlpha" operator="arithmetic" k2="-1" k3="1"/>
<feColorMatrix type="matrix" values="0 0 0 0 0.435294 0 0 0 0 0.564706 0 0 0 0 0.705882 0 0 0 0.64 0"/>
<feBlend mode="normal" in2="shape" result="effect2_innerShadow_369_9458"/>
</filter>
<linearGradient id="paint0_linear_369_9458" x1="184.352" y1="5.14148" x2="184.352" y2="331.982" gradientUnits="userSpaceOnUse">
<stop stop-color="#6F90B4" stop-opacity="0.46"/>
<stop offset="0.446886" stop-color="#6F90B4" stop-opacity="0.14"/>
<stop offset="1" stop-color="#6F90B4" stop-opacity="0"/>
</linearGradient>
<linearGradient id="paint1_linear_369_9458" x1="184.713" y1="40.5734" x2="184.713" y2="297.274" gradientUnits="userSpaceOnUse">
<stop stop-color="#6F90B4" stop-opacity="0.46"/>
<stop offset="0.446886" stop-color="#6F90B4" stop-opacity="0.14"/>
<stop offset="1" stop-color="#6F90B4" stop-opacity="0"/>
</linearGradient>
<linearGradient id="paint2_linear_369_9458" x1="184.713" y1="78.8977" x2="184.713" y2="258.949" gradientUnits="userSpaceOnUse">
<stop stop-color="#6F90B4" stop-opacity="0.46"/>
<stop offset="0.446886" stop-color="#6F90B4" stop-opacity="0.14"/>
<stop offset="1" stop-color="#6F90B4" stop-opacity="0"/>
</linearGradient>
<linearGradient id="paint3_linear_369_9458" x1="154.532" y1="199.976" x2="239.274" y2="146.657" gradientUnits="userSpaceOnUse">
<stop stop-color="#6F90B4"/>
<stop offset="0.567308" stop-color="#2E5A88"/>
<stop offset="1" stop-color="#87BBF3"/>
</linearGradient>
<clipPath id="clip0_369_9458">
<rect width="18.3845" height="18.3845" fill="white" transform="translate(22.1675 114.661)"/>
</clipPath>
<clipPath id="clip1_369_9458">
<rect width="21.2401" height="21.2401" fill="white" transform="translate(100.065 55.9424)"/>
</clipPath>
<clipPath id="clip2_369_9458">
<rect width="22.1787" height="22.1787" fill="white" transform="translate(289.098 39.314)"/>
</clipPath>
<clipPath id="clip3_369_9458">
<rect width="21.0971" height="20.4378" fill="white" transform="translate(204.437 76.9097)"/>
</clipPath>
<clipPath id="clip4_369_9458">
<rect width="17.0227" height="17.7036" fill="white" transform="translate(339.419 133.365)"/>
</clipPath>
</defs>
</svg>
