<svg width="413" height="408" viewBox="0 0 413 408" fill="none" xmlns="http://www.w3.org/2000/svg">
<circle cx="202.772" cy="206.625" r="175.848" stroke="#6F90B4" stroke-opacity="0.23" stroke-width="0.779815"/>
<circle cx="203.161" cy="207.015" r="138.027" stroke="#6F90B4" stroke-opacity="0.23" stroke-width="0.779815"/>
<circle cx="203.162" cy="207.015" r="96.697" stroke="#6F90B4" stroke-opacity="0.23" stroke-width="0.779815"/>
<g filter="url(#filter0_d_423_6398)">
<rect x="63.7563" y="105.638" width="37.6395" height="37.256" rx="8.50219" fill="white"/>
<path d="M80.0341 120.553H76.1726C75.945 120.553 75.7267 120.463 75.5658 120.302C75.4049 120.141 75.3145 119.923 75.3145 119.695V115.834C75.3145 115.606 75.4049 115.388 75.5658 115.227C75.7267 115.066 75.945 114.976 76.1726 114.976C76.4002 114.976 76.6184 115.066 76.7794 115.227C76.9403 115.388 77.0307 115.606 77.0307 115.834V118.837H80.0341C80.2617 118.837 80.48 118.928 80.6409 119.088C80.8018 119.249 80.8922 119.468 80.8922 119.695C80.8922 119.923 80.8018 120.141 80.6409 120.302C80.48 120.463 80.2617 120.553 80.0341 120.553Z" fill="#2E5A88"/>
<path d="M90.6533 124.415C90.4257 124.415 90.2074 124.325 90.0465 124.164C89.8856 124.003 89.7952 123.784 89.7952 123.557C89.7958 122.046 89.2978 120.577 88.3785 119.379C87.4591 118.18 86.1698 117.318 84.7107 116.927C83.2515 116.536 81.704 116.637 80.3084 117.216C78.9127 117.794 77.747 118.817 76.992 120.125C76.878 120.322 76.6904 120.466 76.4704 120.524C76.2505 120.583 76.0163 120.552 75.8194 120.438C75.6224 120.324 75.4788 120.136 75.4201 119.916C75.3614 119.697 75.3926 119.462 75.5066 119.265C76.4507 117.63 77.9082 116.352 79.6529 115.629C81.3975 114.907 83.3319 114.78 85.1558 115.269C86.9797 115.759 88.5913 116.836 89.7404 118.334C90.8896 119.833 91.5121 121.669 91.5114 123.557C91.5114 123.784 91.421 124.003 91.2601 124.164C91.0991 124.325 90.8809 124.415 90.6533 124.415ZM89.6879 132.138C89.4603 132.138 89.242 132.048 89.0811 131.887C88.9202 131.726 88.8298 131.508 88.8298 131.28V128.277H85.8264C85.5988 128.277 85.3805 128.186 85.2196 128.025C85.0586 127.864 84.9682 127.646 84.9682 127.418C84.9682 127.191 85.0586 126.973 85.2196 126.812C85.3805 126.651 85.5988 126.56 85.8264 126.56H89.6879C89.9155 126.56 90.1338 126.651 90.2947 126.812C90.4556 126.973 90.546 127.191 90.546 127.418V131.28C90.546 131.508 90.4556 131.726 90.2947 131.887C90.1338 132.048 89.9155 132.138 89.6879 132.138Z" fill="#2E5A88"/>
<path d="M82.9308 132.138C80.6556 132.136 78.4743 131.231 76.8655 129.622C75.2567 128.013 74.3519 125.832 74.3496 123.557C74.3496 123.329 74.44 123.111 74.6009 122.95C74.7619 122.789 74.9801 122.699 75.2077 122.699C75.4353 122.699 75.6536 122.789 75.8145 122.95C75.9754 123.111 76.0659 123.329 76.0659 123.557C76.0652 125.068 76.5632 126.536 77.4825 127.735C78.4019 128.934 79.6912 129.795 81.1504 130.187C82.6096 130.578 84.157 130.476 85.5527 129.898C86.9483 129.32 88.1141 128.297 88.869 126.988C88.9255 126.891 89.0006 126.805 89.0901 126.737C89.1796 126.668 89.2817 126.618 89.3906 126.589C89.4995 126.56 89.613 126.553 89.7247 126.568C89.8364 126.583 89.9441 126.619 90.0417 126.676C90.1392 126.732 90.2247 126.807 90.2932 126.897C90.3617 126.986 90.4119 127.088 90.4409 127.197C90.47 127.306 90.4773 127.42 90.4624 127.531C90.4476 127.643 90.4109 127.751 90.3544 127.848C89.5999 129.15 88.5174 130.231 87.2148 130.983C85.9123 131.736 84.4352 132.134 82.9308 132.138Z" fill="#2E5A88"/>
</g>
<g filter="url(#filter1_d_423_6398)">
<rect x="104.154" y="304.458" width="37.6395" height="37.256" rx="8.50219" fill="white"/>
<g clip-path="url(#clip0_423_6398)">
<path d="M131.914 315.471C131.799 313.983 130.552 312.808 129.035 312.808H115.522C113.93 312.808 112.634 314.103 112.634 315.696V329.059C112.634 330.651 113.93 331.947 115.522 331.947H131.133C132.726 331.947 134.021 330.651 134.021 329.059V318.251C134.021 316.929 133.128 315.812 131.914 315.471ZM115.522 314.157H129.035C129.77 314.157 130.385 314.674 130.538 315.363H115.522C114.957 315.363 114.429 315.527 113.983 315.809V315.696C113.983 314.847 114.674 314.157 115.522 314.157ZM131.133 330.598H115.522C114.674 330.598 113.983 329.907 113.983 329.059V318.251C113.983 317.402 114.674 316.712 115.522 316.712H131.133C131.982 316.712 132.672 317.402 132.672 318.251V320.605H128.37C126.666 320.605 125.279 321.992 125.279 323.697C125.279 325.401 126.666 326.788 128.37 326.788H132.672V329.059C132.672 329.907 131.982 330.598 131.133 330.598ZM132.672 325.439H128.37C127.41 325.439 126.628 324.657 126.628 323.697C126.628 322.736 127.41 321.954 128.37 321.954H132.672V325.439Z" fill="#2E5A88"/>
<path d="M128.621 324.451C129.009 324.451 129.324 324.136 129.324 323.748C129.324 323.36 129.009 323.046 128.621 323.046C128.233 323.046 127.919 323.36 127.919 323.748C127.919 324.136 128.233 324.451 128.621 324.451Z" fill="#2E5A88"/>
</g>
</g>
<g filter="url(#filter2_d_423_6398)">
<rect x="14.6455" y="217.326" width="37.6395" height="37.256" rx="8.50219" fill="white"/>
<g clip-path="url(#clip1_423_6398)">
<path d="M37.7233 236.235C36.7332 238.274 34.6364 239.73 32.1902 239.73C28.8703 239.73 26.0746 236.993 26.0746 233.614C26.0746 230.295 28.7538 227.499 32.1902 227.499C33.821 227.499 35.3936 228.14 36.5584 229.304C37.2574 230.003 37.7233 230.819 38.0145 231.692L39.3541 230.353C38.9464 229.479 38.4222 228.722 37.7233 228.023C36.209 226.567 34.2287 225.693 32.1319 225.693C27.8219 225.752 24.269 229.304 24.269 233.614C24.269 237.983 27.8219 241.477 32.1319 241.477C36.209 241.477 39.4706 238.39 39.9366 234.605C39.0629 235.42 38.7135 236.235 37.7233 236.235Z" fill="#2E5A88"/>
<path d="M42.6713 244.098C41.7977 244.972 40.3416 244.972 39.4097 244.098L36.7305 241.419C37.3711 241.011 38.0118 240.545 38.536 240.021C39.1185 239.439 39.5844 238.856 39.9921 238.157L42.6713 240.836C43.545 241.71 43.6032 243.166 42.6713 244.098Z" fill="#2E5A88"/>
<path d="M42.1475 230.819L41.0408 231.925L38.0122 234.896C37.7792 235.129 37.4297 235.129 37.1968 234.896L35.2747 232.974L32.2461 236.002C32.0131 236.235 31.6636 236.235 31.4306 236.002L30.091 234.663L28.169 236.585C27.936 236.294 27.7031 235.886 27.5283 235.536L29.6833 233.498C29.9163 233.265 30.2658 233.265 30.4987 233.498L31.8383 234.838L34.867 231.809C35.1 231.576 35.4494 231.576 35.6824 231.809L37.0803 233.207L37.6045 233.731L40.6914 230.644L41.3321 230.003C41.565 229.77 41.9145 229.77 42.1475 230.003C42.3804 230.236 42.3804 230.586 42.1475 230.819Z" fill="#2E5A88"/>
</g>
</g>
<g filter="url(#filter3_d_423_6398)">
<rect x="308.519" y="61.2793" width="37.6395" height="37.256" rx="8.50219" fill="white"/>
<path d="M329.409 87.5315C328.512 87.7988 327.565 87.853 326.644 87.6896C325.723 87.5263 324.852 87.15 324.102 86.5907C323.352 86.0315 322.743 85.3047 322.323 84.4683C321.904 83.632 321.685 82.7091 321.686 81.7735V79.1459C321.686 78.2498 322.042 77.3905 322.676 76.7569C323.309 76.1232 324.169 75.7671 325.065 75.7666H330.32C331.216 75.7671 332.075 76.1232 332.709 76.7569C333.343 77.3905 333.699 78.2498 333.699 79.1459V81.7735C333.701 83.3457 333.085 84.8556 331.983 85.9774" stroke="#2E5A88" stroke-width="1.18817" stroke-linecap="round"/>
<path d="M324.474 75.3377C324.474 75.167 324.406 75.0033 324.286 74.8826C324.165 74.7619 324.001 74.6941 323.831 74.6941C323.66 74.6941 323.496 74.7619 323.376 74.8826C323.255 75.0033 323.187 75.167 323.187 75.3377H324.474ZM323.946 72.8345C323.896 72.9046 323.861 72.9841 323.842 73.0681C323.824 73.1522 323.822 73.2391 323.837 73.3238C323.853 73.4085 323.885 73.4892 323.933 73.5612C323.98 73.6332 324.041 73.695 324.113 73.7429C324.184 73.7907 324.265 73.8238 324.349 73.84C324.434 73.8563 324.521 73.8554 324.605 73.8374C324.689 73.8195 324.769 73.7848 324.839 73.7355C324.91 73.6861 324.97 73.6231 325.016 73.5502L323.946 72.8345ZM332.197 76.1958V75.3377H330.91V76.1958H332.197ZM323.187 75.3377V76.1958H324.474V75.3377H323.187ZM332.197 75.3377C332.197 72.8491 330.181 70.8325 327.692 70.8325V72.1197C328.546 72.1197 329.364 72.4587 329.968 73.0622C330.571 73.6657 330.91 74.4842 330.91 75.3377H332.197ZM327.692 70.8325C326.951 70.8325 326.222 71.0152 325.569 71.3644C324.915 71.7136 324.358 72.2186 323.946 72.8345L325.016 73.5502C325.31 73.11 325.708 72.7491 326.175 72.4996C326.642 72.2501 327.163 72.1196 327.692 72.1197V70.8325Z" fill="#2E5A88"/>
<path d="M333.699 80.9151H336.274M321.686 80.9151H319.111M329.838 71.9049L331.983 70.6177M325.547 71.9049L323.402 70.6177M334.987 86.0639L333.27 85.3774M334.987 75.7664L333.27 76.4529M320.399 86.0639L322.115 85.3774M320.399 75.7664L322.115 76.4529M327.693 87.3511V81.7733" stroke="#2E5A88" stroke-width="1.18817" stroke-linecap="round"/>
</g>
<g filter="url(#filter4_d_423_6398)">
<rect x="308.519" y="254.555" width="37.6395" height="37.256" rx="8.50219" fill="white"/>
<g clip-path="url(#clip2_423_6398)">
<path fill-rule="evenodd" clip-rule="evenodd" d="M333.022 283.069C333.239 283.201 333.507 283.201 333.724 283.069C333.724 283.069 334.994 282.288 336.16 281.57C337.543 280.719 338.386 279.21 338.386 277.585V271.806C338.386 271.463 338.125 271.175 337.784 271.141C336.183 270.982 334.783 270.641 333.757 269.922C333.527 269.761 333.219 269.761 332.989 269.922C331.963 270.641 330.563 270.982 328.962 271.141C328.621 271.175 328.36 271.463 328.36 271.806V277.585C328.36 279.21 329.203 280.719 330.586 281.57C331.752 282.288 333.022 283.069 333.022 283.069ZM327.024 281.831C327.435 281.831 327.839 281.807 328.237 281.759C328.601 281.714 328.865 281.381 328.818 281.015C328.802 280.857 328.728 280.718 328.621 280.615C328.611 280.59 328.598 280.565 328.584 280.54C328.397 280.222 327.986 280.116 327.669 280.303C327.461 280.425 327.248 280.495 327.024 280.495C326.335 280.495 325.751 279.904 325.233 279.019C324.745 278.185 324.35 277.087 324.08 275.816H327.024C327.391 275.816 327.692 275.517 327.692 275.148C327.692 274.779 327.391 274.48 327.024 274.48H323.852C323.742 273.635 323.682 272.737 323.682 271.806C323.682 270.876 323.742 269.977 323.852 269.133H330.195C330.212 269.257 330.225 269.383 330.238 269.51C330.282 269.877 330.613 270.141 330.977 270.1C331.345 270.059 331.609 269.728 331.568 269.361C331.558 269.285 331.552 269.208 331.542 269.133H335.291C335.351 269.311 335.401 269.491 335.448 269.673C335.538 270.031 335.903 270.248 336.26 270.157C336.618 270.067 336.835 269.703 336.745 269.345C335.645 265 331.709 261.781 327.024 261.781C321.49 261.781 316.999 266.273 316.999 271.806C316.999 277.339 321.49 281.831 327.024 281.831ZM333.373 281.715L331.288 280.432C330.299 279.823 329.697 278.746 329.697 277.585V272.401C331.114 272.212 332.37 271.856 333.373 271.263C334.379 271.856 335.632 272.212 337.049 272.401V277.585C337.049 278.746 336.447 279.823 335.458 280.432L333.373 281.715ZM322.72 275.816H319.314C320.357 277.809 322.145 279.349 324.31 280.062C324.23 279.945 324.153 279.822 324.08 279.694C323.498 278.699 323.024 277.365 322.72 275.816ZM330.897 276.957L332.233 278.294C332.494 278.555 332.915 278.555 333.176 278.294L335.849 275.62C336.11 275.36 336.11 274.936 335.849 274.675C335.589 274.414 335.167 274.414 334.907 274.675L332.705 276.876L331.839 276.012C331.578 275.751 331.157 275.751 330.897 276.012C330.636 276.273 330.636 276.696 330.897 276.957ZM322.509 269.133H318.756C318.482 269.975 318.335 270.874 318.335 271.806C318.335 272.739 318.482 273.637 318.756 274.48H322.509C322.402 273.63 322.345 272.734 322.345 271.806C322.345 270.879 322.402 269.982 322.509 269.133ZM324.31 263.551C322.145 264.263 320.354 265.803 319.314 267.796H322.72C323.024 266.248 323.498 264.913 324.08 263.918C324.153 263.79 324.23 263.668 324.31 263.551ZM329.964 267.796C329.644 266.277 329.146 265.005 328.524 264.143C328.073 263.522 327.582 263.118 327.024 263.118C326.335 263.118 325.751 263.708 325.233 264.593C324.745 265.427 324.35 266.525 324.08 267.796H329.964ZM329.737 263.551C330.426 264.579 330.984 266.052 331.328 267.796H334.733C333.694 265.803 331.903 264.263 329.737 263.551Z" fill="#2E5A88"/>
</g>
</g>
<g filter="url(#filter5_d_423_6398)">
<rect x="216.633" y="100.885" width="37.6395" height="37.256" rx="8.50219" fill="white"/>
<g clip-path="url(#clip3_423_6398)">
<path d="M246.955 112.276L242.509 107.973C242.384 107.852 242.214 107.784 242.037 107.784H231.811C230.708 107.784 229.81 108.653 229.81 109.72V118.232C226.813 118.554 224.475 121.02 224.475 124.005C224.475 127.208 227.168 129.813 230.477 129.813H245.149C246.252 129.813 247.15 128.945 247.15 127.877V112.732C247.15 112.561 247.08 112.397 246.955 112.276ZM242.704 109.987L244.153 111.39L244.873 112.087H242.704V109.987ZM225.809 124.005C225.809 121.514 227.903 119.487 230.477 119.487C233.051 119.487 235.146 121.514 235.146 124.005C235.146 126.496 233.051 128.523 230.477 128.523C227.903 128.523 225.809 126.496 225.809 124.005ZM245.149 128.523H234.245C235.444 127.584 236.263 126.209 236.442 124.65H243.371C243.739 124.65 244.038 124.361 244.038 124.005C244.038 123.648 243.739 123.359 243.371 123.359H236.442C236.333 122.412 235.988 121.533 235.465 120.778H243.371C243.739 120.778 244.038 120.489 244.038 120.132C244.038 119.776 243.739 119.487 243.371 119.487H234.245C233.377 118.808 232.311 118.358 231.144 118.232V109.72C231.144 109.364 231.443 109.075 231.811 109.075H241.37V112.732C241.37 113.088 241.669 113.377 242.037 113.377H245.816V127.877C245.816 128.233 245.517 128.523 245.149 128.523Z" fill="#2E5A88"/>
<path d="M243.371 115.615H233.59C233.221 115.615 232.923 115.903 232.923 116.26C232.923 116.616 233.221 116.905 233.59 116.905H243.371C243.739 116.905 244.038 116.616 244.038 116.26C244.038 115.903 243.739 115.615 243.371 115.615Z" fill="#2E5A88"/>
<path d="M233.127 122.387C232.867 122.135 232.445 122.135 232.184 122.387L229.544 124.942L228.681 124.108C228.421 123.856 227.999 123.856 227.738 124.108C227.478 124.36 227.478 124.768 227.738 125.02L229.072 126.311C229.202 126.437 229.373 126.5 229.544 126.5C229.714 126.5 229.885 126.437 230.015 126.311L233.127 123.299C233.388 123.047 233.388 122.639 233.127 122.387Z" fill="#2E5A88"/>
</g>
</g>
<g filter="url(#filter6_d_423_6398)">
<rect x="216.633" y="353.569" width="37.6395" height="37.256" rx="8.50219" fill="white"/>
<path d="M244.318 366.872C244.231 366.662 244.065 366.495 243.855 366.408C243.752 366.364 243.641 366.341 243.529 366.34H239.238C239.011 366.34 238.793 366.43 238.632 366.591C238.471 366.752 238.38 366.97 238.38 367.198C238.38 367.425 238.471 367.644 238.632 367.805C238.793 367.965 239.011 368.056 239.238 368.056H241.461L236.664 372.853L233.841 370.021C233.761 369.941 233.666 369.877 233.562 369.833C233.457 369.79 233.345 369.767 233.232 369.767C233.118 369.767 233.006 369.79 232.902 369.833C232.797 369.877 232.702 369.941 232.622 370.021L227.474 375.17C227.393 375.249 227.329 375.344 227.286 375.449C227.242 375.554 227.22 375.666 227.22 375.779C227.22 375.892 227.242 376.004 227.286 376.109C227.329 376.214 227.393 376.308 227.474 376.388C227.553 376.469 227.648 376.532 227.753 376.576C227.857 376.62 227.97 376.642 228.083 376.642C228.196 376.642 228.308 376.62 228.413 376.576C228.517 376.532 228.612 376.469 228.692 376.388L233.232 371.84L236.055 374.672C236.135 374.752 236.229 374.816 236.334 374.86C236.439 374.903 236.551 374.926 236.664 374.926C236.777 374.926 236.889 374.903 236.994 374.86C237.099 374.816 237.194 374.752 237.273 374.672L242.671 369.266V371.488C242.671 371.716 242.761 371.934 242.922 372.095C243.083 372.256 243.301 372.346 243.529 372.346C243.757 372.346 243.975 372.256 244.136 372.095C244.297 371.934 244.387 371.716 244.387 371.488V367.198C244.386 367.086 244.362 366.975 244.318 366.872Z" fill="#2E5A88"/>
</g>
<g filter="url(#filter7_d_423_6398)">
<rect x="153.265" y="12.9602" width="37.6395" height="37.256" rx="8.50219" fill="white"/>
<path d="M163.255 31.2011C163.178 30.9936 163.178 30.7654 163.255 30.5579C164.005 28.7391 165.278 27.1839 166.913 26.0896C168.548 24.9953 170.472 24.4111 172.439 24.4111C174.406 24.4111 176.33 24.9953 177.965 26.0896C179.6 27.1839 180.873 28.7391 181.623 30.5579C181.7 30.7654 181.7 30.9936 181.623 31.2011C180.873 33.0199 179.6 34.5751 177.965 35.6694C176.33 36.7637 174.406 37.3478 172.439 37.3478C170.472 37.3478 168.548 36.7637 166.913 35.6694C165.278 34.5751 164.005 33.0199 163.255 31.2011Z" stroke="#2E5A88" stroke-width="1.58423" stroke-linecap="round" stroke-linejoin="round"/>
<path d="M172.439 33.652C173.971 33.652 175.212 32.4107 175.212 30.8796C175.212 29.3484 173.971 28.1072 172.439 28.1072C170.908 28.1072 169.667 29.3484 169.667 30.8796C169.667 32.4107 170.908 33.652 172.439 33.652Z" stroke="#2E5A88" stroke-width="1.58423" stroke-linecap="round" stroke-linejoin="round"/>
</g>
<g filter="url(#filter8_d_423_6398)">
<rect x="360.006" y="160.293" width="37.6395" height="37.256" rx="8.50219" fill="white"/>
<path d="M385.159 170.634C383.473 169.795 381.409 169.302 379.181 169.302C376.953 169.302 374.889 169.795 373.202 170.634C372.375 171.045 371.962 171.251 371.562 171.898C371.162 172.545 371.161 173.172 371.161 174.424V177.534C371.161 182.598 375.208 185.414 377.553 186.62C378.207 186.956 378.533 187.124 379.181 187.124C379.829 187.124 380.155 186.956 380.809 186.62C383.153 185.413 387.201 182.597 387.201 177.533V174.424C387.201 173.172 387.201 172.545 386.8 171.898C386.399 171.251 385.986 171.045 385.159 170.634Z" stroke="#2E5A88" stroke-width="1.18817" stroke-linecap="round" stroke-linejoin="round"/>
<path d="M379.181 175.539V176.43M378.29 175.985C378.29 176.221 378.383 176.448 378.551 176.615C378.718 176.782 378.944 176.876 379.181 176.876C379.417 176.876 379.644 176.782 379.811 176.615C379.978 176.448 380.072 176.221 380.072 175.985C380.072 175.749 379.978 175.522 379.811 175.355C379.644 175.188 379.417 175.094 379.181 175.094C378.944 175.094 378.718 175.188 378.551 175.355C378.383 175.522 378.29 175.749 378.29 175.985Z" stroke="#2E5A88" stroke-width="1.18817" stroke-linecap="round" stroke-linejoin="round"/>
<path d="M379.848 179.995H378.512L379.18 176.876L379.848 179.995Z" stroke="#2E5A88" stroke-width="1.18817" stroke-linecap="round" stroke-linejoin="round"/>
</g>
<g filter="url(#filter9_i_423_6398)">
<circle cx="125.711" cy="91.3805" r="5.13" fill="white"/>
</g>
<g filter="url(#filter10_i_423_6398)">
<circle cx="232.646" cy="298.914" r="5.13" fill="white"/>
</g>
<g filter="url(#filter11_i_423_6398)">
<circle cx="57.5885" cy="310.796" r="5.13" fill="white"/>
</g>
<g filter="url(#filter12_i_423_6398)">
<circle cx="298.391" cy="213.366" r="5.13" fill="white"/>
</g>
<g filter="url(#filter13_i_423_6398)">
<circle cx="284.925" cy="97.7176" r="5.13" fill="white"/>
</g>
<g filter="url(#filter14_i_423_6398)">
<circle cx="106.7" cy="211.782" r="5.13" fill="white"/>
</g>
<g filter="url(#filter15_d_423_6398)">
<mask id="path-40-inside-1_423_6398" fill="white">
<path fill-rule="evenodd" clip-rule="evenodd" d="M197.168 161.366C201.02 159.813 205.31 159.737 209.215 161.153L239.745 172.224C244.17 173.828 247.135 178.01 247.184 182.716L247.481 211.135L247.484 212.026C247.461 216.482 246.888 220.947 245.081 225.017L244.675 225.911C235.987 244.62 217.539 258.72 206.72 264.925L206.43 265.079C204.961 265.801 203.233 265.776 201.764 265.023C178.649 253.171 167.5 235.617 163.436 224.64L163.065 223.598C162.079 220.72 161.841 217.664 161.809 214.622L161.486 183.611C161.436 178.892 164.284 174.625 168.661 172.86L197.168 161.366Z"/>
</mask>
<path fill-rule="evenodd" clip-rule="evenodd" d="M197.168 161.366C201.02 159.813 205.31 159.737 209.215 161.153L239.745 172.224C244.17 173.828 247.135 178.01 247.184 182.716L247.481 211.135L247.484 212.026C247.461 216.482 246.888 220.947 245.081 225.017L244.675 225.911C235.987 244.62 217.539 258.72 206.72 264.925L206.43 265.079C204.961 265.801 203.233 265.776 201.764 265.023C178.649 253.171 167.5 235.617 163.436 224.64L163.065 223.598C162.079 220.72 161.841 217.664 161.809 214.622L161.486 183.611C161.436 178.892 164.284 174.625 168.661 172.86L197.168 161.366Z" fill="#F5F9FC"/>
<path d="M197.168 161.366L197.604 162.448L197.604 162.448L197.168 161.366ZM209.215 161.153L209.613 160.056L209.612 160.056L209.215 161.153ZM239.745 172.224L239.348 173.321L239.348 173.321L239.745 172.224ZM247.184 182.716L246.018 182.728L246.018 182.728L247.184 182.716ZM247.481 211.135L248.648 211.132L248.648 211.123L247.481 211.135ZM247.484 212.026L248.651 212.032L248.651 212.022L247.484 212.026ZM245.081 225.017L246.143 225.499L246.147 225.49L245.081 225.017ZM244.675 225.911L245.733 226.402L245.737 226.393L244.675 225.911ZM206.72 264.925L207.268 265.955L207.284 265.946L207.301 265.937L206.72 264.925ZM206.43 265.079L206.944 266.126L206.961 266.118L206.977 266.11L206.43 265.079ZM201.764 265.023L201.232 266.062V266.062L201.764 265.023ZM163.436 224.64L162.337 225.031L162.342 225.045L163.436 224.64ZM163.065 223.598L161.961 223.976L161.964 223.983L161.966 223.99L163.065 223.598ZM161.809 214.622L160.643 214.634L160.643 214.634L161.809 214.622ZM161.486 183.611L162.652 183.599L162.652 183.599L161.486 183.611ZM168.661 172.86L168.225 171.778L168.225 171.778L168.661 172.86ZM197.168 161.366L197.604 162.448C201.189 161.003 205.183 160.932 208.817 162.25L209.215 161.153L209.612 160.056C205.438 158.542 200.85 158.623 196.732 160.284L197.168 161.366ZM209.215 161.153L208.817 162.25L239.348 173.321L239.745 172.224L240.143 171.127L209.613 160.056L209.215 161.153ZM239.745 172.224L239.348 173.321C243.315 174.759 245.973 178.508 246.018 182.728L247.184 182.716L248.351 182.704C248.297 177.511 245.025 172.897 240.143 171.127L239.745 172.224ZM247.184 182.716L246.018 182.728L246.315 211.147L247.481 211.135L248.648 211.123L248.351 182.704L247.184 182.716ZM247.481 211.135L246.315 211.139L246.317 212.029L247.484 212.026L248.651 212.022L248.648 211.132L247.481 211.135ZM247.484 212.026L246.317 212.02C246.294 216.389 245.732 220.676 244.015 224.543L245.081 225.017L246.147 225.49C248.045 221.218 248.627 216.574 248.651 212.032L247.484 212.026ZM245.081 225.017L244.019 224.534L243.613 225.428L244.675 225.911L245.737 226.393L246.143 225.499L245.081 225.017ZM244.675 225.911L243.617 225.419C235.075 243.815 216.864 257.762 206.14 263.913L206.72 264.925L207.301 265.937C218.213 259.678 236.9 245.426 245.733 226.402L244.675 225.911ZM206.72 264.925L206.173 263.894L205.882 264.049L206.43 265.079L206.977 266.11L207.268 265.955L206.72 264.925ZM206.43 265.079L205.915 264.032C204.784 264.588 203.443 264.573 202.297 263.985L201.764 265.023L201.232 266.062C203.022 266.98 205.139 267.013 206.944 266.126L206.43 265.079ZM201.764 265.023L202.297 263.985C179.469 252.28 168.504 234.968 164.531 224.234L163.436 224.64L162.342 225.045C166.495 236.265 177.829 254.062 201.232 266.062L201.764 265.023ZM163.436 224.64L164.536 224.248L164.164 223.206L163.065 223.598L161.966 223.99L162.337 225.031L163.436 224.64ZM163.065 223.598L164.169 223.22C163.244 220.519 163.008 217.612 162.976 214.61L161.809 214.622L160.643 214.634C160.675 217.717 160.915 220.921 161.961 223.976L163.065 223.598ZM161.809 214.622L162.976 214.61L162.652 183.599L161.486 183.611L160.319 183.624L160.643 214.634L161.809 214.622ZM161.486 183.611L162.652 183.599C162.608 179.361 165.166 175.527 169.097 173.942L168.661 172.86L168.225 171.778C163.402 173.722 160.265 178.424 160.319 183.624L161.486 183.611ZM168.661 172.86L169.097 173.942L197.604 162.448L197.168 161.366L196.732 160.284L168.225 171.778L168.661 172.86Z" fill="#2E5A88" fill-opacity="0.13" mask="url(#path-40-inside-1_423_6398)"/>
<mask id="path-42-inside-2_423_6398" fill="white">
<path fill-rule="evenodd" clip-rule="evenodd" d="M197.237 168.342C201.088 166.789 205.378 166.712 209.283 168.128L234.751 177.363C238.563 178.745 241.117 182.348 241.16 186.403L241.405 209.899L241.408 210.79C241.386 215.247 240.823 219.72 238.936 223.753L238.583 224.494C231.029 239.994 215.815 251.705 206.624 257.046C205.197 257.875 203.475 257.948 201.978 257.286L201.681 257.144C181.783 246.824 172.276 231.602 168.889 222.221C167.856 219.36 167.624 216.305 167.592 213.263L167.319 187.175C167.277 183.109 169.731 179.433 173.502 177.912L197.237 168.342Z"/>
</mask>
<path d="M197.237 168.342L197.673 169.424L197.673 169.424L197.237 168.342ZM209.283 168.128L209.68 167.031L209.68 167.031L209.283 168.128ZM234.751 177.363L235.149 176.266L235.149 176.266L234.751 177.363ZM241.16 186.403L242.327 186.391L242.327 186.391L241.16 186.403ZM241.405 209.899L242.572 209.896L242.572 209.887L241.405 209.899ZM241.408 210.79L242.575 210.795L242.574 210.786L241.408 210.79ZM238.936 223.753L239.989 224.255L239.993 224.248L238.936 223.753ZM238.583 224.494L239.632 225.006L239.636 224.997L238.583 224.494ZM206.624 257.046L207.21 258.055L207.21 258.055L206.624 257.046ZM201.978 257.286L201.475 258.339L201.491 258.347L201.506 258.354L201.978 257.286ZM201.681 257.144L201.144 258.18L201.161 258.189L201.178 258.197L201.681 257.144ZM168.889 222.221L167.792 222.617L167.792 222.617L168.889 222.221ZM167.592 213.263L166.425 213.275L166.425 213.275L167.592 213.263ZM167.319 187.175L166.153 187.187L166.153 187.187L167.319 187.175ZM173.502 177.912L173.065 176.83L173.065 176.83L173.502 177.912ZM197.237 168.342L197.673 169.424C201.258 167.979 205.251 167.907 208.885 169.225L209.283 168.128L209.68 167.031C205.505 165.517 200.918 165.599 196.8 167.26L197.237 168.342ZM209.283 168.128L208.885 169.225L234.353 178.46L234.751 177.363L235.149 176.266L209.68 167.031L209.283 168.128ZM234.751 177.363L234.353 178.46C237.708 179.676 239.956 182.847 239.993 186.415L241.16 186.403L242.327 186.391C242.279 181.849 239.418 177.814 235.149 176.266L234.751 177.363ZM241.16 186.403L239.993 186.415L240.238 209.911L241.405 209.899L242.572 209.887L242.327 186.391L241.16 186.403ZM241.405 209.899L240.238 209.903L240.241 210.793L241.408 210.79L242.574 210.786L242.572 209.896L241.405 209.899ZM241.408 210.79L240.241 210.784C240.219 215.159 239.665 219.441 237.879 223.259L238.936 223.753L239.993 224.248C241.981 219.998 242.552 215.335 242.574 210.795L241.408 210.79ZM238.936 223.753L237.883 223.251L237.53 223.992L238.583 224.494L239.636 224.997L239.989 224.255L238.936 223.753ZM238.583 224.494L237.534 223.983C230.125 239.186 215.135 250.75 206.038 256.037L206.624 257.046L207.21 258.055C216.495 252.659 231.934 240.802 239.632 225.006L238.583 224.494ZM206.624 257.046L206.038 256.037C204.943 256.673 203.615 256.734 202.45 256.219L201.978 257.286L201.506 258.354C203.336 259.162 205.452 259.077 207.21 258.055L206.624 257.046ZM201.978 257.286L202.481 256.233L202.184 256.092L201.681 257.144L201.178 258.197L201.475 258.339L201.978 257.286ZM201.681 257.144L202.218 256.109C182.608 245.937 173.284 230.96 169.987 221.825L168.889 222.221L167.792 222.617C171.267 232.245 180.958 247.711 201.144 258.18L201.681 257.144ZM168.889 222.221L169.987 221.825C169.022 219.152 168.79 216.256 168.759 213.251L167.592 213.263L166.425 213.275C166.457 216.354 166.691 219.568 167.792 222.617L168.889 222.221ZM167.592 213.263L168.759 213.251L168.486 187.163L167.319 187.175L166.153 187.187L166.425 213.275L167.592 213.263ZM167.319 187.175L168.486 187.163C168.449 183.577 170.613 180.335 173.938 178.994L173.502 177.912L173.065 176.83C168.849 178.53 166.105 182.641 166.153 187.187L167.319 187.175ZM173.502 177.912L173.938 178.994L197.673 169.424L197.237 168.342L196.8 167.26L173.065 176.83L173.502 177.912Z" fill="#2E5A88" mask="url(#path-42-inside-2_423_6398)"/>
<g filter="url(#filter16_d_423_6398)">
<path fill-rule="evenodd" clip-rule="evenodd" d="M198.149 175.271C201.416 173.954 205.055 173.889 208.367 175.09L229.97 182.923C233.204 184.096 235.371 187.152 235.407 190.591L235.616 210.522L235.618 211.278C235.599 215.059 235.122 218.854 233.521 222.276L233.221 222.903C226.814 236.051 213.908 245.985 206.112 250.515L205.867 250.648C204.708 251.225 203.355 251.244 202.17 250.72L201.918 250.6C185.567 242.118 177.488 229.735 174.388 221.735L174.103 220.975C173.336 218.851 173.089 216.602 173.021 214.344L173.003 213.376L172.771 191.247C172.735 187.798 174.817 184.679 178.016 183.389L198.149 175.271Z" fill="url(#paint0_linear_423_6398)"/>
</g>
<path d="M217.646 212.752L215.568 210.975C215.666 210.372 215.717 209.757 215.717 209.141C215.717 208.525 215.666 207.91 215.568 207.307L217.646 205.53C217.803 205.396 217.915 205.217 217.968 205.017C218.021 204.818 218.011 204.607 217.941 204.413L217.913 204.33C217.341 202.731 216.484 201.248 215.384 199.954L215.327 199.888C215.193 199.731 215.015 199.618 214.816 199.564C214.618 199.51 214.407 199.518 214.213 199.586L211.633 200.503C210.681 199.723 209.618 199.107 208.469 198.675L207.971 195.978C207.933 195.775 207.835 195.588 207.689 195.443C207.542 195.297 207.355 195.199 207.152 195.162L207.066 195.147C205.413 194.848 203.674 194.848 202.021 195.147L201.935 195.162C201.732 195.199 201.545 195.297 201.399 195.443C201.252 195.588 201.154 195.775 201.116 195.978L200.615 198.688C199.475 199.12 198.414 199.735 197.473 200.51L194.874 199.586C194.68 199.517 194.469 199.509 194.271 199.563C194.072 199.617 193.894 199.73 193.761 199.888L193.703 199.954C192.605 201.249 191.748 202.732 191.174 204.33L191.146 204.413C191.003 204.809 191.12 205.254 191.441 205.53L193.545 207.326C193.446 207.922 193.399 208.532 193.399 209.138C193.399 209.747 193.446 210.356 193.545 210.95L191.441 212.746C191.284 212.88 191.172 213.059 191.119 213.258C191.066 213.458 191.076 213.669 191.146 213.863L191.174 213.945C191.749 215.545 192.599 217.02 193.703 218.321L193.761 218.388C193.894 218.545 194.072 218.658 194.271 218.712C194.47 218.765 194.68 218.758 194.874 218.69L197.473 217.766C198.419 218.544 199.476 219.159 200.615 219.588L201.116 222.298C201.154 222.501 201.252 222.687 201.399 222.833C201.545 222.979 201.732 223.076 201.935 223.113L202.021 223.129C203.689 223.429 205.398 223.429 207.066 223.129L207.152 223.113C207.355 223.076 207.542 222.979 207.689 222.833C207.835 222.687 207.933 222.501 207.971 222.298L208.469 219.6C209.617 219.17 210.686 218.552 211.633 217.772L214.213 218.69C214.407 218.758 214.618 218.766 214.817 218.712C215.016 218.659 215.193 218.545 215.327 218.388L215.384 218.321C216.488 217.017 217.338 215.545 217.913 213.945L217.941 213.863C218.084 213.473 217.967 213.028 217.646 212.752ZM213.315 207.681C213.394 208.16 213.435 208.652 213.435 209.144C213.435 209.636 213.394 210.128 213.315 210.607L213.105 211.88L215.476 213.907C215.116 214.735 214.663 215.519 214.124 216.243L211.179 215.199L210.183 216.018C209.424 216.64 208.58 217.128 207.666 217.471L206.457 217.925L205.889 221.003C204.993 221.104 204.088 221.104 203.192 221.003L202.624 217.918L201.424 217.458C200.52 217.116 199.679 216.627 198.927 216.008L197.93 215.186L194.966 216.24C194.427 215.513 193.976 214.729 193.615 213.904L196.01 211.857L195.804 210.588C195.728 210.115 195.687 209.627 195.687 209.144C195.687 208.659 195.725 208.173 195.804 207.7L196.01 206.431L193.615 204.384C193.973 203.556 194.427 202.775 194.966 202.049L197.93 203.102L198.927 202.28C199.679 201.661 200.52 201.173 201.424 200.83L202.627 200.376L203.195 197.292C204.087 197.19 204.997 197.19 205.892 197.292L206.46 200.37L207.669 200.824C208.58 201.166 209.427 201.655 210.186 202.277L211.182 203.096L214.127 202.052C214.667 202.778 215.117 203.562 215.479 204.387L213.108 206.415L213.315 207.681ZM204.547 203.242C201.462 203.242 198.962 205.742 198.962 208.827C198.962 211.911 201.462 214.412 204.547 214.412C207.631 214.412 210.132 211.911 210.132 208.827C210.132 205.742 207.631 203.242 204.547 203.242ZM207.06 211.34C206.73 211.671 206.339 211.933 205.907 212.111C205.476 212.29 205.014 212.382 204.547 212.381C203.598 212.381 202.706 212.01 202.033 211.34C201.703 211.01 201.441 210.619 201.262 210.187C201.083 209.756 200.992 209.294 200.993 208.827C200.993 207.878 201.364 206.986 202.033 206.314C202.706 205.641 203.598 205.273 204.547 205.273C205.496 205.273 206.387 205.641 207.06 206.314C207.391 206.643 207.653 207.035 207.831 207.466C208.01 207.898 208.102 208.36 208.101 208.827C208.101 209.776 207.73 210.667 207.06 211.34Z" fill="white"/>
</g>
<defs>
<filter id="filter0_d_423_6398" x="49.111" y="92.6776" width="66.9304" height="66.5469" filterUnits="userSpaceOnUse" color-interpolation-filters="sRGB">
<feFlood flood-opacity="0" result="BackgroundImageFix"/>
<feColorMatrix in="SourceAlpha" type="matrix" values="0 0 0 0 0 0 0 0 0 0 0 0 0 0 0 0 0 0 127 0" result="hardAlpha"/>
<feOffset dy="1.68524"/>
<feGaussianBlur stdDeviation="7.32269"/>
<feColorMatrix type="matrix" values="0 0 0 0 0.392157 0 0 0 0 0.392157 0 0 0 0 0.435294 0 0 0 0.1 0"/>
<feBlend mode="normal" in2="BackgroundImageFix" result="effect1_dropShadow_423_6398"/>
<feBlend mode="normal" in="SourceGraphic" in2="effect1_dropShadow_423_6398" result="shape"/>
</filter>
<filter id="filter1_d_423_6398" x="89.5084" y="291.498" width="66.9304" height="66.5469" filterUnits="userSpaceOnUse" color-interpolation-filters="sRGB">
<feFlood flood-opacity="0" result="BackgroundImageFix"/>
<feColorMatrix in="SourceAlpha" type="matrix" values="0 0 0 0 0 0 0 0 0 0 0 0 0 0 0 0 0 0 127 0" result="hardAlpha"/>
<feOffset dy="1.68524"/>
<feGaussianBlur stdDeviation="7.32269"/>
<feColorMatrix type="matrix" values="0 0 0 0 0.392157 0 0 0 0 0.392157 0 0 0 0 0.435294 0 0 0 0.1 0"/>
<feBlend mode="normal" in2="BackgroundImageFix" result="effect1_dropShadow_423_6398"/>
<feBlend mode="normal" in="SourceGraphic" in2="effect1_dropShadow_423_6398" result="shape"/>
</filter>
<filter id="filter2_d_423_6398" x="0.000133514" y="204.366" width="66.9304" height="66.5469" filterUnits="userSpaceOnUse" color-interpolation-filters="sRGB">
<feFlood flood-opacity="0" result="BackgroundImageFix"/>
<feColorMatrix in="SourceAlpha" type="matrix" values="0 0 0 0 0 0 0 0 0 0 0 0 0 0 0 0 0 0 127 0" result="hardAlpha"/>
<feOffset dy="1.68524"/>
<feGaussianBlur stdDeviation="7.32269"/>
<feColorMatrix type="matrix" values="0 0 0 0 0.392157 0 0 0 0 0.392157 0 0 0 0 0.435294 0 0 0 0.1 0"/>
<feBlend mode="normal" in2="BackgroundImageFix" result="effect1_dropShadow_423_6398"/>
<feBlend mode="normal" in="SourceGraphic" in2="effect1_dropShadow_423_6398" result="shape"/>
</filter>
<filter id="filter3_d_423_6398" x="293.873" y="48.3192" width="66.9304" height="66.5469" filterUnits="userSpaceOnUse" color-interpolation-filters="sRGB">
<feFlood flood-opacity="0" result="BackgroundImageFix"/>
<feColorMatrix in="SourceAlpha" type="matrix" values="0 0 0 0 0 0 0 0 0 0 0 0 0 0 0 0 0 0 127 0" result="hardAlpha"/>
<feOffset dy="1.68524"/>
<feGaussianBlur stdDeviation="7.32269"/>
<feColorMatrix type="matrix" values="0 0 0 0 0.392157 0 0 0 0 0.392157 0 0 0 0 0.435294 0 0 0 0.1 0"/>
<feBlend mode="normal" in2="BackgroundImageFix" result="effect1_dropShadow_423_6398"/>
<feBlend mode="normal" in="SourceGraphic" in2="effect1_dropShadow_423_6398" result="shape"/>
</filter>
<filter id="filter4_d_423_6398" x="293.873" y="241.595" width="66.9304" height="66.5469" filterUnits="userSpaceOnUse" color-interpolation-filters="sRGB">
<feFlood flood-opacity="0" result="BackgroundImageFix"/>
<feColorMatrix in="SourceAlpha" type="matrix" values="0 0 0 0 0 0 0 0 0 0 0 0 0 0 0 0 0 0 127 0" result="hardAlpha"/>
<feOffset dy="1.68524"/>
<feGaussianBlur stdDeviation="7.32269"/>
<feColorMatrix type="matrix" values="0 0 0 0 0.392157 0 0 0 0 0.392157 0 0 0 0 0.435294 0 0 0 0.1 0"/>
<feBlend mode="normal" in2="BackgroundImageFix" result="effect1_dropShadow_423_6398"/>
<feBlend mode="normal" in="SourceGraphic" in2="effect1_dropShadow_423_6398" result="shape"/>
</filter>
<filter id="filter5_d_423_6398" x="201.988" y="87.9246" width="66.9304" height="66.5469" filterUnits="userSpaceOnUse" color-interpolation-filters="sRGB">
<feFlood flood-opacity="0" result="BackgroundImageFix"/>
<feColorMatrix in="SourceAlpha" type="matrix" values="0 0 0 0 0 0 0 0 0 0 0 0 0 0 0 0 0 0 127 0" result="hardAlpha"/>
<feOffset dy="1.68524"/>
<feGaussianBlur stdDeviation="7.32269"/>
<feColorMatrix type="matrix" values="0 0 0 0 0.392157 0 0 0 0 0.392157 0 0 0 0 0.435294 0 0 0 0.1 0"/>
<feBlend mode="normal" in2="BackgroundImageFix" result="effect1_dropShadow_423_6398"/>
<feBlend mode="normal" in="SourceGraphic" in2="effect1_dropShadow_423_6398" result="shape"/>
</filter>
<filter id="filter6_d_423_6398" x="201.988" y="340.609" width="66.9304" height="66.5469" filterUnits="userSpaceOnUse" color-interpolation-filters="sRGB">
<feFlood flood-opacity="0" result="BackgroundImageFix"/>
<feColorMatrix in="SourceAlpha" type="matrix" values="0 0 0 0 0 0 0 0 0 0 0 0 0 0 0 0 0 0 127 0" result="hardAlpha"/>
<feOffset dy="1.68524"/>
<feGaussianBlur stdDeviation="7.32269"/>
<feColorMatrix type="matrix" values="0 0 0 0 0.392157 0 0 0 0 0.392157 0 0 0 0 0.435294 0 0 0 0.1 0"/>
<feBlend mode="normal" in2="BackgroundImageFix" result="effect1_dropShadow_423_6398"/>
<feBlend mode="normal" in="SourceGraphic" in2="effect1_dropShadow_423_6398" result="shape"/>
</filter>
<filter id="filter7_d_423_6398" x="138.62" y="7.15256e-05" width="66.9304" height="66.5469" filterUnits="userSpaceOnUse" color-interpolation-filters="sRGB">
<feFlood flood-opacity="0" result="BackgroundImageFix"/>
<feColorMatrix in="SourceAlpha" type="matrix" values="0 0 0 0 0 0 0 0 0 0 0 0 0 0 0 0 0 0 127 0" result="hardAlpha"/>
<feOffset dy="1.68524"/>
<feGaussianBlur stdDeviation="7.32269"/>
<feColorMatrix type="matrix" values="0 0 0 0 0.392157 0 0 0 0 0.392157 0 0 0 0 0.435294 0 0 0 0.1 0"/>
<feBlend mode="normal" in2="BackgroundImageFix" result="effect1_dropShadow_423_6398"/>
<feBlend mode="normal" in="SourceGraphic" in2="effect1_dropShadow_423_6398" result="shape"/>
</filter>
<filter id="filter8_d_423_6398" x="345.36" y="147.333" width="66.9304" height="66.5469" filterUnits="userSpaceOnUse" color-interpolation-filters="sRGB">
<feFlood flood-opacity="0" result="BackgroundImageFix"/>
<feColorMatrix in="SourceAlpha" type="matrix" values="0 0 0 0 0 0 0 0 0 0 0 0 0 0 0 0 0 0 127 0" result="hardAlpha"/>
<feOffset dy="1.68524"/>
<feGaussianBlur stdDeviation="7.32269"/>
<feColorMatrix type="matrix" values="0 0 0 0 0.392157 0 0 0 0 0.392157 0 0 0 0 0.435294 0 0 0 0.1 0"/>
<feBlend mode="normal" in2="BackgroundImageFix" result="effect1_dropShadow_423_6398"/>
<feBlend mode="normal" in="SourceGraphic" in2="effect1_dropShadow_423_6398" result="shape"/>
</filter>
<filter id="filter9_i_423_6398" x="120.581" y="86.2505" width="10.2598" height="10.26" filterUnits="userSpaceOnUse" color-interpolation-filters="sRGB">
<feFlood flood-opacity="0" result="BackgroundImageFix"/>
<feBlend mode="normal" in="SourceGraphic" in2="BackgroundImageFix" result="shape"/>
<feColorMatrix in="SourceAlpha" type="matrix" values="0 0 0 0 0 0 0 0 0 0 0 0 0 0 0 0 0 0 127 0" result="hardAlpha"/>
<feMorphology radius="0.627379" operator="erode" in="SourceAlpha" result="effect1_innerShadow_423_6398"/>
<feOffset/>
<feGaussianBlur stdDeviation="3.45058"/>
<feComposite in2="hardAlpha" operator="arithmetic" k2="-1" k3="1"/>
<feColorMatrix type="matrix" values="0 0 0 0 0.435294 0 0 0 0 0.564706 0 0 0 0 0.705882 0 0 0 0.64 0"/>
<feBlend mode="normal" in2="shape" result="effect1_innerShadow_423_6398"/>
</filter>
<filter id="filter10_i_423_6398" x="227.516" y="293.784" width="10.2598" height="10.26" filterUnits="userSpaceOnUse" color-interpolation-filters="sRGB">
<feFlood flood-opacity="0" result="BackgroundImageFix"/>
<feBlend mode="normal" in="SourceGraphic" in2="BackgroundImageFix" result="shape"/>
<feColorMatrix in="SourceAlpha" type="matrix" values="0 0 0 0 0 0 0 0 0 0 0 0 0 0 0 0 0 0 127 0" result="hardAlpha"/>
<feMorphology radius="0.627379" operator="erode" in="SourceAlpha" result="effect1_innerShadow_423_6398"/>
<feOffset/>
<feGaussianBlur stdDeviation="3.45058"/>
<feComposite in2="hardAlpha" operator="arithmetic" k2="-1" k3="1"/>
<feColorMatrix type="matrix" values="0 0 0 0 0.435294 0 0 0 0 0.564706 0 0 0 0 0.705882 0 0 0 0.64 0"/>
<feBlend mode="normal" in2="shape" result="effect1_innerShadow_423_6398"/>
</filter>
<filter id="filter11_i_423_6398" x="52.4585" y="305.666" width="10.2598" height="10.26" filterUnits="userSpaceOnUse" color-interpolation-filters="sRGB">
<feFlood flood-opacity="0" result="BackgroundImageFix"/>
<feBlend mode="normal" in="SourceGraphic" in2="BackgroundImageFix" result="shape"/>
<feColorMatrix in="SourceAlpha" type="matrix" values="0 0 0 0 0 0 0 0 0 0 0 0 0 0 0 0 0 0 127 0" result="hardAlpha"/>
<feMorphology radius="0.627379" operator="erode" in="SourceAlpha" result="effect1_innerShadow_423_6398"/>
<feOffset/>
<feGaussianBlur stdDeviation="3.45058"/>
<feComposite in2="hardAlpha" operator="arithmetic" k2="-1" k3="1"/>
<feColorMatrix type="matrix" values="0 0 0 0 0.435294 0 0 0 0 0.564706 0 0 0 0 0.705882 0 0 0 0.64 0"/>
<feBlend mode="normal" in2="shape" result="effect1_innerShadow_423_6398"/>
</filter>
<filter id="filter12_i_423_6398" x="293.261" y="208.236" width="10.2598" height="10.26" filterUnits="userSpaceOnUse" color-interpolation-filters="sRGB">
<feFlood flood-opacity="0" result="BackgroundImageFix"/>
<feBlend mode="normal" in="SourceGraphic" in2="BackgroundImageFix" result="shape"/>
<feColorMatrix in="SourceAlpha" type="matrix" values="0 0 0 0 0 0 0 0 0 0 0 0 0 0 0 0 0 0 127 0" result="hardAlpha"/>
<feMorphology radius="0.627379" operator="erode" in="SourceAlpha" result="effect1_innerShadow_423_6398"/>
<feOffset/>
<feGaussianBlur stdDeviation="3.45058"/>
<feComposite in2="hardAlpha" operator="arithmetic" k2="-1" k3="1"/>
<feColorMatrix type="matrix" values="0 0 0 0 0.435294 0 0 0 0 0.564706 0 0 0 0 0.705882 0 0 0 0.64 0"/>
<feBlend mode="normal" in2="shape" result="effect1_innerShadow_423_6398"/>
</filter>
<filter id="filter13_i_423_6398" x="279.795" y="92.5876" width="10.2598" height="10.26" filterUnits="userSpaceOnUse" color-interpolation-filters="sRGB">
<feFlood flood-opacity="0" result="BackgroundImageFix"/>
<feBlend mode="normal" in="SourceGraphic" in2="BackgroundImageFix" result="shape"/>
<feColorMatrix in="SourceAlpha" type="matrix" values="0 0 0 0 0 0 0 0 0 0 0 0 0 0 0 0 0 0 127 0" result="hardAlpha"/>
<feMorphology radius="0.627379" operator="erode" in="SourceAlpha" result="effect1_innerShadow_423_6398"/>
<feOffset/>
<feGaussianBlur stdDeviation="3.45058"/>
<feComposite in2="hardAlpha" operator="arithmetic" k2="-1" k3="1"/>
<feColorMatrix type="matrix" values="0 0 0 0 0.435294 0 0 0 0 0.564706 0 0 0 0 0.705882 0 0 0 0.64 0"/>
<feBlend mode="normal" in2="shape" result="effect1_innerShadow_423_6398"/>
</filter>
<filter id="filter14_i_423_6398" x="101.57" y="206.652" width="10.2598" height="10.26" filterUnits="userSpaceOnUse" color-interpolation-filters="sRGB">
<feFlood flood-opacity="0" result="BackgroundImageFix"/>
<feBlend mode="normal" in="SourceGraphic" in2="BackgroundImageFix" result="shape"/>
<feColorMatrix in="SourceAlpha" type="matrix" values="0 0 0 0 0 0 0 0 0 0 0 0 0 0 0 0 0 0 127 0" result="hardAlpha"/>
<feMorphology radius="0.627379" operator="erode" in="SourceAlpha" result="effect1_innerShadow_423_6398"/>
<feOffset/>
<feGaussianBlur stdDeviation="3.45058"/>
<feComposite in2="hardAlpha" operator="arithmetic" k2="-1" k3="1"/>
<feColorMatrix type="matrix" values="0 0 0 0 0.435294 0 0 0 0 0.564706 0 0 0 0 0.705882 0 0 0 0.64 0"/>
<feBlend mode="normal" in2="shape" result="effect1_innerShadow_423_6398"/>
</filter>
<filter id="filter15_d_423_6398" x="146.238" y="144.896" width="121.939" height="141.401" filterUnits="userSpaceOnUse" color-interpolation-filters="sRGB">
<feFlood flood-opacity="0" result="BackgroundImageFix"/>
<feColorMatrix in="SourceAlpha" type="matrix" values="0 0 0 0 0 0 0 0 0 0 0 0 0 0 0 0 0 0 127 0" result="hardAlpha"/>
<feOffset dx="2.7227" dy="2.7227"/>
<feGaussianBlur stdDeviation="8.98489"/>
<feComposite in2="hardAlpha" operator="out"/>
<feColorMatrix type="matrix" values="0 0 0 0 1 0 0 0 0 1 0 0 0 0 1 0 0 0 0.25 0"/>
<feBlend mode="normal" in2="BackgroundImageFix" result="effect1_dropShadow_423_6398"/>
<feBlend mode="normal" in="SourceGraphic" in2="effect1_dropShadow_423_6398" result="shape"/>
</filter>
<filter id="filter16_d_423_6398" x="148.266" y="152.453" width="111.856" height="125.872" filterUnits="userSpaceOnUse" color-interpolation-filters="sRGB">
<feFlood flood-opacity="0" result="BackgroundImageFix"/>
<feColorMatrix in="SourceAlpha" type="matrix" values="0 0 0 0 0 0 0 0 0 0 0 0 0 0 0 0 0 0 127 0" result="hardAlpha"/>
<feOffset dy="2.72269"/>
<feGaussianBlur stdDeviation="12.2521"/>
<feComposite in2="hardAlpha" operator="out"/>
<feColorMatrix type="matrix" values="0 0 0 0 0.496671 0 0 0 0 0.701064 0 0 0 0 0.924038 0 0 0 0.59 0"/>
<feBlend mode="normal" in2="BackgroundImageFix" result="effect1_dropShadow_423_6398"/>
<feBlend mode="normal" in="SourceGraphic" in2="effect1_dropShadow_423_6398" result="shape"/>
</filter>
<linearGradient id="paint0_linear_423_6398" x1="181.428" y1="236.07" x2="245.836" y2="208.031" gradientUnits="userSpaceOnUse">
<stop stop-color="#6F90B4"/>
<stop offset="0.567308" stop-color="#2E5A88"/>
<stop offset="1" stop-color="#87BBF3"/>
</linearGradient>
<clipPath id="clip0_423_6398">
<rect width="21.387" height="21.387" fill="white" transform="translate(112.634 311.684)"/>
</clipPath>
<clipPath id="clip1_423_6398">
<rect width="19.8028" height="19.8028" fill="white" transform="translate(23.9185 225.344)"/>
</clipPath>
<clipPath id="clip2_423_6398">
<rect width="21.387" height="21.387" fill="white" transform="translate(316.999 261.781)"/>
</clipPath>
<clipPath id="clip3_423_6398">
<rect width="22.7518" height="22.0409" fill="white" transform="translate(224.431 107.784)"/>
</clipPath>
</defs>
</svg>
